<ttFont>
<head>
    <!-- Most of this table will be recalculated by the compiler -->
    <tableVersion value="1.0"/>
    <fontRevision value="1.0"/>
    <checkSumAdjustment value="0x4050a365"/>
    <magicNumber value="0x5f0f3cf5"/>
    <flags value="00000000 00011001"/>
    <unitsPerEm value="1000"/>
    <created value="Thu Dec 23 11:28:59 2010"/>
    <modified value="Thu Dec 23 21:22:46 2010"/>
    <xMin value="-274"/>
    <yMin value="-272"/>
    <xMax value="1108"/>
    <yMax value="992"/>
    <macStyle value="00000000 00000010"/>
    <lowestRecPPEM value="9"/>
    <fontDirectionHint value="2"/>
    <indexToLocFormat value="0"/>
    <glyphDataFormat value="0"/>
  </head>
    <TTGlyph name=".notdef" xMin="50" yMin="0" xMax="700" yMax="700">
      <contour>
        <pt x="50" y="700" on="1"/>
        <pt x="700" y="700" on="1"/>
        <pt x="700" y="0" on="1"/>
        <pt x="50" y="0" on="1"/>
      </contour>
      <contour>
        <pt x="570" y="650" on="1"/>
        <pt x="375" y="433" on="1"/>
        <pt x="180" y="650" on="1"/>
        <pt x="130" y="600" on="1"/>
        <pt x="327" y="380" on="1"/>
        <pt x="130" y="160" on="1"/>
        <pt x="180" y="110" on="1"/>
        <pt x="375" y="327" on="1"/>
        <pt x="570" y="110" on="1"/>
        <pt x="620" y="160" on="1"/>
        <pt x="422" y="380" on="1"/>
        <pt x="620" y="600" on="1"/>
      </contour>
      <contour>
        <pt x="162" y="68" on="1"/>
        <pt x="127" y="68" on="1"/>
        <pt x="127" y="61" on="1"/>
        <pt x="140" y="61" on="1"/>
        <pt x="140" y="26" on="1"/>
        <pt x="149" y="26" on="1"/>
        <pt x="149" y="61" on="1"/>
        <pt x="162" y="61" on="1"/>
      </contour>
      <contour>
        <pt x="271" y="58" on="1"/>
        <pt x="269" y="58" on="1"/>
        <pt x="268" y="58" on="0"/>
        <pt x="267" y="59" on="1"/>
        <pt x="263" y="59" on="0"/>
        <pt x="258" y="54" on="1"/>
        <pt x="258" y="58" on="1"/>
        <pt x="251" y="58" on="1"/>
        <pt x="251" y="26" on="1"/>
        <pt x="259" y="26" on="1"/>
        <pt x="259" y="46" on="1"/>
        <pt x="262" y="51" on="0"/>
        <pt x="266" y="51" on="1"/>
        <pt x="268" y="51" on="0"/>
        <pt x="270" y="50" on="1"/>
      </contour>
      <contour>
        <pt x="276" y="65" on="1"/>
        <pt x="276" y="60" on="0"/>
        <pt x="280" y="60" on="1"/>
        <pt x="285" y="60" on="0"/>
        <pt x="285" y="64" on="1"/>
        <pt x="285" y="69" on="0"/>
        <pt x="280" y="69" on="1"/>
        <pt x="276" y="69" on="0"/>
      </contour>
      <contour>
        <pt x="276" y="26" on="1"/>
        <pt x="285" y="26" on="1"/>
        <pt x="285" y="58" on="1"/>
        <pt x="276" y="58" on="1"/>
      </contour>
      <contour>
        <pt x="291" y="51" on="1"/>
        <pt x="296" y="51" on="1"/>
        <pt x="296" y="26" on="1"/>
        <pt x="304" y="26" on="1"/>
        <pt x="304" y="51" on="1"/>
        <pt x="312" y="51" on="1"/>
        <pt x="312" y="58" on="1"/>
        <pt x="304" y="58" on="1"/>
        <pt x="304" y="60" on="0"/>
        <pt x="305" y="61" on="1"/>
        <pt x="306" y="62" on="0"/>
        <pt x="308" y="62" on="1"/>
        <pt x="311" y="62" on="1"/>
        <pt x="314" y="62" on="1"/>
        <pt x="315" y="68" on="1"/>
        <pt x="315" y="69" on="0"/>
        <pt x="311" y="69" on="1"/>
        <pt x="306" y="69" on="1"/>
        <pt x="302" y="69" on="1"/>
        <pt x="301" y="69" on="0"/>
        <pt x="297" y="66" on="0"/>
        <pt x="297" y="65" on="1"/>
        <pt x="296" y="63" on="0"/>
        <pt x="296" y="60" on="1"/>
        <pt x="296" y="58" on="1"/>
        <pt x="291" y="58" on="1"/>
      </contour>
      <contour>
        <pt x="331" y="45" on="1"/>
        <pt x="331" y="20" on="0"/>
        <pt x="354" y="20" on="1"/>
        <pt x="365" y="20" on="0"/>
        <pt x="378" y="32" on="0"/>
        <pt x="378" y="45" on="1"/>
        <pt x="378" y="68" on="0"/>
        <pt x="354" y="68" on="1"/>
        <pt x="344" y="68" on="0"/>
        <pt x="331" y="56" on="0"/>
      </contour>
      <contour>
        <pt x="338" y="45" on="1"/>
        <pt x="338" y="62" on="0"/>
        <pt x="354" y="62" on="1"/>
        <pt x="371" y="62" on="0"/>
        <pt x="371" y="45" on="1"/>
        <pt x="371" y="27" on="0"/>
        <pt x="354" y="27" on="1"/>
        <pt x="338" y="27" on="0"/>
      </contour>
      <contour>
        <pt x="361" y="40" on="1"/>
        <pt x="359" y="39" on="0"/>
        <pt x="357" y="39" on="1"/>
        <pt x="352" y="39" on="0"/>
        <pt x="352" y="45" on="1"/>
        <pt x="352" y="49" on="0"/>
        <pt x="357" y="49" on="1"/>
        <pt x="360" y="49" on="1"/>
        <pt x="363" y="54" on="1"/>
        <pt x="359" y="56" on="0"/>
        <pt x="354" y="56" on="1"/>
        <pt x="344" y="56" on="0"/>
        <pt x="344" y="45" on="1"/>
        <pt x="344" y="32" on="0"/>
        <pt x="354" y="32" on="1"/>
        <pt x="359" y="32" on="0"/>
        <pt x="363" y="34" on="1"/>
      </contour>
      <contour>
        <pt x="402" y="27" on="1"/>
        <pt x="411" y="27" on="1"/>
        <pt x="411" y="41" on="1"/>
        <pt x="416" y="41" on="1"/>
        <pt x="423" y="41" on="0"/>
        <pt x="434" y="47" on="0"/>
        <pt x="434" y="55" on="1"/>
        <pt x="434" y="65" on="0"/>
        <pt x="422" y="69" on="0"/>
        <pt x="415" y="69" on="1"/>
        <pt x="402" y="69" on="1"/>
      </contour>
      <contour>
        <pt x="416" y="62" on="1"/>
        <pt x="425" y="62" on="0"/>
        <pt x="425" y="56" on="1"/>
        <pt x="425" y="50" on="0"/>
        <pt x="420" y="49" on="0"/>
        <pt x="415" y="49" on="1"/>
        <pt x="411" y="49" on="1"/>
        <pt x="411" y="62" on="1"/>
      </contour>
      <contour>
        <pt x="440" y="51" on="1"/>
        <pt x="443" y="52" on="0"/>
        <pt x="448" y="53" on="0"/>
        <pt x="451" y="53" on="1"/>
        <pt x="456" y="53" on="0"/>
        <pt x="456" y="48" on="1"/>
        <pt x="456" y="46" on="1"/>
        <pt x="455" y="46" on="0"/>
        <pt x="453" y="47" on="0"/>
        <pt x="451" y="47" on="1"/>
        <pt x="436" y="47" on="0"/>
        <pt x="436" y="35" on="1"/>
        <pt x="436" y="26" on="0"/>
        <pt x="446" y="26" on="1"/>
        <pt x="453" y="26" on="0"/>
        <pt x="456" y="32" on="1"/>
        <pt x="459" y="27" on="1"/>
        <pt x="466" y="27" on="1"/>
        <pt x="465" y="28" on="0"/>
        <pt x="465" y="35" on="1"/>
        <pt x="465" y="48" on="1"/>
        <pt x="465" y="60" on="0"/>
        <pt x="453" y="60" on="1"/>
        <pt x="448" y="60" on="0"/>
        <pt x="440" y="57" on="0"/>
        <pt x="438" y="56" on="1"/>
      </contour>
      <contour>
        <pt x="450" y="33" on="1"/>
        <pt x="445" y="33" on="0"/>
        <pt x="445" y="38" on="1"/>
        <pt x="445" y="42" on="0"/>
        <pt x="451" y="42" on="1"/>
        <pt x="453" y="42" on="0"/>
        <pt x="455" y="41" on="0"/>
        <pt x="456" y="41" on="1"/>
        <pt x="456" y="38" on="1"/>
        <pt x="455" y="33" on="0"/>
      </contour>
      <contour>
        <pt x="494" y="59" on="1"/>
        <pt x="492" y="60" on="0"/>
        <pt x="489" y="60" on="1"/>
        <pt x="484" y="60" on="0"/>
        <pt x="482" y="54" on="1"/>
        <pt x="481" y="54" on="1"/>
        <pt x="480" y="59" on="1"/>
        <pt x="473" y="59" on="1"/>
        <pt x="473" y="27" on="1"/>
        <pt x="482" y="27" on="1"/>
        <pt x="482" y="47" on="1"/>
        <pt x="482" y="52" on="0"/>
        <pt x="489" y="52" on="1"/>
        <pt x="490" y="52" on="0"/>
        <pt x="490" y="51" on="0"/>
        <pt x="491" y="51" on="1"/>
        <pt x="492" y="51" on="1"/>
      </contour>
      <contour>
        <pt x="499" y="51" on="1"/>
        <pt x="509" y="53" on="0"/>
        <pt x="510" y="53" on="1"/>
        <pt x="516" y="53" on="0"/>
        <pt x="516" y="48" on="1"/>
        <pt x="516" y="46" on="1"/>
        <pt x="514" y="46" on="0"/>
        <pt x="512" y="47" on="0"/>
        <pt x="510" y="47" on="1"/>
        <pt x="495" y="47" on="0"/>
        <pt x="495" y="35" on="1"/>
        <pt x="495" y="26" on="0"/>
        <pt x="505" y="26" on="1"/>
        <pt x="513" y="26" on="0"/>
        <pt x="516" y="32" on="1"/>
        <pt x="517" y="32" on="1"/>
        <pt x="518" y="27" on="1"/>
        <pt x="525" y="27" on="1"/>
        <pt x="524" y="28" on="0"/>
        <pt x="524" y="35" on="1"/>
        <pt x="524" y="48" on="1"/>
        <pt x="524" y="60" on="0"/>
        <pt x="512" y="60" on="1"/>
        <pt x="507" y="60" on="0"/>
        <pt x="501" y="57" on="0"/>
        <pt x="498" y="56" on="1"/>
      </contour>
      <contour>
        <pt x="509" y="33" on="1"/>
        <pt x="504" y="33" on="0"/>
        <pt x="504" y="38" on="1"/>
        <pt x="504" y="42" on="0"/>
        <pt x="510" y="42" on="1"/>
        <pt x="512" y="42" on="0"/>
        <pt x="514" y="41" on="0"/>
        <pt x="516" y="41" on="1"/>
        <pt x="516" y="38" on="1"/>
        <pt x="513" y="33" on="0"/>
      </contour>
      <contour>
        <pt x="557" y="69" on="1"/>
        <pt x="521" y="69" on="1"/>
        <pt x="521" y="62" on="1"/>
        <pt x="535" y="62" on="1"/>
        <pt x="535" y="27" on="1"/>
        <pt x="543" y="27" on="1"/>
        <pt x="543" y="62" on="1"/>
        <pt x="557" y="62" on="1"/>
      </contour>
      <contour>
        <pt x="567" y="59" on="1"/>
        <pt x="557" y="59" on="1"/>
        <pt x="571" y="27" on="1"/>
        <pt x="569" y="22" on="0"/>
        <pt x="566" y="22" on="1"/>
        <pt x="564" y="23" on="1"/>
        <pt x="562" y="16" on="1"/>
        <pt x="563" y="15" on="0"/>
        <pt x="568" y="15" on="1"/>
        <pt x="575" y="15" on="0"/>
        <pt x="579" y="30" on="1"/>
        <pt x="591" y="59" on="1"/>
        <pt x="582" y="59" on="1"/>
        <pt x="576" y="41" on="1"/>
        <pt x="576" y="35" on="1"/>
        <pt x="575" y="35" on="1"/>
        <pt x="574" y="41" on="1"/>
      </contour>
      <contour>
        <pt x="595" y="15" on="1"/>
        <pt x="604" y="15" on="1"/>
        <pt x="604" y="28" on="1"/>
        <pt x="606" y="26" on="0"/>
        <pt x="610" y="26" on="1"/>
        <pt x="626" y="26" on="0"/>
        <pt x="626" y="44" on="1"/>
        <pt x="626" y="60" on="0"/>
        <pt x="613" y="60" on="1"/>
        <pt x="607" y="60" on="0"/>
        <pt x="603" y="55" on="1"/>
        <pt x="601" y="55" on="1"/>
        <pt x="600" y="59" on="1"/>
        <pt x="595" y="59" on="1"/>
      </contour>
      <contour>
        <pt x="611" y="53" on="1"/>
        <pt x="617" y="53" on="0"/>
        <pt x="617" y="44" on="1"/>
        <pt x="617" y="33" on="0"/>
        <pt x="608" y="33" on="1"/>
        <pt x="606" y="33" on="0"/>
        <pt x="604" y="35" on="1"/>
        <pt x="604" y="47" on="1"/>
        <pt x="604" y="53" on="0"/>
      </contour>
      <contour>
        <pt x="656" y="35" on="1"/>
        <pt x="654" y="33" on="0"/>
        <pt x="648" y="33" on="1"/>
        <pt x="640" y="33" on="0"/>
        <pt x="640" y="40" on="1"/>
        <pt x="661" y="40" on="1"/>
        <pt x="661" y="47" on="1"/>
        <pt x="661" y="60" on="0"/>
        <pt x="647" y="60" on="1"/>
        <pt x="631" y="60" on="0"/>
        <pt x="631" y="42" on="1"/>
        <pt x="631" y="26" on="0"/>
        <pt x="647" y="26" on="1"/>
        <pt x="655" y="26" on="0"/>
        <pt x="659" y="30" on="1"/>
      </contour>
      <contour>
        <pt x="647" y="53" on="1"/>
        <pt x="654" y="53" on="0"/>
        <pt x="653" y="46" on="1"/>
        <pt x="640" y="46" on="1"/>
        <pt x="640" y="53" on="0"/>
      </contour>
      <contour>
        <pt x="92" y="27" on="1"/>
        <pt x="101" y="27" on="1"/>
        <pt x="101" y="41" on="1"/>
        <pt x="106" y="41" on="1"/>
        <pt x="113" y="41" on="0"/>
        <pt x="124" y="47" on="0"/>
        <pt x="124" y="55" on="1"/>
        <pt x="124" y="65" on="0"/>
        <pt x="112" y="69" on="0"/>
        <pt x="105" y="69" on="1"/>
        <pt x="92" y="69" on="1"/>
      </contour>
      <contour>
        <pt x="106" y="62" on="1"/>
        <pt x="115" y="62" on="0"/>
        <pt x="115" y="56" on="1"/>
        <pt x="115" y="50" on="0"/>
        <pt x="110" y="49" on="0"/>
        <pt x="105" y="49" on="1"/>
        <pt x="101" y="49" on="1"/>
        <pt x="101" y="62" on="1"/>
      </contour>
      <contour>
        <pt x="200" y="38" on="1"/>
        <pt x="200" y="33" on="0"/>
        <pt x="192" y="33" on="1"/>
        <pt x="189" y="33" on="0"/>
        <pt x="185" y="34" on="0"/>
        <pt x="181" y="36" on="1"/>
        <pt x="178" y="27" on="1"/>
        <pt x="182" y="26" on="0"/>
        <pt x="188" y="25" on="0"/>
        <pt x="193" y="25" on="1"/>
        <pt x="209" y="25" on="0"/>
        <pt x="209" y="39" on="1"/>
        <pt x="209" y="44" on="0"/>
        <pt x="202" y="49" on="0"/>
        <pt x="195" y="52" on="0"/>
        <pt x="188" y="55" on="0"/>
        <pt x="188" y="58" on="1"/>
        <pt x="188" y="61" on="0"/>
        <pt x="195" y="61" on="1"/>
        <pt x="198" y="61" on="0"/>
        <pt x="203" y="60" on="0"/>
        <pt x="206" y="59" on="1"/>
        <pt x="208" y="67" on="1"/>
        <pt x="204" y="68" on="0"/>
        <pt x="198" y="69" on="0"/>
        <pt x="195" y="69" on="1"/>
        <pt x="179" y="69" on="0"/>
        <pt x="179" y="56" on="1"/>
        <pt x="179" y="51" on="0"/>
        <pt x="186" y="46" on="0"/>
        <pt x="193" y="43" on="0"/>
        <pt x="200" y="40" on="0"/>
      </contour>
      <contour>
        <pt x="239" y="34" on="1"/>
        <pt x="237" y="32" on="0"/>
        <pt x="231" y="32" on="1"/>
        <pt x="223" y="32" on="0"/>
        <pt x="223" y="39" on="1"/>
        <pt x="244" y="39" on="1"/>
        <pt x="244" y="46" on="1"/>
        <pt x="244" y="59" on="0"/>
        <pt x="230" y="59" on="1"/>
        <pt x="214" y="59" on="0"/>
        <pt x="214" y="41" on="1"/>
        <pt x="214" y="25" on="0"/>
        <pt x="230" y="25" on="1"/>
        <pt x="238" y="25" on="0"/>
        <pt x="242" y="29" on="1"/>
      </contour>
      <contour>
        <pt x="230" y="52" on="1"/>
        <pt x="237" y="52" on="0"/>
        <pt x="236" y="45" on="1"/>
        <pt x="223" y="45" on="1"/>
        <pt x="223" y="52" on="0"/>
      </contour>
    </TTGlyph>
    <TTGlyph name="A" xMin="-49" yMin="0" xMax="639" yMax="712">
      <contour>
        <pt x="176" y="0" on="1"/>
        <pt x="-49" y="0" on="1"/>
        <pt x="-43" y="29" on="1"/>
        <pt x="-4" y="45" on="0"/>
        <pt x="35" y="53" on="1"/>
        <pt x="430" y="712" on="1"/>
        <pt x="456" y="712" on="1"/>
        <pt x="569" y="53" on="1"/>
        <pt x="587" y="49" on="0"/>
        <pt x="624" y="38" on="0"/>
        <pt x="639" y="29" on="1"/>
        <pt x="634" y="0" on="1"/>
        <pt x="380" y="0" on="1"/>
        <pt x="385" y="29" on="1"/>
        <pt x="430" y="46" on="0"/>
        <pt x="473" y="53" on="1"/>
        <pt x="443" y="236" on="1"/>
        <pt x="208" y="236" on="1"/>
        <pt x="101" y="53" on="1"/>
        <pt x="144" y="47" on="0"/>
        <pt x="181" y="29" on="1"/>
      </contour>
      <contour>
        <pt x="237" y="288" on="1"/>
        <pt x="435" y="288" on="1"/>
        <pt x="403" y="500" on="1"/>
        <pt x="401" y="586" on="1"/>
        <pt x="399" y="586" on="1"/>
        <pt x="359" y="498" on="1"/>
      </contour>
    </TTGlyph>
    <TTGlyph name="AE" xMin="-49" yMin="0" xMax="943" yMax="700">
      <contour>
        <pt x="943" y="700" on="1"/>
        <pt x="928" y="623" on="0"/>
        <pt x="897" y="538" on="1"/>
        <pt x="871" y="538" on="1"/>
        <pt x="854" y="648" on="1"/>
        <pt x="635" y="648" on="1"/>
        <pt x="580" y="383" on="1"/>
        <pt x="742" y="383" on="1"/>
        <pt x="797" y="457" on="1"/>
        <pt x="822" y="457" on="1"/>
        <pt x="815" y="407" on="0"/>
        <pt x="795" y="303" on="0"/>
        <pt x="779" y="255" on="1"/>
        <pt x="755" y="255" on="1"/>
        <pt x="731" y="331" on="1"/>
        <pt x="569" y="331" on="1"/>
        <pt x="509" y="51" on="1"/>
        <pt x="739" y="51" on="1"/>
        <pt x="814" y="172" on="1"/>
        <pt x="839" y="172" on="1"/>
        <pt x="837" y="131" on="0"/>
        <pt x="825" y="44" on="0"/>
        <pt x="814" y="0" on="1"/>
        <pt x="321" y="0" on="1"/>
        <pt x="326" y="29" on="1"/>
        <pt x="367" y="46" on="0"/>
        <pt x="414" y="53" on="1"/>
        <pt x="457" y="256" on="1"/>
        <pt x="264" y="256" on="1"/>
        <pt x="107" y="53" on="1"/>
        <pt x="128" y="50" on="0"/>
        <pt x="166" y="38" on="0"/>
        <pt x="186" y="29" on="1"/>
        <pt x="181" y="0" on="1"/>
        <pt x="-49" y="0" on="1"/>
        <pt x="-43" y="29" on="1"/>
        <pt x="-4" y="45" on="0"/>
        <pt x="35" y="53" on="1"/>
        <pt x="514" y="652" on="1"/>
        <pt x="485" y="658" on="0"/>
        <pt x="460" y="671" on="1"/>
        <pt x="467" y="700" on="1"/>
      </contour>
      <contour>
        <pt x="304" y="307" on="1"/>
        <pt x="468" y="307" on="1"/>
        <pt x="533" y="611" on="1"/>
        <pt x="531" y="611" on="1"/>
        <pt x="472" y="518" on="1"/>
      </contour>
    </TTGlyph>
    <TTGlyph name="Aacute" xMin="-49" yMin="0" xMax="664" yMax="894">
      <component glyphName="A" x="0" y="0" flags="0x204"/>
      <component glyphName="uniF6C9" x="75" y="0" flags="0x4"/>
    </TTGlyph>
    <TTGlyph name="Acircumflex" xMin="-49" yMin="0" xMax="639" yMax="887">
      <component glyphName="A" x="0" y="0" flags="0x204"/>
      <component glyphName="uniF408" x="17" y="0" flags="0x4"/>
    </TTGlyph>
    <TTGlyph name="Adieresis" xMin="-49" yMin="0" xMax="639" yMax="837">
      <component glyphName="A" x="0" y="0" flags="0x204"/>
      <component glyphName="uniF6CB" x="64" y="0" flags="0x4"/>
    </TTGlyph>
    <TTGlyph name="Agrave" xMin="-49" yMin="0" xMax="639" yMax="894">
      <component glyphName="A" x="0" y="0" flags="0x204"/>
      <component glyphName="uniF6CE" x="58" y="0" flags="0x4"/>
    </TTGlyph>
    <TTGlyph name="Aring" xMin="-49" yMin="0" xMax="639" yMax="874">
      <contour>
        <pt x="346" y="778" on="1"/>
        <pt x="346" y="798" on="0"/>
        <pt x="368" y="833" on="0"/>
        <pt x="404" y="859" on="0"/>
        <pt x="452" y="874" on="0"/>
        <pt x="479" y="874" on="1"/>
        <pt x="496" y="874" on="0"/>
        <pt x="529" y="868" on="0"/>
        <pt x="554" y="851" on="0"/>
        <pt x="570" y="823" on="0"/>
        <pt x="570" y="802" on="1"/>
        <pt x="570" y="783" on="0"/>
        <pt x="551" y="751" on="0"/>
        <pt x="519" y="726" on="0"/>
        <pt x="478" y="711" on="0"/>
        <pt x="456" y="709" on="1"/>
        <pt x="569" y="53" on="1"/>
        <pt x="587" y="49" on="0"/>
        <pt x="624" y="38" on="0"/>
        <pt x="639" y="29" on="1"/>
        <pt x="634" y="0" on="1"/>
        <pt x="380" y="0" on="1"/>
        <pt x="385" y="29" on="1"/>
        <pt x="430" y="46" on="0"/>
        <pt x="473" y="53" on="1"/>
        <pt x="443" y="236" on="1"/>
        <pt x="208" y="236" on="1"/>
        <pt x="101" y="53" on="1"/>
        <pt x="144" y="47" on="0"/>
        <pt x="181" y="29" on="1"/>
        <pt x="176" y="0" on="1"/>
        <pt x="-49" y="0" on="1"/>
        <pt x="-43" y="29" on="1"/>
        <pt x="-4" y="45" on="0"/>
        <pt x="35" y="53" on="1"/>
        <pt x="428" y="709" on="1"/>
        <pt x="390" y="711" on="0"/>
        <pt x="346" y="746" on="0"/>
      </contour>
      <contour>
        <pt x="237" y="288" on="1"/>
        <pt x="435" y="288" on="1"/>
        <pt x="403" y="500" on="1"/>
        <pt x="401" y="586" on="1"/>
        <pt x="399" y="586" on="1"/>
        <pt x="359" y="498" on="1"/>
      </contour>
      <contour>
        <pt x="402" y="781" on="1"/>
        <pt x="402" y="764" on="0"/>
        <pt x="428" y="750" on="0"/>
        <pt x="447" y="750" on="1"/>
        <pt x="476" y="750" on="0"/>
        <pt x="514" y="777" on="0"/>
        <pt x="514" y="797" on="1"/>
        <pt x="514" y="817" on="0"/>
        <pt x="488" y="833" on="0"/>
        <pt x="469" y="833" on="1"/>
        <pt x="440" y="833" on="0"/>
        <pt x="402" y="804" on="0"/>
      </contour>
    </TTGlyph>
    <TTGlyph name="Atilde" xMin="-49" yMin="0" xMax="639" yMax="862">
      <component glyphName="A" x="0" y="0" flags="0x204"/>
      <component glyphName="uniF40D" x="-73" y="0" flags="0x4"/>
    </TTGlyph>
    <TTGlyph name="B" xMin="-20" yMin="-6" xMax="599" yMax="706">
      <contour>
        <pt x="-20" y="0" on="1"/>
        <pt x="-15" y="29" on="1"/>
        <pt x="30" y="48" on="0"/>
        <pt x="73" y="53" on="1"/>
        <pt x="198" y="646" on="1"/>
        <pt x="178" y="650" on="0"/>
        <pt x="140" y="663" on="0"/>
        <pt x="121" y="671" on="1"/>
        <pt x="128" y="700" on="1"/>
        <pt x="234" y="700" on="1"/>
        <pt x="271" y="700" on="0"/>
        <pt x="345" y="706" on="0"/>
        <pt x="401" y="706" on="1"/>
        <pt x="441" y="706" on="0"/>
        <pt x="513" y="692" on="0"/>
        <pt x="567" y="662" on="0"/>
        <pt x="599" y="613" on="0"/>
        <pt x="599" y="577" on="1"/>
        <pt x="599" y="542" on="0"/>
        <pt x="578" y="479" on="0"/>
        <pt x="534" y="426" on="0"/>
        <pt x="467" y="386" on="0"/>
        <pt x="422" y="374" on="1"/>
        <pt x="422" y="370" on="1"/>
        <pt x="445" y="368" on="0"/>
        <pt x="493" y="352" on="0"/>
        <pt x="532" y="321" on="0"/>
        <pt x="556" y="274" on="0"/>
        <pt x="556" y="242" on="1"/>
        <pt x="556" y="189" on="0"/>
        <pt x="516" y="99" on="0"/>
        <pt x="437" y="32" on="0"/>
        <pt x="317" y="-6" on="0"/>
        <pt x="237" y="-6" on="1"/>
        <pt x="202" y="-6" on="0"/>
        <pt x="117" y="0" on="0"/>
        <pt x="76" y="0" on="1"/>
      </contour>
      <contour>
        <pt x="256" y="46" on="1"/>
        <pt x="297" y="45" on="0"/>
        <pt x="371" y="69" on="0"/>
        <pt x="427" y="115" on="0"/>
        <pt x="460" y="182" on="0"/>
        <pt x="460" y="225" on="1"/>
        <pt x="460" y="258" on="0"/>
        <pt x="437" y="300" on="0"/>
        <pt x="394" y="322" on="0"/>
        <pt x="334" y="330" on="0"/>
        <pt x="297" y="330" on="1"/>
        <pt x="221" y="330" on="1"/>
        <pt x="163" y="54" on="1"/>
        <pt x="176" y="50" on="0"/>
        <pt x="214" y="45" on="0"/>
      </contour>
      <contour>
        <pt x="282" y="382" on="1"/>
        <pt x="299" y="382" on="0"/>
        <pt x="346" y="385" on="0"/>
        <pt x="363" y="387" on="1"/>
        <pt x="442" y="415" on="0"/>
        <pt x="503" y="510" on="0"/>
        <pt x="503" y="566" on="1"/>
        <pt x="503" y="605" on="0"/>
        <pt x="447" y="654" on="0"/>
        <pt x="381" y="654" on="1"/>
        <pt x="349" y="654" on="0"/>
        <pt x="304" y="651" on="0"/>
        <pt x="289" y="649" on="1"/>
        <pt x="232" y="382" on="1"/>
      </contour>
    </TTGlyph>
    <TTGlyph name="C" xMin="66" yMin="-12" xMax="669" yMax="712">
      <contour>
        <pt x="557" y="182" on="1"/>
        <pt x="582" y="182" on="1"/>
        <pt x="582" y="154" on="0"/>
        <pt x="571" y="69" on="0"/>
        <pt x="560" y="29" on="1"/>
        <pt x="540" y="18" on="0"/>
        <pt x="494" y="2" on="0"/>
        <pt x="444" y="-8" on="0"/>
        <pt x="396" y="-12" on="0"/>
        <pt x="375" y="-12" on="1"/>
        <pt x="290" y="-12" on="0"/>
        <pt x="172" y="36" on="0"/>
        <pt x="99" y="114" on="0"/>
        <pt x="66" y="210" on="0"/>
        <pt x="66" y="258" on="1"/>
        <pt x="66" y="360" on="0"/>
        <pt x="124" y="527" on="0"/>
        <pt x="231" y="646" on="0"/>
        <pt x="384" y="712" on="0"/>
        <pt x="480" y="712" on="1"/>
        <pt x="546" y="712" on="0"/>
        <pt x="638" y="694" on="0"/>
        <pt x="669" y="678" on="1"/>
        <pt x="666" y="662" on="0"/>
        <pt x="655" y="619" on="0"/>
        <pt x="640" y="571" on="0"/>
        <pt x="624" y="525" on="0"/>
        <pt x="617" y="506" on="1"/>
        <pt x="591" y="506" on="1"/>
        <pt x="570" y="650" on="1"/>
        <pt x="557" y="655" on="0"/>
        <pt x="504" y="660" on="0"/>
        <pt x="479" y="660" on="1"/>
        <pt x="413" y="660" on="0"/>
        <pt x="301" y="609" on="0"/>
        <pt x="219" y="509" on="0"/>
        <pt x="173" y="359" on="0"/>
        <pt x="173" y="260" on="1"/>
        <pt x="173" y="198" on="0"/>
        <pt x="216" y="113" on="0"/>
        <pt x="281" y="61" on="0"/>
        <pt x="357" y="39" on="0"/>
        <pt x="391" y="40" on="1"/>
        <pt x="425" y="39" on="0"/>
        <pt x="472" y="51" on="0"/>
        <pt x="483" y="58" on="1"/>
      </contour>
    </TTGlyph>
    <TTGlyph name="Ccedilla" xMin="66" yMin="-272" xMax="669" yMax="712">
      <contour>
        <pt x="557" y="182" on="1"/>
        <pt x="582" y="182" on="1"/>
        <pt x="582" y="154" on="0"/>
        <pt x="571" y="69" on="0"/>
        <pt x="560" y="29" on="1"/>
        <pt x="522" y="7" on="0"/>
        <pt x="426" y="-11" on="0"/>
        <pt x="384" y="-12" on="1"/>
        <pt x="347" y="-75" on="1"/>
        <pt x="402" y="-76" on="0"/>
        <pt x="439" y="-117" on="0"/>
        <pt x="439" y="-148" on="1"/>
        <pt x="439" y="-180" on="0"/>
        <pt x="398" y="-227" on="0"/>
        <pt x="338" y="-257" on="0"/>
        <pt x="268" y="-272" on="0"/>
        <pt x="239" y="-272" on="1"/>
        <pt x="239" y="-239" on="1"/>
        <pt x="258" y="-236" on="0"/>
        <pt x="299" y="-225" on="0"/>
        <pt x="331" y="-207" on="0"/>
        <pt x="351" y="-181" on="0"/>
        <pt x="351" y="-163" on="1"/>
        <pt x="351" y="-153" on="0"/>
        <pt x="345" y="-136" on="0"/>
        <pt x="330" y="-125" on="0"/>
        <pt x="304" y="-118" on="0"/>
        <pt x="282" y="-116" on="1"/>
        <pt x="335" y="-10" on="1"/>
        <pt x="261" y="-4" on="0"/>
        <pt x="159" y="47" on="0"/>
        <pt x="95" y="122" on="0"/>
        <pt x="66" y="213" on="0"/>
        <pt x="66" y="258" on="1"/>
        <pt x="66" y="360" on="0"/>
        <pt x="124" y="527" on="0"/>
        <pt x="231" y="646" on="0"/>
        <pt x="384" y="712" on="0"/>
        <pt x="480" y="712" on="1"/>
        <pt x="546" y="712" on="0"/>
        <pt x="638" y="694" on="0"/>
        <pt x="669" y="678" on="1"/>
        <pt x="666" y="662" on="0"/>
        <pt x="655" y="619" on="0"/>
        <pt x="640" y="571" on="0"/>
        <pt x="624" y="525" on="0"/>
        <pt x="617" y="506" on="1"/>
        <pt x="591" y="506" on="1"/>
        <pt x="570" y="650" on="1"/>
        <pt x="557" y="655" on="0"/>
        <pt x="504" y="660" on="0"/>
        <pt x="479" y="660" on="1"/>
        <pt x="413" y="660" on="0"/>
        <pt x="301" y="609" on="0"/>
        <pt x="219" y="509" on="0"/>
        <pt x="173" y="359" on="0"/>
        <pt x="173" y="260" on="1"/>
        <pt x="173" y="198" on="0"/>
        <pt x="216" y="113" on="0"/>
        <pt x="281" y="61" on="0"/>
        <pt x="357" y="39" on="0"/>
        <pt x="391" y="40" on="1"/>
        <pt x="425" y="39" on="0"/>
        <pt x="472" y="51" on="0"/>
        <pt x="483" y="58" on="1"/>
      </contour>
    </TTGlyph>
    <TTGlyph name="D" xMin="-20" yMin="-9" xMax="695" yMax="708">
      <contour>
        <pt x="-20" y="0" on="1"/>
        <pt x="-15" y="29" on="1"/>
        <pt x="26" y="46" on="0"/>
        <pt x="73" y="53" on="1"/>
        <pt x="198" y="646" on="1"/>
        <pt x="176" y="651" on="0"/>
        <pt x="137" y="664" on="0"/>
        <pt x="121" y="671" on="1"/>
        <pt x="128" y="700" on="1"/>
        <pt x="229" y="700" on="1"/>
        <pt x="246" y="700" on="0"/>
        <pt x="293" y="702" on="0"/>
        <pt x="342" y="705" on="0"/>
        <pt x="388" y="708" on="0"/>
        <pt x="403" y="708" on="1"/>
        <pt x="483" y="708" on="0"/>
        <pt x="595" y="670" on="0"/>
        <pt x="664" y="605" on="0"/>
        <pt x="695" y="516" on="0"/>
        <pt x="695" y="465" on="1"/>
        <pt x="695" y="414" on="0"/>
        <pt x="678" y="303" on="0"/>
        <pt x="638" y="198" on="0"/>
        <pt x="571" y="104" on="0"/>
        <pt x="470" y="33" on="0"/>
        <pt x="332" y="-9" on="0"/>
        <pt x="242" y="-9" on="1"/>
        <pt x="227" y="-9" on="0"/>
        <pt x="186" y="-6" on="0"/>
        <pt x="140" y="-3" on="0"/>
        <pt x="94" y="0" on="0"/>
        <pt x="75" y="0" on="1"/>
      </contour>
      <contour>
        <pt x="383" y="656" on="1"/>
        <pt x="357" y="656" on="0"/>
        <pt x="303" y="654" on="0"/>
        <pt x="289" y="652" on="1"/>
        <pt x="161" y="46" on="1"/>
        <pt x="171" y="45" on="0"/>
        <pt x="200" y="44" on="0"/>
        <pt x="229" y="43" on="0"/>
        <pt x="252" y="42" on="0"/>
        <pt x="258" y="43" on="1"/>
        <pt x="352" y="42" on="0"/>
        <pt x="479" y="118" on="0"/>
        <pt x="556" y="241" on="0"/>
        <pt x="588" y="394" on="0"/>
        <pt x="588" y="471" on="1"/>
        <pt x="588" y="510" on="0"/>
        <pt x="570" y="578" on="0"/>
        <pt x="524" y="627" on="0"/>
        <pt x="445" y="656" on="0"/>
      </contour>
    </TTGlyph>
    <TTGlyph name="E" xMin="-20" yMin="0" xMax="601" yMax="700">
      <contour>
        <pt x="601" y="700" on="1"/>
        <pt x="593" y="660" on="0"/>
        <pt x="571" y="578" on="0"/>
        <pt x="556" y="538" on="1"/>
        <pt x="530" y="538" on="1"/>
        <pt x="513" y="648" on="1"/>
        <pt x="294" y="648" on="1"/>
        <pt x="239" y="383" on="1"/>
        <pt x="401" y="383" on="1"/>
        <pt x="456" y="457" on="1"/>
        <pt x="481" y="457" on="1"/>
        <pt x="473" y="407" on="0"/>
        <pt x="452" y="306" on="0"/>
        <pt x="438" y="255" on="1"/>
        <pt x="413" y="255" on="1"/>
        <pt x="390" y="331" on="1"/>
        <pt x="227" y="331" on="1"/>
        <pt x="169" y="52" on="1"/>
        <pt x="398" y="52" on="1"/>
        <pt x="473" y="172" on="1"/>
        <pt x="498" y="172" on="1"/>
        <pt x="496" y="133" on="0"/>
        <pt x="484" y="44" on="0"/>
        <pt x="473" y="0" on="1"/>
        <pt x="-20" y="0" on="1"/>
        <pt x="-15" y="29" on="1"/>
        <pt x="26" y="46" on="0"/>
        <pt x="73" y="53" on="1"/>
        <pt x="198" y="646" on="1"/>
        <pt x="178" y="651" on="0"/>
        <pt x="140" y="663" on="0"/>
        <pt x="121" y="671" on="1"/>
        <pt x="128" y="700" on="1"/>
      </contour>
    </TTGlyph>
    <TTGlyph name="Eacute" xMin="-20" yMin="0" xMax="601" yMax="894">
      <component glyphName="E" x="0" y="0" flags="0x204"/>
      <component glyphName="uniF6C9" x="-28" y="0" flags="0x4"/>
    </TTGlyph>
    <TTGlyph name="Ecircumflex" xMin="-20" yMin="0" xMax="601" yMax="887">
      <component glyphName="E" x="0" y="0" flags="0x204"/>
      <component glyphName="uniF408" x="-18" y="0" flags="0x4"/>
    </TTGlyph>
    <TTGlyph name="Edieresis" xMin="-20" yMin="0" xMax="601" yMax="837">
      <component glyphName="E" x="0" y="0" flags="0x204"/>
      <component glyphName="uniF6CB" x="10" y="0" flags="0x4"/>
    </TTGlyph>
    <TTGlyph name="Egrave" xMin="-20" yMin="0" xMax="601" yMax="894">
      <component glyphName="E" x="0" y="0" flags="0x204"/>
      <component glyphName="uniF6CE" x="31" y="0" flags="0x4"/>
    </TTGlyph>
    <TTGlyph name="Eth" xMin="-20" yMin="-9" xMax="695" yMax="708">
      <contour>
        <pt x="-20" y="0" on="1"/>
        <pt x="-15" y="29" on="1"/>
        <pt x="26" y="46" on="0"/>
        <pt x="73" y="53" on="1"/>
        <pt x="132" y="331" on="1"/>
        <pt x="42" y="331" on="1"/>
        <pt x="53" y="383" on="1"/>
        <pt x="142" y="383" on="1"/>
        <pt x="198" y="646" on="1"/>
        <pt x="176" y="651" on="0"/>
        <pt x="137" y="664" on="0"/>
        <pt x="121" y="671" on="1"/>
        <pt x="128" y="700" on="1"/>
        <pt x="229" y="700" on="1"/>
        <pt x="246" y="700" on="0"/>
        <pt x="293" y="702" on="0"/>
        <pt x="342" y="705" on="0"/>
        <pt x="388" y="708" on="0"/>
        <pt x="403" y="708" on="1"/>
        <pt x="483" y="708" on="0"/>
        <pt x="595" y="670" on="0"/>
        <pt x="664" y="605" on="0"/>
        <pt x="695" y="516" on="0"/>
        <pt x="695" y="465" on="1"/>
        <pt x="695" y="414" on="0"/>
        <pt x="678" y="303" on="0"/>
        <pt x="638" y="198" on="0"/>
        <pt x="571" y="104" on="0"/>
        <pt x="470" y="33" on="0"/>
        <pt x="332" y="-9" on="0"/>
        <pt x="242" y="-9" on="1"/>
        <pt x="227" y="-9" on="0"/>
        <pt x="186" y="-6" on="0"/>
        <pt x="140" y="-3" on="0"/>
        <pt x="94" y="0" on="0"/>
        <pt x="75" y="0" on="1"/>
      </contour>
      <contour>
        <pt x="383" y="656" on="1"/>
        <pt x="357" y="656" on="0"/>
        <pt x="303" y="654" on="0"/>
        <pt x="289" y="652" on="1"/>
        <pt x="232" y="383" on="1"/>
        <pt x="399" y="383" on="1"/>
        <pt x="388" y="331" on="1"/>
        <pt x="221" y="331" on="1"/>
        <pt x="161" y="46" on="1"/>
        <pt x="171" y="45" on="0"/>
        <pt x="200" y="44" on="0"/>
        <pt x="229" y="43" on="0"/>
        <pt x="252" y="42" on="0"/>
        <pt x="258" y="43" on="1"/>
        <pt x="352" y="42" on="0"/>
        <pt x="479" y="118" on="0"/>
        <pt x="556" y="241" on="0"/>
        <pt x="588" y="394" on="0"/>
        <pt x="588" y="471" on="1"/>
        <pt x="588" y="510" on="0"/>
        <pt x="570" y="578" on="0"/>
        <pt x="524" y="627" on="0"/>
        <pt x="445" y="656" on="0"/>
      </contour>
    </TTGlyph>
    <TTGlyph name="Euro" xMin="-49" yMin="-12" xMax="604" yMax="712">
      <contour>
        <pt x="166" y="383" on="1"/>
        <pt x="164" y="366" on="0"/>
        <pt x="160" y="331" on="0"/>
        <pt x="158" y="314" on="1"/>
        <pt x="413" y="314" on="1"/>
        <pt x="385" y="258" on="1"/>
        <pt x="157" y="258" on="1"/>
        <pt x="157" y="195" on="0"/>
        <pt x="186" y="112" on="0"/>
        <pt x="235" y="61" on="0"/>
        <pt x="298" y="40" on="0"/>
        <pt x="331" y="40" on="1"/>
        <pt x="365" y="40" on="0"/>
        <pt x="408" y="52" on="0"/>
        <pt x="418" y="59" on="1"/>
        <pt x="492" y="182" on="1"/>
        <pt x="518" y="182" on="1"/>
        <pt x="517" y="154" on="0"/>
        <pt x="506" y="69" on="0"/>
        <pt x="496" y="29" on="1"/>
        <pt x="457" y="6" on="0"/>
        <pt x="357" y="-12" on="0"/>
        <pt x="315" y="-12" on="1"/>
        <pt x="236" y="-12" on="0"/>
        <pt x="134" y="36" on="0"/>
        <pt x="75" y="113" on="0"/>
        <pt x="52" y="209" on="0"/>
        <pt x="52" y="258" on="1"/>
        <pt x="-49" y="258" on="1"/>
        <pt x="-22" y="314" on="1"/>
        <pt x="54" y="314" on="1"/>
        <pt x="56" y="331" on="0"/>
        <pt x="60" y="366" on="0"/>
        <pt x="64" y="383" on="1"/>
        <pt x="-23" y="383" on="1"/>
        <pt x="5" y="439" on="1"/>
        <pt x="77" y="439" on="1"/>
        <pt x="96" y="502" on="0"/>
        <pt x="162" y="603" on="0"/>
        <pt x="250" y="674" on="0"/>
        <pt x="357" y="712" on="0"/>
        <pt x="419" y="712" on="1"/>
        <pt x="485" y="712" on="0"/>
        <pt x="573" y="694" on="0"/>
        <pt x="604" y="678" on="1"/>
        <pt x="601" y="662" on="0"/>
        <pt x="590" y="619" on="0"/>
        <pt x="575" y="571" on="0"/>
        <pt x="559" y="525" on="0"/>
        <pt x="552" y="506" on="1"/>
        <pt x="526" y="506" on="1"/>
        <pt x="505" y="650" on="1"/>
        <pt x="493" y="655" on="0"/>
        <pt x="444" y="660" on="0"/>
        <pt x="419" y="660" on="1"/>
        <pt x="338" y="660" on="0"/>
        <pt x="209" y="550" on="0"/>
        <pt x="178" y="439" on="1"/>
        <pt x="474" y="439" on="1"/>
        <pt x="446" y="383" on="1"/>
      </contour>
    </TTGlyph>
    <TTGlyph name="F" xMin="-20" yMin="0" xMax="597" yMax="700">
      <contour>
        <pt x="159" y="53" on="1"/>
        <pt x="201" y="47" on="0"/>
        <pt x="239" y="29" on="1"/>
        <pt x="234" y="0" on="1"/>
        <pt x="-20" y="0" on="1"/>
        <pt x="-15" y="29" on="1"/>
        <pt x="3" y="37" on="0"/>
        <pt x="43" y="49" on="0"/>
        <pt x="63" y="53" on="1"/>
        <pt x="188" y="646" on="1"/>
        <pt x="168" y="652" on="0"/>
        <pt x="134" y="664" on="0"/>
        <pt x="121" y="671" on="1"/>
        <pt x="128" y="700" on="1"/>
        <pt x="597" y="700" on="1"/>
        <pt x="588" y="661" on="0"/>
        <pt x="566" y="579" on="0"/>
        <pt x="551" y="538" on="1"/>
        <pt x="525" y="538" on="1"/>
        <pt x="508" y="648" on="1"/>
        <pt x="284" y="648" on="1"/>
        <pt x="224" y="363" on="1"/>
        <pt x="399" y="363" on="1"/>
        <pt x="453" y="437" on="1"/>
        <pt x="478" y="437" on="1"/>
        <pt x="473" y="392" on="0"/>
        <pt x="450" y="281" on="0"/>
        <pt x="436" y="235" on="1"/>
        <pt x="411" y="235" on="1"/>
        <pt x="389" y="312" on="1"/>
        <pt x="213" y="312" on="1"/>
      </contour>
    </TTGlyph>
    <TTGlyph name="G" xMin="66" yMin="-12" xMax="693" yMax="712">
      <contour>
        <pt x="571" y="48" on="1"/>
        <pt x="549" y="35" on="0"/>
        <pt x="493" y="13" on="0"/>
        <pt x="434" y="-3" on="0"/>
        <pt x="375" y="-12" on="0"/>
        <pt x="350" y="-12" on="1"/>
        <pt x="217" y="-12" on="0"/>
        <pt x="66" y="129" on="0"/>
        <pt x="66" y="259" on="1"/>
        <pt x="66" y="360" on="0"/>
        <pt x="123" y="527" on="0"/>
        <pt x="231" y="646" on="0"/>
        <pt x="386" y="712" on="0"/>
        <pt x="484" y="712" on="1"/>
        <pt x="550" y="712" on="0"/>
        <pt x="644" y="695" on="0"/>
        <pt x="675" y="678" on="1"/>
        <pt x="672" y="663" on="0"/>
        <pt x="661" y="619" on="0"/>
        <pt x="646" y="571" on="0"/>
        <pt x="630" y="524" on="0"/>
        <pt x="623" y="506" on="1"/>
        <pt x="597" y="506" on="1"/>
        <pt x="576" y="650" on="1"/>
        <pt x="558" y="655" on="0"/>
        <pt x="504" y="660" on="0"/>
        <pt x="479" y="660" on="1"/>
        <pt x="402" y="660" on="0"/>
        <pt x="287" y="597" on="0"/>
        <pt x="211" y="489" on="0"/>
        <pt x="173" y="344" on="0"/>
        <pt x="173" y="261" on="1"/>
        <pt x="173" y="190" on="0"/>
        <pt x="213" y="103" on="0"/>
        <pt x="272" y="55" on="0"/>
        <pt x="339" y="39" on="0"/>
        <pt x="367" y="40" on="1"/>
        <pt x="407" y="39" on="0"/>
        <pt x="475" y="65" on="0"/>
        <pt x="488" y="75" on="1"/>
        <pt x="532" y="277" on="1"/>
        <pt x="506" y="279" on="0"/>
        <pt x="462" y="293" on="0"/>
        <pt x="441" y="301" on="1"/>
        <pt x="448" y="330" on="1"/>
        <pt x="693" y="330" on="1"/>
        <pt x="687" y="301" on="1"/>
        <pt x="676" y="294" on="0"/>
        <pt x="644" y="282" on="0"/>
        <pt x="619" y="277" on="1"/>
      </contour>
    </TTGlyph>
    <TTGlyph name="H" xMin="-20" yMin="0" xMax="798" yMax="700">
      <contour>
        <pt x="233" y="0" on="1"/>
        <pt x="-20" y="0" on="1"/>
        <pt x="-15" y="29" on="1"/>
        <pt x="7" y="39" on="0"/>
        <pt x="51" y="50" on="0"/>
        <pt x="73" y="53" on="1"/>
        <pt x="198" y="646" on="1"/>
        <pt x="153" y="655" on="0"/>
        <pt x="121" y="671" on="1"/>
        <pt x="128" y="700" on="1"/>
        <pt x="381" y="700" on="1"/>
        <pt x="375" y="671" on="1"/>
        <pt x="358" y="662" on="0"/>
        <pt x="314" y="650" on="0"/>
        <pt x="294" y="646" on="1"/>
        <pt x="239" y="385" on="1"/>
        <pt x="553" y="385" on="1"/>
        <pt x="609" y="646" on="1"/>
        <pt x="589" y="651" on="0"/>
        <pt x="554" y="662" on="0"/>
        <pt x="538" y="671" on="1"/>
        <pt x="545" y="700" on="1"/>
        <pt x="798" y="700" on="1"/>
        <pt x="792" y="671" on="1"/>
        <pt x="772" y="661" on="0"/>
        <pt x="727" y="650" on="0"/>
        <pt x="705" y="646" on="1"/>
        <pt x="579" y="53" on="1"/>
        <pt x="624" y="45" on="0"/>
        <pt x="655" y="29" on="1"/>
        <pt x="650" y="0" on="1"/>
        <pt x="397" y="0" on="1"/>
        <pt x="402" y="29" on="1"/>
        <pt x="421" y="37" on="0"/>
        <pt x="462" y="49" on="0"/>
        <pt x="483" y="53" on="1"/>
        <pt x="542" y="333" on="1"/>
        <pt x="227" y="333" on="1"/>
        <pt x="169" y="53" on="1"/>
        <pt x="187" y="49" on="0"/>
        <pt x="223" y="37" on="0"/>
        <pt x="238" y="29" on="1"/>
      </contour>
    </TTGlyph>
    <TTGlyph name="I" xMin="-1" yMin="0" xMax="403" yMax="700">
      <contour>
        <pt x="255" y="0" on="1"/>
        <pt x="-1" y="0" on="1"/>
        <pt x="4" y="29" on="1"/>
        <pt x="48" y="47" on="0"/>
        <pt x="90" y="53" on="1"/>
        <pt x="215" y="646" on="1"/>
        <pt x="195" y="650" on="0"/>
        <pt x="159" y="663" on="0"/>
        <pt x="140" y="671" on="1"/>
        <pt x="147" y="700" on="1"/>
        <pt x="403" y="700" on="1"/>
        <pt x="397" y="671" on="1"/>
        <pt x="377" y="663" on="0"/>
        <pt x="331" y="650" on="0"/>
        <pt x="311" y="646" on="1"/>
        <pt x="186" y="53" on="1"/>
        <pt x="206" y="49" on="0"/>
        <pt x="245" y="37" on="0"/>
        <pt x="260" y="29" on="1"/>
      </contour>
    </TTGlyph>
    <TTGlyph name="Iacute" xMin="-1" yMin="0" xMax="437" yMax="894">
      <component glyphName="I" x="0" y="0" flags="0x204"/>
      <component glyphName="uniF6C9" x="-152" y="0" flags="0x4"/>
    </TTGlyph>
    <TTGlyph name="Icircumflex" xMin="-1" yMin="0" xMax="416" yMax="887">
      <component glyphName="I" x="0" y="0" flags="0x204"/>
      <component glyphName="uniF408" x="-143" y="0" flags="0x4"/>
    </TTGlyph>
    <TTGlyph name="Idieresis" xMin="-1" yMin="0" xMax="450" yMax="837">
      <component glyphName="I" x="0" y="0" flags="0x204"/>
      <component glyphName="uniF6CB" x="-106" y="0" flags="0x4"/>
    </TTGlyph>
    <TTGlyph name="Igrave" xMin="-1" yMin="0" xMax="403" yMax="894">
      <component glyphName="I" x="0" y="0" flags="0x204"/>
      <component glyphName="uniF6CE" x="-68" y="0" flags="0x4"/>
    </TTGlyph>
    <TTGlyph name="J" xMin="-32" yMin="-160" xMax="391" yMax="700">
      <contour>
        <pt x="136" y="700" on="1"/>
        <pt x="391" y="700" on="1"/>
        <pt x="386" y="671" on="1"/>
        <pt x="366" y="662" on="0"/>
        <pt x="320" y="650" on="0"/>
        <pt x="300" y="646" on="1"/>
        <pt x="182" y="86" on="1"/>
        <pt x="167" y="17" on="0"/>
        <pt x="116" y="-73" on="0"/>
        <pt x="57" y="-128" on="0"/>
        <pt x="-2" y="-155" on="0"/>
        <pt x="-25" y="-160" on="1"/>
        <pt x="-32" y="-145" on="1"/>
        <pt x="-12" y="-129" on="0"/>
        <pt x="21" y="-96" on="0"/>
        <pt x="49" y="-47" on="0"/>
        <pt x="73" y="23" on="0"/>
        <pt x="84" y="75" on="1"/>
        <pt x="204" y="646" on="1"/>
        <pt x="161" y="656" on="0"/>
        <pt x="130" y="671" on="1"/>
      </contour>
    </TTGlyph>
    <TTGlyph name="K" xMin="-20" yMin="0" xMax="703" yMax="700">
      <contour>
        <pt x="476" y="700" on="1"/>
        <pt x="703" y="700" on="1"/>
        <pt x="696" y="671" on="1"/>
        <pt x="678" y="662" on="0"/>
        <pt x="634" y="650" on="0"/>
        <pt x="615" y="646" on="1"/>
        <pt x="356" y="376" on="1"/>
        <pt x="374" y="343" on="0"/>
        <pt x="421" y="263" on="0"/>
        <pt x="474" y="177" on="0"/>
        <pt x="531" y="89" on="0"/>
        <pt x="559" y="49" on="1"/>
        <pt x="602" y="25" on="1"/>
        <pt x="597" y="0" on="1"/>
        <pt x="476" y="0" on="1"/>
        <pt x="447" y="24" on="1"/>
        <pt x="402" y="93" on="0"/>
        <pt x="318" y="253" on="0"/>
        <pt x="281" y="335" on="1"/>
        <pt x="228" y="335" on="1"/>
        <pt x="169" y="53" on="1"/>
        <pt x="210" y="45" on="0"/>
        <pt x="238" y="29" on="1"/>
        <pt x="233" y="0" on="1"/>
        <pt x="-20" y="0" on="1"/>
        <pt x="-15" y="29" on="1"/>
        <pt x="30" y="47" on="0"/>
        <pt x="73" y="53" on="1"/>
        <pt x="198" y="646" on="1"/>
        <pt x="176" y="650" on="0"/>
        <pt x="137" y="662" on="0"/>
        <pt x="121" y="671" on="1"/>
        <pt x="128" y="700" on="1"/>
        <pt x="381" y="700" on="1"/>
        <pt x="375" y="671" on="1"/>
        <pt x="341" y="655" on="0"/>
        <pt x="294" y="646" on="1"/>
        <pt x="236" y="369" on="1"/>
        <pt x="296" y="383" on="1"/>
        <pt x="536" y="646" on="1"/>
        <pt x="516" y="651" on="0"/>
        <pt x="484" y="662" on="0"/>
        <pt x="469" y="671" on="1"/>
      </contour>
    </TTGlyph>
    <TTGlyph name="L" xMin="-20" yMin="0" xMax="517" yMax="700">
      <contour>
        <pt x="128" y="700" on="1"/>
        <pt x="402" y="700" on="1"/>
        <pt x="395" y="671" on="1"/>
        <pt x="370" y="662" on="0"/>
        <pt x="319" y="649" on="0"/>
        <pt x="294" y="646" on="1"/>
        <pt x="169" y="52" on="1"/>
        <pt x="398" y="52" on="1"/>
        <pt x="491" y="213" on="1"/>
        <pt x="517" y="213" on="1"/>
        <pt x="515" y="192" on="0"/>
        <pt x="509" y="137" on="0"/>
        <pt x="500" y="78" on="0"/>
        <pt x="489" y="22" on="0"/>
        <pt x="483" y="0" on="1"/>
        <pt x="-20" y="0" on="1"/>
        <pt x="-15" y="29" on="1"/>
        <pt x="12" y="40" on="0"/>
        <pt x="54" y="50" on="0"/>
        <pt x="73" y="53" on="1"/>
        <pt x="198" y="646" on="1"/>
        <pt x="151" y="655" on="0"/>
        <pt x="121" y="671" on="1"/>
      </contour>
    </TTGlyph>
    <TTGlyph name="M" xMin="-20" yMin="0" xMax="936" yMax="700">
      <contour>
        <pt x="787" y="0" on="1"/>
        <pt x="539" y="0" on="1"/>
        <pt x="544" y="29" on="1"/>
        <pt x="566" y="37" on="0"/>
        <pt x="608" y="48" on="0"/>
        <pt x="631" y="53" on="1"/>
        <pt x="725" y="503" on="1"/>
        <pt x="755" y="620" on="1"/>
        <pt x="747" y="620" on="1"/>
        <pt x="693" y="513" on="1"/>
        <pt x="377" y="0" on="1"/>
        <pt x="351" y="0" on="1"/>
        <pt x="264" y="513" on="1"/>
        <pt x="253" y="630" on="1"/>
        <pt x="244" y="630" on="1"/>
        <pt x="218" y="503" on="1"/>
        <pt x="123" y="53" on="1"/>
        <pt x="141" y="49" on="0"/>
        <pt x="177" y="37" on="0"/>
        <pt x="194" y="29" on="1"/>
        <pt x="188" y="0" on="1"/>
        <pt x="-20" y="0" on="1"/>
        <pt x="-15" y="29" on="1"/>
        <pt x="25" y="46" on="0"/>
        <pt x="72" y="54" on="1"/>
        <pt x="197" y="646" on="1"/>
        <pt x="177" y="650" on="0"/>
        <pt x="137" y="663" on="0"/>
        <pt x="120" y="671" on="1"/>
        <pt x="126" y="700" on="1"/>
        <pt x="334" y="700" on="1"/>
        <pt x="405" y="243" on="1"/>
        <pt x="417" y="140" on="1"/>
        <pt x="418" y="140" on="1"/>
        <pt x="470" y="245" on="1"/>
        <pt x="752" y="700" on="1"/>
        <pt x="936" y="700" on="1"/>
        <pt x="929" y="671" on="1"/>
        <pt x="890" y="654" on="0"/>
        <pt x="848" y="646" on="1"/>
        <pt x="722" y="52" on="1"/>
        <pt x="742" y="48" on="0"/>
        <pt x="778" y="37" on="0"/>
        <pt x="792" y="29" on="1"/>
      </contour>
    </TTGlyph>
    <TTGlyph name="N" xMin="-20" yMin="-12" xMax="801" yMax="700">
      <contour>
        <pt x="588" y="700" on="1"/>
        <pt x="801" y="700" on="1"/>
        <pt x="795" y="671" on="1"/>
        <pt x="775" y="657" on="0"/>
        <pt x="727" y="637" on="0"/>
        <pt x="705" y="631" on="1"/>
        <pt x="568" y="-12" on="1"/>
        <pt x="514" y="-12" on="1"/>
        <pt x="263" y="539" on="1"/>
        <pt x="242" y="617" on="1"/>
        <pt x="239" y="617" on="1"/>
        <pt x="229" y="539" on="1"/>
        <pt x="129" y="64" on="1"/>
        <pt x="147" y="59" on="0"/>
        <pt x="183" y="41" on="0"/>
        <pt x="198" y="29" on="1"/>
        <pt x="192" y="0" on="1"/>
        <pt x="-20" y="0" on="1"/>
        <pt x="-15" y="29" on="1"/>
        <pt x="28" y="55" on="0"/>
        <pt x="75" y="64" on="1"/>
        <pt x="197" y="637" on="1"/>
        <pt x="178" y="645" on="0"/>
        <pt x="143" y="663" on="0"/>
        <pt x="129" y="672" on="1"/>
        <pt x="134" y="700" on="1"/>
        <pt x="300" y="700" on="1"/>
        <pt x="515" y="225" on="1"/>
        <pt x="545" y="139" on="1"/>
        <pt x="549" y="139" on="1"/>
        <pt x="565" y="225" on="1"/>
        <pt x="651" y="631" on="1"/>
        <pt x="611" y="648" on="0"/>
        <pt x="582" y="671" on="1"/>
      </contour>
    </TTGlyph>
    <TTGlyph name="Ntilde" xMin="-20" yMin="-12" xMax="801" yMax="862">
      <component glyphName="N" x="0" y="0" flags="0x204"/>
      <component glyphName="uniF40D" x="-70" y="0" flags="0x4"/>
    </TTGlyph>
    <TTGlyph name="O" xMin="66" yMin="-12" xMax="724" yMax="712">
      <contour>
        <pt x="66" y="278" on="1"/>
        <pt x="66" y="369" on="0"/>
        <pt x="121" y="527" on="0"/>
        <pt x="225" y="644" on="0"/>
        <pt x="371" y="712" on="0"/>
        <pt x="463" y="712" on="1"/>
        <pt x="536" y="712" on="0"/>
        <pt x="636" y="664" on="0"/>
        <pt x="697" y="586" on="0"/>
        <pt x="724" y="485" on="0"/>
        <pt x="724" y="431" on="1"/>
        <pt x="724" y="351" on="0"/>
        <pt x="679" y="192" on="0"/>
        <pt x="585" y="66" on="0"/>
        <pt x="442" y="-12" on="0"/>
        <pt x="344" y="-12" on="1"/>
        <pt x="272" y="-12" on="0"/>
        <pt x="167" y="35" on="0"/>
        <pt x="99" y="114" on="0"/>
        <pt x="66" y="219" on="0"/>
      </contour>
      <contour>
        <pt x="173" y="277" on="1"/>
        <pt x="173" y="222" on="0"/>
        <pt x="202" y="134" on="0"/>
        <pt x="253" y="72" on="0"/>
        <pt x="322" y="39" on="0"/>
        <pt x="363" y="40" on="1"/>
        <pt x="436" y="39" on="0"/>
        <pt x="533" y="112" on="0"/>
        <pt x="592" y="227" on="0"/>
        <pt x="617" y="366" on="0"/>
        <pt x="617" y="432" on="1"/>
        <pt x="617" y="483" on="0"/>
        <pt x="594" y="567" on="0"/>
        <pt x="548" y="627" on="0"/>
        <pt x="481" y="660" on="0"/>
        <pt x="437" y="660" on="1"/>
        <pt x="368" y="660" on="0"/>
        <pt x="268" y="588" on="0"/>
        <pt x="203" y="476" on="0"/>
        <pt x="173" y="340" on="0"/>
      </contour>
    </TTGlyph>
    <TTGlyph name="OE" xMin="66" yMin="-12" xMax="975" yMax="712">
      <contour>
        <pt x="437" y="0" on="1"/>
        <pt x="410" y="-5" on="0"/>
        <pt x="366" y="-12" on="0"/>
        <pt x="339" y="-12" on="1"/>
        <pt x="201" y="-12" on="0"/>
        <pt x="66" y="125" on="0"/>
        <pt x="66" y="256" on="1"/>
        <pt x="66" y="336" on="0"/>
        <pt x="111" y="499" on="0"/>
        <pt x="208" y="630" on="0"/>
        <pt x="359" y="712" on="0"/>
        <pt x="465" y="712" on="1"/>
        <pt x="488" y="712" on="0"/>
        <pt x="556" y="706" on="0"/>
        <pt x="584" y="700" on="1"/>
        <pt x="975" y="700" on="1"/>
        <pt x="966" y="660" on="0"/>
        <pt x="944" y="579" on="0"/>
        <pt x="930" y="538" on="1"/>
        <pt x="904" y="538" on="1"/>
        <pt x="887" y="648" on="1"/>
        <pt x="668" y="648" on="1"/>
        <pt x="613" y="383" on="1"/>
        <pt x="775" y="383" on="1"/>
        <pt x="830" y="457" on="1"/>
        <pt x="855" y="457" on="1"/>
        <pt x="847" y="407" on="0"/>
        <pt x="826" y="306" on="0"/>
        <pt x="812" y="255" on="1"/>
        <pt x="787" y="255" on="1"/>
        <pt x="764" y="331" on="1"/>
        <pt x="601" y="331" on="1"/>
        <pt x="542" y="52" on="1"/>
        <pt x="772" y="52" on="1"/>
        <pt x="847" y="172" on="1"/>
        <pt x="872" y="172" on="1"/>
        <pt x="870" y="130" on="0"/>
        <pt x="858" y="44" on="0"/>
        <pt x="847" y="0" on="1"/>
      </contour>
      <contour>
        <pt x="339" y="40" on="1"/>
        <pt x="365" y="39" on="0"/>
        <pt x="421" y="48" on="0"/>
        <pt x="448" y="59" on="1"/>
        <pt x="570" y="636" on="1"/>
        <pt x="547" y="647" on="0"/>
        <pt x="487" y="660" on="0"/>
        <pt x="453" y="660" on="1"/>
        <pt x="388" y="660" on="0"/>
        <pt x="284" y="596" on="0"/>
        <pt x="212" y="485" on="0"/>
        <pt x="173" y="335" on="0"/>
        <pt x="173" y="249" on="1"/>
        <pt x="173" y="213" on="0"/>
        <pt x="187" y="138" on="0"/>
        <pt x="223" y="77" on="0"/>
        <pt x="288" y="39" on="0"/>
      </contour>
    </TTGlyph>
    <TTGlyph name="Oacute" xMin="66" yMin="-12" xMax="724" yMax="894">
      <component glyphName="O" x="0" y="0" flags="0x204"/>
      <component glyphName="uniF6C9" x="46" y="0" flags="0x4"/>
    </TTGlyph>
    <TTGlyph name="Ocircumflex" xMin="66" yMin="-12" xMax="724" yMax="887">
      <component glyphName="O" x="0" y="0" flags="0x204"/>
      <component glyphName="uniF408" x="45" y="0" flags="0x4"/>
    </TTGlyph>
    <TTGlyph name="Odieresis" xMin="66" yMin="-12" xMax="724" yMax="837">
      <component glyphName="O" x="0" y="0" flags="0x204"/>
      <component glyphName="uniF6CB" x="80" y="0" flags="0x4"/>
    </TTGlyph>
    <TTGlyph name="Ograve" xMin="66" yMin="-12" xMax="724" yMax="894">
      <component glyphName="O" x="0" y="0" flags="0x204"/>
      <component glyphName="uniF6CE" x="109" y="0" flags="0x4"/>
    </TTGlyph>
    <TTGlyph name="Oslash" xMin="66" yMin="-13" xMax="724" yMax="713">
      <contour>
        <pt x="66" y="278" on="1"/>
        <pt x="66" y="369" on="0"/>
        <pt x="121" y="527" on="0"/>
        <pt x="225" y="644" on="0"/>
        <pt x="371" y="712" on="0"/>
        <pt x="463" y="712" on="1"/>
        <pt x="515" y="712" on="0"/>
        <pt x="594" y="688" on="0"/>
        <pt x="623" y="667" on="1"/>
        <pt x="662" y="713" on="1"/>
        <pt x="702" y="681" on="1"/>
        <pt x="661" y="632" on="1"/>
        <pt x="695" y="593" on="0"/>
        <pt x="724" y="487" on="0"/>
        <pt x="724" y="431" on="1"/>
        <pt x="724" y="351" on="0"/>
        <pt x="679" y="192" on="0"/>
        <pt x="585" y="66" on="0"/>
        <pt x="442" y="-12" on="0"/>
        <pt x="344" y="-12" on="1"/>
        <pt x="287" y="-12" on="0"/>
        <pt x="199" y="17" on="0"/>
        <pt x="166" y="43" on="1"/>
        <pt x="119" y="-13" on="1"/>
        <pt x="80" y="20" on="1"/>
        <pt x="129" y="78" on="1"/>
        <pt x="97" y="118" on="0"/>
        <pt x="66" y="221" on="0"/>
      </contour>
      <contour>
        <pt x="363" y="40" on="1"/>
        <pt x="411" y="39" on="0"/>
        <pt x="486" y="72" on="0"/>
        <pt x="542" y="129" on="0"/>
        <pt x="581" y="205" on="0"/>
        <pt x="605" y="291" on="0"/>
        <pt x="616" y="382" on="0"/>
        <pt x="617" y="426" on="1"/>
        <pt x="616" y="496" on="0"/>
        <pt x="593" y="551" on="1"/>
        <pt x="223" y="110" on="1"/>
        <pt x="275" y="39" on="0"/>
      </contour>
      <contour>
        <pt x="437" y="660" on="1"/>
        <pt x="368" y="660" on="0"/>
        <pt x="269" y="589" on="0"/>
        <pt x="205" y="480" on="0"/>
        <pt x="174" y="346" on="0"/>
        <pt x="173" y="283" on="1"/>
        <pt x="173" y="248" on="0"/>
        <pt x="185" y="185" on="0"/>
        <pt x="196" y="159" on="1"/>
        <pt x="567" y="600" on="1"/>
        <pt x="544" y="629" on="0"/>
        <pt x="479" y="660" on="0"/>
      </contour>
    </TTGlyph>
    <TTGlyph name="Otilde" xMin="66" yMin="-12" xMax="724" yMax="862">
      <component glyphName="O" x="0" y="0" flags="0x204"/>
      <component glyphName="uniF40D" x="-68" y="0" flags="0x4"/>
    </TTGlyph>
    <TTGlyph name="P" xMin="-20" yMin="0" xMax="614" yMax="708">
      <contour>
        <pt x="169" y="53" on="1"/>
        <pt x="195" y="50" on="0"/>
        <pt x="240" y="37" on="0"/>
        <pt x="259" y="29" on="1"/>
        <pt x="254" y="0" on="1"/>
        <pt x="-20" y="0" on="1"/>
        <pt x="-15" y="29" on="1"/>
        <pt x="8" y="39" on="0"/>
        <pt x="51" y="49" on="0"/>
        <pt x="73" y="53" on="1"/>
        <pt x="198" y="646" on="1"/>
        <pt x="176" y="650" on="0"/>
        <pt x="138" y="663" on="0"/>
        <pt x="121" y="671" on="1"/>
        <pt x="128" y="700" on="1"/>
        <pt x="218" y="700" on="1"/>
        <pt x="258" y="700" on="0"/>
        <pt x="353" y="708" on="0"/>
        <pt x="396" y="708" on="1"/>
        <pt x="444" y="708" on="0"/>
        <pt x="525" y="689" on="0"/>
        <pt x="582" y="648" on="0"/>
        <pt x="614" y="587" on="0"/>
        <pt x="614" y="545" on="1"/>
        <pt x="614" y="486" on="0"/>
        <pt x="571" y="386" on="0"/>
        <pt x="490" y="312" on="0"/>
        <pt x="376" y="270" on="0"/>
        <pt x="306" y="270" on="1"/>
        <pt x="301" y="270" on="0"/>
        <pt x="278" y="270" on="0"/>
        <pt x="251" y="271" on="0"/>
        <pt x="224" y="273" on="0"/>
        <pt x="215" y="274" on="1"/>
      </contour>
      <contour>
        <pt x="370" y="656" on="1"/>
        <pt x="346" y="656" on="0"/>
        <pt x="309" y="653" on="0"/>
        <pt x="295" y="651" on="1"/>
        <pt x="227" y="327" on="1"/>
        <pt x="232" y="326" on="0"/>
        <pt x="251" y="324" on="0"/>
        <pt x="272" y="323" on="0"/>
        <pt x="291" y="322" on="0"/>
        <pt x="297" y="322" on="1"/>
        <pt x="401" y="322" on="0"/>
        <pt x="507" y="441" on="0"/>
        <pt x="507" y="544" on="1"/>
        <pt x="507" y="569" on="0"/>
        <pt x="496" y="610" on="0"/>
        <pt x="465" y="640" on="0"/>
        <pt x="412" y="656" on="0"/>
      </contour>
    </TTGlyph>
    <TTGlyph name="Q" xMin="66" yMin="-202" xMax="742" yMax="712">
      <contour>
        <pt x="742" y="-115" on="1"/>
        <pt x="694" y="-151" on="0"/>
        <pt x="600" y="-202" on="0"/>
        <pt x="551" y="-201" on="1"/>
        <pt x="510" y="-201" on="0"/>
        <pt x="427" y="-171" on="0"/>
        <pt x="334" y="-129" on="0"/>
        <pt x="228" y="-83" on="0"/>
        <pt x="165" y="-66" on="1"/>
        <pt x="200" y="-46" on="1"/>
        <pt x="247" y="-40" on="0"/>
        <pt x="334" y="-52" on="0"/>
        <pt x="417" y="-76" on="0"/>
        <pt x="501" y="-103" on="0"/>
        <pt x="589" y="-120" on="0"/>
        <pt x="685" y="-118" on="0"/>
        <pt x="740" y="-101" on="1"/>
      </contour>
      <contour>
        <pt x="66" y="278" on="1"/>
        <pt x="66" y="369" on="0"/>
        <pt x="121" y="527" on="0"/>
        <pt x="225" y="644" on="0"/>
        <pt x="371" y="712" on="0"/>
        <pt x="463" y="712" on="1"/>
        <pt x="536" y="712" on="0"/>
        <pt x="636" y="664" on="0"/>
        <pt x="697" y="586" on="0"/>
        <pt x="724" y="485" on="0"/>
        <pt x="724" y="431" on="1"/>
        <pt x="724" y="351" on="0"/>
        <pt x="679" y="192" on="0"/>
        <pt x="585" y="66" on="0"/>
        <pt x="442" y="-12" on="0"/>
        <pt x="344" y="-12" on="1"/>
        <pt x="272" y="-12" on="0"/>
        <pt x="167" y="35" on="0"/>
        <pt x="99" y="114" on="0"/>
        <pt x="66" y="219" on="0"/>
      </contour>
      <contour>
        <pt x="173" y="277" on="1"/>
        <pt x="173" y="222" on="0"/>
        <pt x="202" y="134" on="0"/>
        <pt x="253" y="72" on="0"/>
        <pt x="322" y="39" on="0"/>
        <pt x="363" y="40" on="1"/>
        <pt x="436" y="39" on="0"/>
        <pt x="533" y="112" on="0"/>
        <pt x="592" y="227" on="0"/>
        <pt x="617" y="366" on="0"/>
        <pt x="617" y="432" on="1"/>
        <pt x="617" y="483" on="0"/>
        <pt x="594" y="567" on="0"/>
        <pt x="548" y="627" on="0"/>
        <pt x="481" y="660" on="0"/>
        <pt x="437" y="660" on="1"/>
        <pt x="368" y="660" on="0"/>
        <pt x="268" y="588" on="0"/>
        <pt x="203" y="476" on="0"/>
        <pt x="173" y="340" on="0"/>
      </contour>
    </TTGlyph>
    <TTGlyph name="R" xMin="-20" yMin="0" xMax="593" yMax="708">
      <contour>
        <pt x="169" y="53" on="1"/>
        <pt x="213" y="45" on="0"/>
        <pt x="248" y="29" on="1"/>
        <pt x="243" y="0" on="1"/>
        <pt x="-20" y="0" on="1"/>
        <pt x="-15" y="29" on="1"/>
        <pt x="9" y="39" on="0"/>
        <pt x="52" y="49" on="0"/>
        <pt x="73" y="53" on="1"/>
        <pt x="198" y="646" on="1"/>
        <pt x="174" y="652" on="0"/>
        <pt x="135" y="664" on="0"/>
        <pt x="121" y="671" on="1"/>
        <pt x="128" y="700" on="1"/>
        <pt x="216" y="700" on="1"/>
        <pt x="256" y="700" on="0"/>
        <pt x="353" y="708" on="0"/>
        <pt x="397" y="708" on="1"/>
        <pt x="496" y="708" on="0"/>
        <pt x="593" y="623" on="0"/>
        <pt x="593" y="545" on="1"/>
        <pt x="593" y="506" on="0"/>
        <pt x="566" y="434" on="0"/>
        <pt x="517" y="376" on="0"/>
        <pt x="446" y="333" on="0"/>
        <pt x="401" y="322" on="1"/>
        <pt x="430" y="254" on="0"/>
        <pt x="499" y="120" on="0"/>
        <pt x="536" y="54" on="1"/>
        <pt x="583" y="25" on="1"/>
        <pt x="578" y="0" on="1"/>
        <pt x="464" y="0" on="1"/>
        <pt x="430" y="28" on="1"/>
        <pt x="409" y="63" on="0"/>
        <pt x="376" y="131" on="0"/>
        <pt x="349" y="199" on="0"/>
        <pt x="328" y="271" on="0"/>
        <pt x="319" y="310" on="1"/>
        <pt x="223" y="310" on="1"/>
      </contour>
      <contour>
        <pt x="364" y="656" on="1"/>
        <pt x="341" y="656" on="0"/>
        <pt x="308" y="653" on="0"/>
        <pt x="294" y="651" on="1"/>
        <pt x="232" y="353" on="1"/>
        <pt x="303" y="353" on="1"/>
        <pt x="356" y="352" on="0"/>
        <pt x="429" y="386" on="0"/>
        <pt x="474" y="443" on="0"/>
        <pt x="495" y="515" on="0"/>
        <pt x="495" y="553" on="1"/>
        <pt x="496" y="607" on="0"/>
        <pt x="433" y="656" on="0"/>
      </contour>
    </TTGlyph>
    <TTGlyph name="S" xMin="22" yMin="-12" xMax="563" yMax="712">
      <contour>
        <pt x="121" y="69" on="1"/>
        <pt x="132" y="60" on="0"/>
        <pt x="184" y="39" on="0"/>
        <pt x="213" y="40" on="1"/>
        <pt x="246" y="39" on="0"/>
        <pt x="308" y="51" on="0"/>
        <pt x="358" y="81" on="0"/>
        <pt x="388" y="130" on="0"/>
        <pt x="388" y="167" on="1"/>
        <pt x="388" y="208" on="0"/>
        <pt x="349" y="264" on="0"/>
        <pt x="291" y="307" on="0"/>
        <pt x="224" y="346" on="0"/>
        <pt x="166" y="394" on="0"/>
        <pt x="127" y="459" on="0"/>
        <pt x="127" y="507" on="1"/>
        <pt x="127" y="553" on="0"/>
        <pt x="160" y="628" on="0"/>
        <pt x="225" y="682" on="0"/>
        <pt x="319" y="712" on="0"/>
        <pt x="379" y="712" on="1"/>
        <pt x="440" y="712" on="0"/>
        <pt x="536" y="693" on="0"/>
        <pt x="563" y="679" on="1"/>
        <pt x="559" y="662" on="0"/>
        <pt x="544" y="617" on="0"/>
        <pt x="528" y="569" on="0"/>
        <pt x="510" y="524" on="0"/>
        <pt x="503" y="507" on="1"/>
        <pt x="477" y="507" on="1"/>
        <pt x="465" y="644" on="1"/>
        <pt x="448" y="652" on="0"/>
        <pt x="395" y="660" on="0"/>
        <pt x="364" y="660" on="1"/>
        <pt x="334" y="660" on="0"/>
        <pt x="281" y="646" on="0"/>
        <pt x="242" y="617" on="0"/>
        <pt x="220" y="573" on="0"/>
        <pt x="220" y="543" on="1"/>
        <pt x="220" y="503" on="0"/>
        <pt x="259" y="450" on="0"/>
        <pt x="317" y="408" on="0"/>
        <pt x="384" y="369" on="0"/>
        <pt x="442" y="319" on="0"/>
        <pt x="481" y="248" on="0"/>
        <pt x="481" y="196" on="1"/>
        <pt x="481" y="149" on="0"/>
        <pt x="444" y="73" on="0"/>
        <pt x="375" y="18" on="0"/>
        <pt x="274" y="-12" on="0"/>
        <pt x="210" y="-12" on="1"/>
        <pt x="178" y="-12" on="0"/>
        <pt x="119" y="-4" on="0"/>
        <pt x="70" y="10" on="0"/>
        <pt x="32" y="27" on="0"/>
        <pt x="22" y="35" on="1"/>
        <pt x="26" y="53" on="0"/>
        <pt x="41" y="102" on="0"/>
        <pt x="59" y="152" on="0"/>
        <pt x="77" y="199" on="0"/>
        <pt x="85" y="216" on="1"/>
        <pt x="111" y="216" on="1"/>
      </contour>
    </TTGlyph>
    <TTGlyph name="T" xMin="88" yMin="0" xMax="698" yMax="700">
      <contour>
        <pt x="401" y="0" on="1"/>
        <pt x="120" y="0" on="1"/>
        <pt x="125" y="29" on="1"/>
        <pt x="149" y="38" on="0"/>
        <pt x="196" y="49" on="0"/>
        <pt x="224" y="53" on="1"/>
        <pt x="350" y="648" on="1"/>
        <pt x="197" y="648" on="1"/>
        <pt x="114" y="505" on="1"/>
        <pt x="88" y="505" on="1"/>
        <pt x="89" y="525" on="0"/>
        <pt x="96" y="576" on="0"/>
        <pt x="104" y="629" on="0"/>
        <pt x="113" y="680" on="0"/>
        <pt x="118" y="700" on="1"/>
        <pt x="698" y="700" on="1"/>
        <pt x="694" y="680" on="0"/>
        <pt x="682" y="630" on="0"/>
        <pt x="668" y="577" on="0"/>
        <pt x="653" y="526" on="0"/>
        <pt x="646" y="505" on="1"/>
        <pt x="620" y="505" on="1"/>
        <pt x="599" y="648" on="1"/>
        <pt x="446" y="648" on="1"/>
        <pt x="320" y="53" on="1"/>
        <pt x="344" y="48" on="0"/>
        <pt x="387" y="38" on="0"/>
        <pt x="406" y="29" on="1"/>
      </contour>
    </TTGlyph>
    <TTGlyph name="Thorn" xMin="-20" yMin="0" xMax="594" yMax="700">
      <contour>
        <pt x="169" y="53" on="1"/>
        <pt x="195" y="49" on="0"/>
        <pt x="240" y="37" on="0"/>
        <pt x="259" y="28" on="1"/>
        <pt x="254" y="0" on="1"/>
        <pt x="-20" y="0" on="1"/>
        <pt x="-15" y="28" on="1"/>
        <pt x="8" y="39" on="0"/>
        <pt x="51" y="49" on="0"/>
        <pt x="73" y="53" on="1"/>
        <pt x="198" y="647" on="1"/>
        <pt x="178" y="651" on="0"/>
        <pt x="140" y="663" on="0"/>
        <pt x="121" y="672" on="1"/>
        <pt x="128" y="700" on="1"/>
        <pt x="386" y="700" on="1"/>
        <pt x="380" y="672" on="1"/>
        <pt x="360" y="663" on="0"/>
        <pt x="314" y="651" on="0"/>
        <pt x="294" y="647" on="1"/>
        <pt x="284" y="598" on="1"/>
        <pt x="307" y="600" on="0"/>
        <pt x="353" y="602" on="0"/>
        <pt x="374" y="602" on="1"/>
        <pt x="479" y="602" on="0"/>
        <pt x="594" y="520" on="0"/>
        <pt x="594" y="434" on="1"/>
        <pt x="594" y="389" on="0"/>
        <pt x="556" y="297" on="0"/>
        <pt x="478" y="222" on="0"/>
        <pt x="356" y="175" on="0"/>
        <pt x="272" y="175" on="1"/>
        <pt x="267" y="175" on="0"/>
        <pt x="246" y="175" on="0"/>
        <pt x="222" y="176" on="0"/>
        <pt x="200" y="178" on="0"/>
        <pt x="195" y="179" on="1"/>
      </contour>
      <contour>
        <pt x="343" y="550" on="1"/>
        <pt x="318" y="550" on="0"/>
        <pt x="287" y="548" on="0"/>
        <pt x="273" y="544" on="1"/>
        <pt x="206" y="232" on="1"/>
        <pt x="211" y="230" on="0"/>
        <pt x="230" y="229" on="0"/>
        <pt x="251" y="227" on="0"/>
        <pt x="270" y="227" on="0"/>
        <pt x="276" y="227" on="1"/>
        <pt x="325" y="227" on="0"/>
        <pt x="404" y="255" on="0"/>
        <pt x="458" y="307" on="0"/>
        <pt x="487" y="380" on="0"/>
        <pt x="487" y="424" on="1"/>
        <pt x="487" y="490" on="0"/>
        <pt x="422" y="550" on="0"/>
      </contour>
    </TTGlyph>
    <TTGlyph name="U" xMin="85" yMin="-9" xMax="765" yMax="700">
      <contour>
        <pt x="112" y="700" on="1"/>
        <pt x="366" y="700" on="1"/>
        <pt x="360" y="671" on="1"/>
        <pt x="321" y="654" on="0"/>
        <pt x="279" y="646" on="1"/>
        <pt x="194" y="249" on="1"/>
        <pt x="183" y="196" on="0"/>
        <pt x="193" y="121" on="0"/>
        <pt x="231" y="73" on="0"/>
        <pt x="293" y="51" on="0"/>
        <pt x="334" y="51" on="1"/>
        <pt x="415" y="51" on="0"/>
        <pt x="512" y="141" on="0"/>
        <pt x="532" y="238" on="1"/>
        <pt x="617" y="637" on="1"/>
        <pt x="573" y="652" on="0"/>
        <pt x="545" y="671" on="1"/>
        <pt x="551" y="700" on="1"/>
        <pt x="765" y="700" on="1"/>
        <pt x="758" y="671" on="1"/>
        <pt x="741" y="660" on="0"/>
        <pt x="695" y="642" on="0"/>
        <pt x="673" y="637" on="1"/>
        <pt x="588" y="236" on="1"/>
        <pt x="560" y="105" on="0"/>
        <pt x="419" y="-9" on="0"/>
        <pt x="308" y="-9" on="1"/>
        <pt x="242" y="-9" on="0"/>
        <pt x="151" y="29" on="0"/>
        <pt x="99" y="96" on="0"/>
        <pt x="85" y="189" on="0"/>
        <pt x="97" y="243" on="1"/>
        <pt x="183" y="646" on="1"/>
        <pt x="163" y="650" on="0"/>
        <pt x="121" y="663" on="0"/>
        <pt x="106" y="671" on="1"/>
      </contour>
    </TTGlyph>
    <TTGlyph name="Uacute" xMin="85" yMin="-9" xMax="765" yMax="894">
      <component glyphName="U" x="0" y="0" flags="0x204"/>
      <component glyphName="uniF6C9" x="77" y="0" flags="0x4"/>
    </TTGlyph>
    <TTGlyph name="Ucircumflex" xMin="85" yMin="-9" xMax="765" yMax="887">
      <component glyphName="U" x="0" y="0" flags="0x204"/>
      <component glyphName="uniF408" x="31" y="0" flags="0x4"/>
    </TTGlyph>
    <TTGlyph name="Udieresis" xMin="85" yMin="-9" xMax="765" yMax="837">
      <component glyphName="U" x="0" y="0" flags="0x204"/>
      <component glyphName="uniF6CB" x="83" y="0" flags="0x4"/>
    </TTGlyph>
    <TTGlyph name="Ugrave" xMin="85" yMin="-9" xMax="765" yMax="894">
      <component glyphName="U" x="0" y="0" flags="0x204"/>
      <component glyphName="uniF6CE" x="77" y="0" flags="0x4"/>
    </TTGlyph>
    <TTGlyph name="V" xMin="95" yMin="-12" xMax="782" yMax="700">
      <contour>
        <pt x="634" y="646" on="1"/>
        <pt x="611" y="651" on="0"/>
        <pt x="571" y="663" on="0"/>
        <pt x="553" y="671" on="1"/>
        <pt x="560" y="700" on="1"/>
        <pt x="782" y="700" on="1"/>
        <pt x="776" y="671" on="1"/>
        <pt x="759" y="663" on="0"/>
        <pt x="722" y="651" on="0"/>
        <pt x="699" y="646" on="1"/>
        <pt x="337" y="0" on="1"/>
        <pt x="282" y="-12" on="1"/>
        <pt x="166" y="646" on="1"/>
        <pt x="143" y="651" on="0"/>
        <pt x="108" y="664" on="0"/>
        <pt x="95" y="671" on="1"/>
        <pt x="101" y="700" on="1"/>
        <pt x="364" y="700" on="1"/>
        <pt x="358" y="671" on="1"/>
        <pt x="340" y="663" on="0"/>
        <pt x="294" y="651" on="0"/>
        <pt x="271" y="646" on="1"/>
        <pt x="344" y="189" on="1"/>
        <pt x="349" y="109" on="1"/>
        <pt x="351" y="109" on="1"/>
        <pt x="388" y="191" on="1"/>
      </contour>
    </TTGlyph>
    <TTGlyph name="W" xMin="95" yMin="-12" xMax="1033" yMax="700">
      <contour>
        <pt x="887" y="646" on="1"/>
        <pt x="867" y="650" on="0"/>
        <pt x="824" y="662" on="0"/>
        <pt x="807" y="671" on="1"/>
        <pt x="813" y="700" on="1"/>
        <pt x="1033" y="700" on="1"/>
        <pt x="1027" y="671" on="1"/>
        <pt x="1008" y="661" on="0"/>
        <pt x="969" y="651" on="0"/>
        <pt x="950" y="646" on="1"/>
        <pt x="646" y="0" on="1"/>
        <pt x="582" y="-12" on="1"/>
        <pt x="536" y="532" on="1"/>
        <pt x="265" y="0" on="1"/>
        <pt x="203" y="-12" on="1"/>
        <pt x="166" y="646" on="1"/>
        <pt x="127" y="655" on="0"/>
        <pt x="95" y="671" on="1"/>
        <pt x="101" y="700" on="1"/>
        <pt x="359" y="700" on="1"/>
        <pt x="353" y="671" on="1"/>
        <pt x="333" y="663" on="0"/>
        <pt x="290" y="651" on="0"/>
        <pt x="266" y="646" on="1"/>
        <pt x="279" y="241" on="1"/>
        <pt x="276" y="111" on="1"/>
        <pt x="278" y="111" on="1"/>
        <pt x="339" y="243" on="1"/>
        <pt x="572" y="700" on="1"/>
        <pt x="607" y="700" on="1"/>
        <pt x="649" y="243" on="1"/>
        <pt x="654" y="113" on="1"/>
        <pt x="656" y="113" on="1"/>
        <pt x="709" y="245" on="1"/>
      </contour>
    </TTGlyph>
    <TTGlyph name="X" xMin="-40" yMin="0" xMax="729" yMax="700">
      <contour>
        <pt x="499" y="700" on="1"/>
        <pt x="729" y="700" on="1"/>
        <pt x="722" y="671" on="1"/>
        <pt x="704" y="663" on="0"/>
        <pt x="663" y="651" on="0"/>
        <pt x="642" y="646" on="1"/>
        <pt x="404" y="375" on="1"/>
        <pt x="541" y="53" on="1"/>
        <pt x="587" y="45" on="0"/>
        <pt x="616" y="29" on="1"/>
        <pt x="611" y="0" on="1"/>
        <pt x="345" y="0" on="1"/>
        <pt x="350" y="29" on="1"/>
        <pt x="388" y="47" on="0"/>
        <pt x="431" y="53" on="1"/>
        <pt x="330" y="304" on="1"/>
        <pt x="120" y="52" on="1"/>
        <pt x="140" y="49" on="0"/>
        <pt x="179" y="40" on="0"/>
        <pt x="196" y="29" on="1"/>
        <pt x="190" y="0" on="1"/>
        <pt x="-40" y="0" on="1"/>
        <pt x="-34" y="29" on="1"/>
        <pt x="-14" y="39" on="0"/>
        <pt x="26" y="49" on="0"/>
        <pt x="46" y="53" on="1"/>
        <pt x="308" y="352" on="1"/>
        <pt x="184" y="646" on="1"/>
        <pt x="164" y="651" on="0"/>
        <pt x="128" y="662" on="0"/>
        <pt x="110" y="671" on="1"/>
        <pt x="116" y="700" on="1"/>
        <pt x="382" y="700" on="1"/>
        <pt x="376" y="671" on="1"/>
        <pt x="345" y="657" on="0"/>
        <pt x="294" y="646" on="1"/>
        <pt x="383" y="420" on="1"/>
        <pt x="570" y="646" on="1"/>
        <pt x="551" y="651" on="0"/>
        <pt x="513" y="661" on="0"/>
        <pt x="493" y="671" on="1"/>
      </contour>
    </TTGlyph>
    <TTGlyph name="Y" xMin="92" yMin="0" xMax="743" yMax="700">
      <contour>
        <pt x="520" y="700" on="1"/>
        <pt x="743" y="700" on="1"/>
        <pt x="736" y="671" on="1"/>
        <pt x="716" y="661" on="0"/>
        <pt x="676" y="650" on="0"/>
        <pt x="656" y="646" on="1"/>
        <pt x="393" y="298" on="1"/>
        <pt x="341" y="53" on="1"/>
        <pt x="378" y="48" on="0"/>
        <pt x="411" y="29" on="1"/>
        <pt x="406" y="0" on="1"/>
        <pt x="152" y="0" on="1"/>
        <pt x="157" y="29" on="1"/>
        <pt x="197" y="47" on="0"/>
        <pt x="245" y="53" on="1"/>
        <pt x="297" y="297" on="1"/>
        <pt x="168" y="646" on="1"/>
        <pt x="146" y="650" on="0"/>
        <pt x="109" y="663" on="0"/>
        <pt x="92" y="671" on="1"/>
        <pt x="99" y="700" on="1"/>
        <pt x="363" y="700" on="1"/>
        <pt x="357" y="671" on="1"/>
        <pt x="341" y="665" on="0"/>
        <pt x="301" y="651" on="0"/>
        <pt x="275" y="646" on="1"/>
        <pt x="376" y="352" on="1"/>
        <pt x="588" y="646" on="1"/>
        <pt x="567" y="651" on="0"/>
        <pt x="530" y="663" on="0"/>
        <pt x="514" y="671" on="1"/>
      </contour>
    </TTGlyph>
    <TTGlyph name="Yacute" xMin="92" yMin="0" xMax="743" yMax="894">
      <component glyphName="Y" x="0" y="0" flags="0x204"/>
      <component glyphName="uniF6C9" x="34" y="0" flags="0x4"/>
    </TTGlyph>
    <TTGlyph name="Z" xMin="5" yMin="0" xMax="650" yMax="700">
      <contour>
        <pt x="529" y="192" on="1"/>
        <pt x="555" y="192" on="1"/>
        <pt x="553" y="171" on="0"/>
        <pt x="547" y="121" on="0"/>
        <pt x="539" y="70" on="0"/>
        <pt x="530" y="20" on="0"/>
        <pt x="525" y="0" on="1"/>
        <pt x="5" y="0" on="1"/>
        <pt x="5" y="51" on="1"/>
        <pt x="531" y="648" on="1"/>
        <pt x="240" y="648" on="1"/>
        <pt x="149" y="508" on="1"/>
        <pt x="123" y="508" on="1"/>
        <pt x="124" y="529" on="0"/>
        <pt x="131" y="579" on="0"/>
        <pt x="139" y="631" on="0"/>
        <pt x="148" y="680" on="0"/>
        <pt x="153" y="700" on="1"/>
        <pt x="650" y="700" on="1"/>
        <pt x="650" y="648" on="1"/>
        <pt x="124" y="52" on="1"/>
        <pt x="438" y="52" on="1"/>
      </contour>
    </TTGlyph>
    <TTGlyph name="a" xMin="43" yMin="-12" xMax="497" yMax="512">
      <contour>
        <pt x="189" y="50" on="1"/>
        <pt x="216" y="50" on="0"/>
        <pt x="270" y="101" on="0"/>
        <pt x="318" y="173" on="0"/>
        <pt x="356" y="251" on="0"/>
        <pt x="367" y="277" on="1"/>
        <pt x="399" y="448" on="1"/>
        <pt x="385" y="458" on="0"/>
        <pt x="359" y="466" on="0"/>
        <pt x="336" y="466" on="1"/>
        <pt x="290" y="466" on="0"/>
        <pt x="215" y="409" on="0"/>
        <pt x="162" y="319" on="0"/>
        <pt x="133" y="209" on="0"/>
        <pt x="133" y="156" on="1"/>
        <pt x="133" y="105" on="0"/>
        <pt x="158" y="50" on="0"/>
      </contour>
      <contour>
        <pt x="347" y="196" on="1"/>
        <pt x="334" y="160" on="0"/>
        <pt x="295" y="86" on="0"/>
        <pt x="244" y="26" on="0"/>
        <pt x="182" y="-12" on="0"/>
        <pt x="147" y="-12" on="1"/>
        <pt x="43" y="-12" on="0"/>
        <pt x="43" y="139" on="1"/>
        <pt x="43" y="209" on="0"/>
        <pt x="83" y="342" on="0"/>
        <pt x="159" y="446" on="0"/>
        <pt x="268" y="509" on="0"/>
        <pt x="337" y="509" on="1"/>
        <pt x="362" y="509" on="0"/>
        <pt x="392" y="500" on="0"/>
        <pt x="413" y="491" on="1"/>
        <pt x="453" y="512" on="0"/>
        <pt x="497" y="512" on="1"/>
        <pt x="407" y="55" on="1"/>
        <pt x="480" y="55" on="1"/>
        <pt x="480" y="30" on="1"/>
        <pt x="460" y="14" on="0"/>
        <pt x="404" y="-6" on="0"/>
        <pt x="377" y="-6" on="1"/>
        <pt x="348" y="-6" on="0"/>
        <pt x="323" y="19" on="0"/>
        <pt x="323" y="33" on="1"/>
        <pt x="323" y="51" on="0"/>
        <pt x="337" y="133" on="0"/>
        <pt x="351" y="196" on="1"/>
      </contour>
    </TTGlyph>
    <TTGlyph name="aacute" xMin="43" yMin="-12" xMax="505" yMax="768">
      <component glyphName="a" x="0" y="0" flags="0x204"/>
      <component glyphName="acute" x="61" y="0" flags="0x4"/>
    </TTGlyph>
    <TTGlyph name="acircumflex" xMin="43" yMin="-12" xMax="497" yMax="796">
      <component glyphName="a" x="0" y="0" flags="0x204"/>
      <component glyphName="circumflex" x="24" y="0" flags="0x4"/>
    </TTGlyph>
    <TTGlyph name="acute" xMin="225" yMin="575" xMax="444" yMax="768">
      <contour>
        <pt x="352" y="767" on="1"/>
        <pt x="360" y="768" on="0"/>
        <pt x="386" y="765" on="0"/>
        <pt x="414" y="759" on="0"/>
        <pt x="438" y="750" on="0"/>
        <pt x="444" y="745" on="1"/>
        <pt x="444" y="726" on="1"/>
        <pt x="247" y="575" on="1"/>
        <pt x="225" y="593" on="1"/>
      </contour>
    </TTGlyph>
    <TTGlyph name="adieresis" xMin="43" yMin="-12" xMax="505" yMax="715">
      <component glyphName="a" x="0" y="0" flags="0x204"/>
      <component glyphName="dieresis" x="15" y="0" flags="0x4"/>
    </TTGlyph>
    <TTGlyph name="ae" xMin="29" yMin="-12" xMax="719" yMax="512">
      <component glyphName="uni04D5" x="0" y="0" flags="0x204"/>
    </TTGlyph>
    <TTGlyph name="agrave" xMin="43" yMin="-12" xMax="497" yMax="768">
      <component glyphName="a" x="0" y="0" flags="0x204"/>
      <component glyphName="grave" x="49" y="0" flags="0x4"/>
    </TTGlyph>
    <TTGlyph name="ampersand" xMin="67" yMin="-12" xMax="816" yMax="712">
      <contour>
        <pt x="480" y="123" on="1"/>
        <pt x="455" y="150" on="0"/>
        <pt x="400" y="223" on="0"/>
        <pt x="349" y="299" on="0"/>
        <pt x="308" y="369" on="0"/>
        <pt x="298" y="392" on="1"/>
        <pt x="245" y="350" on="0"/>
        <pt x="175" y="243" on="0"/>
        <pt x="174" y="170" on="1"/>
        <pt x="175" y="113" on="0"/>
        <pt x="247" y="40" on="0"/>
        <pt x="310" y="40" on="1"/>
        <pt x="355" y="40" on="0"/>
        <pt x="441" y="81" on="0"/>
      </contour>
      <contour>
        <pt x="317" y="564" on="1"/>
        <pt x="317" y="530" on="0"/>
        <pt x="345" y="460" on="0"/>
        <pt x="365" y="431" on="1"/>
        <pt x="386" y="446" on="0"/>
        <pt x="425" y="482" on="0"/>
        <pt x="457" y="523" on="0"/>
        <pt x="476" y="569" on="0"/>
        <pt x="476" y="595" on="1"/>
        <pt x="476" y="630" on="0"/>
        <pt x="448" y="670" on="0"/>
        <pt x="414" y="669" on="1"/>
        <pt x="392" y="670" on="0"/>
        <pt x="356" y="652" on="0"/>
        <pt x="331" y="623" on="0"/>
        <pt x="317" y="585" on="0"/>
      </contour>
      <contour>
        <pt x="611" y="0" on="1"/>
        <pt x="592" y="14" on="0"/>
        <pt x="537" y="55" on="0"/>
        <pt x="507" y="92" on="1"/>
        <pt x="489" y="73" on="0"/>
        <pt x="439" y="36" on="0"/>
        <pt x="376" y="6" on="0"/>
        <pt x="302" y="-12" on="0"/>
        <pt x="262" y="-12" on="1"/>
        <pt x="213" y="-12" on="0"/>
        <pt x="140" y="14" on="0"/>
        <pt x="91" y="59" on="0"/>
        <pt x="67" y="118" on="0"/>
        <pt x="67" y="151" on="1"/>
        <pt x="67" y="202" on="0"/>
        <pt x="117" y="289" on="0"/>
        <pt x="186" y="360" on="0"/>
        <pt x="257" y="410" on="0"/>
        <pt x="279" y="423" on="1"/>
        <pt x="257" y="455" on="0"/>
        <pt x="241" y="521" on="0"/>
        <pt x="241" y="556" on="1"/>
        <pt x="241" y="588" on="0"/>
        <pt x="271" y="645" on="0"/>
        <pt x="321" y="687" on="0"/>
        <pt x="387" y="712" on="0"/>
        <pt x="423" y="712" on="1"/>
        <pt x="550" y="712" on="0"/>
        <pt x="550" y="611" on="1"/>
        <pt x="550" y="577" on="0"/>
        <pt x="517" y="517" on="0"/>
        <pt x="466" y="466" on="0"/>
        <pt x="406" y="423" on="0"/>
        <pt x="380" y="406" on="1"/>
        <pt x="410" y="355" on="0"/>
        <pt x="495" y="247" on="0"/>
        <pt x="543" y="193" on="1"/>
        <pt x="553" y="204" on="0"/>
        <pt x="589" y="256" on="0"/>
        <pt x="625" y="326" on="0"/>
        <pt x="656" y="409" on="0"/>
        <pt x="662" y="450" on="1"/>
        <pt x="630" y="456" on="0"/>
        <pt x="608" y="474" on="1"/>
        <pt x="613" y="500" on="1"/>
        <pt x="816" y="500" on="1"/>
        <pt x="810" y="474" on="1"/>
        <pt x="778" y="457" on="0"/>
        <pt x="739" y="450" on="1"/>
        <pt x="717" y="391" on="0"/>
        <pt x="669" y="295" on="0"/>
        <pt x="624" y="222" on="0"/>
        <pt x="586" y="171" on="0"/>
        <pt x="575" y="159" on="1"/>
        <pt x="607" y="128" on="0"/>
        <pt x="668" y="75" on="0"/>
        <pt x="708" y="49" on="1"/>
        <pt x="759" y="25" on="1"/>
        <pt x="753" y="0" on="1"/>
      </contour>
    </TTGlyph>
    <TTGlyph name="aring" xMin="43" yMin="-12" xMax="497" yMax="780">
      <component glyphName="a" x="0" y="0" flags="0x204"/>
      <component glyphName="ring" x="26" y="0" flags="0x4"/>
    </TTGlyph>
    <TTGlyph name="asciicircum" xMin="105" yMin="434" xMax="494" yMax="711">
      <contour>
        <pt x="291" y="711" on="1"/>
        <pt x="324" y="711" on="1"/>
        <pt x="494" y="434" on="1"/>
        <pt x="405" y="434" on="1"/>
        <pt x="317" y="585" on="1"/>
        <pt x="294" y="652" on="1"/>
        <pt x="261" y="584" on="1"/>
        <pt x="162" y="434" on="1"/>
        <pt x="105" y="434" on="1"/>
      </contour>
    </TTGlyph>
    <TTGlyph name="asciitilde" xMin="66" yMin="285" xMax="479" yMax="417">
      <contour>
        <pt x="66" y="322" on="1"/>
        <pt x="102" y="376" on="0"/>
        <pt x="168" y="417" on="0"/>
        <pt x="198" y="417" on="1"/>
        <pt x="223" y="417" on="0"/>
        <pt x="271" y="396" on="0"/>
        <pt x="317" y="370" on="0"/>
        <pt x="364" y="349" on="0"/>
        <pt x="389" y="349" on="1"/>
        <pt x="407" y="349" on="0"/>
        <pt x="446" y="364" on="0"/>
        <pt x="466" y="383" on="1"/>
        <pt x="479" y="362" on="1"/>
        <pt x="450" y="320" on="0"/>
        <pt x="393" y="285" on="0"/>
        <pt x="366" y="285" on="1"/>
        <pt x="340" y="285" on="0"/>
        <pt x="291" y="306" on="0"/>
        <pt x="243" y="332" on="0"/>
        <pt x="195" y="353" on="0"/>
        <pt x="171" y="353" on="1"/>
        <pt x="149" y="353" on="0"/>
        <pt x="104" y="329" on="0"/>
        <pt x="81" y="298" on="1"/>
      </contour>
    </TTGlyph>
    <TTGlyph name="asterisk" xMin="141" yMin="377" xMax="489" yMax="750">
      <contour>
        <pt x="145" y="616" on="1"/>
        <pt x="142" y="623" on="0"/>
        <pt x="146" y="644" on="0"/>
        <pt x="158" y="665" on="0"/>
        <pt x="175" y="681" on="0"/>
        <pt x="184" y="683" on="1"/>
        <pt x="284" y="596" on="1"/>
        <pt x="284" y="577" on="0"/>
        <pt x="270" y="570" on="1"/>
      </contour>
      <contour>
        <pt x="183" y="444" on="1"/>
        <pt x="175" y="445" on="0"/>
        <pt x="159" y="460" on="0"/>
        <pt x="147" y="481" on="0"/>
        <pt x="141" y="503" on="0"/>
        <pt x="144" y="511" on="1"/>
        <pt x="269" y="554" on="1"/>
        <pt x="284" y="545" on="0"/>
        <pt x="284" y="530" on="1"/>
      </contour>
      <contour>
        <pt x="354" y="389" on="1"/>
        <pt x="349" y="382" on="0"/>
        <pt x="329" y="377" on="0"/>
        <pt x="317" y="377" on="1"/>
        <pt x="305" y="377" on="0"/>
        <pt x="283" y="382" on="0"/>
        <pt x="278" y="388" on="1"/>
        <pt x="301" y="518" on="1"/>
        <pt x="317" y="526" on="0"/>
        <pt x="333" y="518" on="1"/>
      </contour>
      <contour>
        <pt x="485" y="511" on="1"/>
        <pt x="489" y="504" on="0"/>
        <pt x="484" y="482" on="0"/>
        <pt x="472" y="461" on="0"/>
        <pt x="456" y="445" on="0"/>
        <pt x="447" y="444" on="1"/>
        <pt x="349" y="528" on="1"/>
        <pt x="349" y="544" on="0"/>
        <pt x="362" y="553" on="1"/>
      </contour>
      <contour>
        <pt x="448" y="683" on="1"/>
        <pt x="456" y="682" on="0"/>
        <pt x="472" y="667" on="0"/>
        <pt x="484" y="646" on="0"/>
        <pt x="489" y="624" on="0"/>
        <pt x="486" y="615" on="1"/>
        <pt x="362" y="568" on="1"/>
        <pt x="348" y="578" on="0"/>
        <pt x="348" y="594" on="1"/>
      </contour>
      <contour>
        <pt x="277" y="737" on="1"/>
        <pt x="281" y="744" on="0"/>
        <pt x="302" y="750" on="0"/>
        <pt x="314" y="750" on="1"/>
        <pt x="326" y="750" on="0"/>
        <pt x="348" y="744" on="0"/>
        <pt x="353" y="737" on="1"/>
        <pt x="331" y="607" on="1"/>
        <pt x="316" y="597" on="0"/>
        <pt x="300" y="607" on="1"/>
      </contour>
    </TTGlyph>
    <TTGlyph name="at" xMin="80" yMin="-180" xMax="963" yMax="712">
      <contour>
        <pt x="655" y="474" on="1"/>
        <pt x="692" y="491" on="0"/>
        <pt x="730" y="490" on="1"/>
        <pt x="679" y="204" on="1"/>
        <pt x="673" y="171" on="0"/>
        <pt x="668" y="117" on="0"/>
        <pt x="673" y="78" on="0"/>
        <pt x="690" y="57" on="0"/>
        <pt x="707" y="57" on="1"/>
        <pt x="740" y="57" on="0"/>
        <pt x="810" y="94" on="0"/>
        <pt x="869" y="164" on="0"/>
        <pt x="906" y="264" on="0"/>
        <pt x="906" y="326" on="1"/>
        <pt x="906" y="402" on="0"/>
        <pt x="849" y="526" on="0"/>
        <pt x="748" y="613" on="0"/>
        <pt x="613" y="660" on="0"/>
        <pt x="536" y="660" on="1"/>
        <pt x="444" y="660" on="0"/>
        <pt x="297" y="595" on="0"/>
        <pt x="193" y="482" on="0"/>
        <pt x="137" y="329" on="0"/>
        <pt x="137" y="242" on="1"/>
        <pt x="137" y="153" on="0"/>
        <pt x="195" y="16" on="0"/>
        <pt x="300" y="-79" on="0"/>
        <pt x="445" y="-128" on="0"/>
        <pt x="532" y="-128" on="1"/>
        <pt x="561" y="-128" on="0"/>
        <pt x="635" y="-114" on="0"/>
        <pt x="665" y="-100" on="1"/>
        <pt x="681" y="-144" on="1"/>
        <pt x="646" y="-164" on="0"/>
        <pt x="562" y="-180" on="0"/>
        <pt x="511" y="-180" on="1"/>
        <pt x="425" y="-180" on="0"/>
        <pt x="269" y="-128" on="0"/>
        <pt x="150" y="-24" on="0"/>
        <pt x="80" y="132" on="0"/>
        <pt x="80" y="236" on="1"/>
        <pt x="80" y="345" on="0"/>
        <pt x="152" y="521" on="0"/>
        <pt x="277" y="645" on="0"/>
        <pt x="445" y="712" on="0"/>
        <pt x="541" y="712" on="1"/>
        <pt x="631" y="712" on="0"/>
        <pt x="786" y="659" on="0"/>
        <pt x="900" y="560" on="0"/>
        <pt x="963" y="417" on="0"/>
        <pt x="963" y="326" on="1"/>
        <pt x="963" y="261" on="0"/>
        <pt x="919" y="145" on="0"/>
        <pt x="842" y="57" on="0"/>
        <pt x="742" y="5" on="0"/>
        <pt x="687" y="5" on="1"/>
        <pt x="657" y="5" on="0"/>
        <pt x="615" y="24" on="0"/>
        <pt x="593" y="67" on="0"/>
        <pt x="592" y="135" on="0"/>
        <pt x="603" y="183" on="1"/>
        <pt x="599" y="183" on="1"/>
        <pt x="588" y="151" on="0"/>
        <pt x="549" y="88" on="0"/>
        <pt x="499" y="37" on="0"/>
        <pt x="442" y="5" on="0"/>
        <pt x="413" y="5" on="1"/>
        <pt x="353" y="5" on="0"/>
        <pt x="288" y="88" on="0"/>
        <pt x="288" y="157" on="1"/>
        <pt x="288" y="221" on="0"/>
        <pt x="331" y="343" on="0"/>
        <pt x="404" y="439" on="0"/>
        <pt x="500" y="497" on="0"/>
        <pt x="553" y="497" on="1"/>
        <pt x="589" y="497" on="0"/>
        <pt x="631" y="485" on="0"/>
      </contour>
      <contour>
        <pt x="638" y="426" on="1"/>
        <pt x="622" y="436" on="0"/>
        <pt x="589" y="446" on="0"/>
        <pt x="563" y="445" on="1"/>
        <pt x="525" y="446" on="0"/>
        <pt x="457" y="393" on="0"/>
        <pt x="407" y="311" on="0"/>
        <pt x="378" y="214" on="0"/>
        <pt x="378" y="169" on="1"/>
        <pt x="378" y="121" on="0"/>
        <pt x="408" y="67" on="0"/>
        <pt x="450" y="67" on="1"/>
        <pt x="469" y="67" on="0"/>
        <pt x="513" y="104" on="0"/>
        <pt x="556" y="164" on="0"/>
        <pt x="597" y="239" on="0"/>
        <pt x="613" y="277" on="1"/>
      </contour>
    </TTGlyph>
    <TTGlyph name="atilde" xMin="43" yMin="-12" xMax="497" yMax="712">
      <component glyphName="a" x="0" y="0" flags="0x204"/>
      <component glyphName="tilde" x="62" y="0" flags="0x4"/>
    </TTGlyph>
    <TTGlyph name="b" xMin="36" yMin="-12" xMax="488" yMax="752">
      <contour>
        <pt x="164" y="682" on="1"/>
        <pt x="94" y="691" on="1"/>
        <pt x="94" y="714" on="1"/>
        <pt x="110" y="720" on="0"/>
        <pt x="148" y="732" on="0"/>
        <pt x="187" y="743" on="0"/>
        <pt x="225" y="750" on="0"/>
        <pt x="241" y="752" on="1"/>
        <pt x="262" y="741" on="1"/>
        <pt x="174" y="324" on="1"/>
        <pt x="179" y="324" on="1"/>
        <pt x="197" y="360" on="0"/>
        <pt x="240" y="428" on="0"/>
        <pt x="289" y="480" on="0"/>
        <pt x="343" y="512" on="0"/>
        <pt x="373" y="512" on="1"/>
        <pt x="426" y="512" on="0"/>
        <pt x="488" y="438" on="0"/>
        <pt x="488" y="360" on="1"/>
        <pt x="488" y="283" on="0"/>
        <pt x="445" y="148" on="0"/>
        <pt x="367" y="47" on="0"/>
        <pt x="257" y="-12" on="0"/>
        <pt x="190" y="-12" on="1"/>
        <pt x="141" y="-12" on="0"/>
        <pt x="56" y="13" on="0"/>
        <pt x="36" y="30" on="1"/>
      </contour>
      <contour>
        <pt x="331" y="450" on="1"/>
        <pt x="305" y="450" on="0"/>
        <pt x="255" y="404" on="0"/>
        <pt x="212" y="339" on="0"/>
        <pt x="177" y="268" on="0"/>
        <pt x="165" y="244" on="1"/>
        <pt x="127" y="52" on="1"/>
        <pt x="142" y="42" on="0"/>
        <pt x="187" y="31" on="0"/>
        <pt x="209" y="31" on="1"/>
        <pt x="248" y="31" on="0"/>
        <pt x="317" y="85" on="0"/>
        <pt x="369" y="173" on="0"/>
        <pt x="399" y="284" on="0"/>
        <pt x="398" y="341" on="1"/>
        <pt x="399" y="389" on="0"/>
        <pt x="367" y="450" on="0"/>
      </contour>
    </TTGlyph>
    <TTGlyph name="backslash" xMin="-47" yMin="-130" xMax="409" yMax="712">
      <contour>
        <pt x="409" y="-107" on="1"/>
        <pt x="368" y="-130" on="1"/>
        <pt x="-47" y="690" on="1"/>
        <pt x="-5" y="712" on="1"/>
      </contour>
    </TTGlyph>
    <TTGlyph name="bar" xMin="122" yMin="-130" xMax="174" yMax="700">
      <contour>
        <pt x="122" y="700" on="1"/>
        <pt x="174" y="700" on="1"/>
        <pt x="174" y="-130" on="1"/>
        <pt x="122" y="-130" on="1"/>
      </contour>
    </TTGlyph>
    <TTGlyph name="braceleft" xMin="54" yMin="-230" xMax="422" yMax="700">
      <contour>
        <pt x="111" y="112" on="1"/>
        <pt x="116" y="135" on="0"/>
        <pt x="116" y="151" on="1"/>
        <pt x="116" y="184" on="0"/>
        <pt x="84" y="221" on="0"/>
        <pt x="54" y="221" on="1"/>
        <pt x="60" y="251" on="1"/>
        <pt x="79" y="251" on="0"/>
        <pt x="112" y="267" on="0"/>
        <pt x="139" y="296" on="0"/>
        <pt x="158" y="334" on="0"/>
        <pt x="163" y="356" on="1"/>
        <pt x="214" y="594" on="1"/>
        <pt x="224" y="642" on="0"/>
        <pt x="284" y="700" on="0"/>
        <pt x="332" y="700" on="1"/>
        <pt x="422" y="700" on="1"/>
        <pt x="414" y="657" on="1"/>
        <pt x="365" y="657" on="1"/>
        <pt x="338" y="657" on="0"/>
        <pt x="307" y="630" on="0"/>
        <pt x="300" y="598" on="1"/>
        <pt x="251" y="366" on="1"/>
        <pt x="244" y="333" on="0"/>
        <pt x="213" y="287" on="0"/>
        <pt x="175" y="258" on="0"/>
        <pt x="133" y="243" on="0"/>
        <pt x="115" y="241" on="1"/>
        <pt x="113" y="235" on="1"/>
        <pt x="128" y="233" on="0"/>
        <pt x="158" y="220" on="0"/>
        <pt x="183" y="196" on="0"/>
        <pt x="199" y="161" on="0"/>
        <pt x="199" y="137" on="1"/>
        <pt x="199" y="122" on="0"/>
        <pt x="196" y="106" on="1"/>
        <pt x="146" y="-129" on="1"/>
        <pt x="143" y="-141" on="0"/>
        <pt x="143" y="-152" on="1"/>
        <pt x="143" y="-189" on="0"/>
        <pt x="186" y="-187" on="1"/>
        <pt x="234" y="-187" on="1"/>
        <pt x="225" y="-230" on="1"/>
        <pt x="135" y="-230" on="1"/>
        <pt x="98" y="-230" on="0"/>
        <pt x="57" y="-194" on="0"/>
        <pt x="57" y="-158" on="1"/>
        <pt x="57" y="-141" on="0"/>
        <pt x="61" y="-125" on="1"/>
      </contour>
    </TTGlyph>
    <TTGlyph name="braceright" xMin="-52" yMin="-230" xMax="316" yMax="700">
      <contour>
        <pt x="259" y="360" on="1"/>
        <pt x="254" y="337" on="0"/>
        <pt x="254" y="321" on="1"/>
        <pt x="254" y="251" on="0"/>
        <pt x="316" y="251" on="1"/>
        <pt x="310" y="221" on="1"/>
        <pt x="291" y="221" on="0"/>
        <pt x="258" y="204" on="0"/>
        <pt x="231" y="176" on="0"/>
        <pt x="212" y="138" on="0"/>
        <pt x="207" y="116" on="1"/>
        <pt x="156" y="-124" on="1"/>
        <pt x="146" y="-172" on="0"/>
        <pt x="86" y="-230" on="0"/>
        <pt x="38" y="-230" on="1"/>
        <pt x="-52" y="-230" on="1"/>
        <pt x="-43" y="-187" on="1"/>
        <pt x="5" y="-187" on="1"/>
        <pt x="32" y="-187" on="0"/>
        <pt x="63" y="-161" on="0"/>
        <pt x="70" y="-129" on="1"/>
        <pt x="120" y="106" on="1"/>
        <pt x="127" y="139" on="0"/>
        <pt x="155" y="185" on="0"/>
        <pt x="190" y="214" on="0"/>
        <pt x="229" y="229" on="0"/>
        <pt x="247" y="231" on="1"/>
        <pt x="248" y="237" on="1"/>
        <pt x="234" y="238" on="0"/>
        <pt x="206" y="251" on="0"/>
        <pt x="184" y="273" on="0"/>
        <pt x="171" y="307" on="0"/>
        <pt x="171" y="330" on="1"/>
        <pt x="171" y="349" on="0"/>
        <pt x="175" y="366" on="1"/>
        <pt x="224" y="598" on="1"/>
        <pt x="227" y="610" on="0"/>
        <pt x="227" y="620" on="1"/>
        <pt x="228" y="658" on="0"/>
        <pt x="184" y="657" on="1"/>
        <pt x="137" y="657" on="1"/>
        <pt x="145" y="700" on="1"/>
        <pt x="236" y="700" on="1"/>
        <pt x="273" y="700" on="0"/>
        <pt x="313" y="663" on="0"/>
        <pt x="313" y="628" on="1"/>
        <pt x="313" y="611" on="0"/>
        <pt x="309" y="595" on="1"/>
      </contour>
    </TTGlyph>
    <TTGlyph name="bracketleft" xMin="-7" yMin="-230" xMax="379" yMax="700">
      <contour>
        <pt x="190" y="700" on="1"/>
        <pt x="379" y="700" on="1"/>
        <pt x="370" y="657" on="1"/>
        <pt x="266" y="657" on="1"/>
        <pt x="86" y="-187" on="1"/>
        <pt x="190" y="-187" on="1"/>
        <pt x="182" y="-230" on="1"/>
        <pt x="-7" y="-230" on="1"/>
      </contour>
    </TTGlyph>
    <TTGlyph name="bracketright" xMin="-57" yMin="-230" xMax="328" yMax="700">
      <contour>
        <pt x="131" y="-230" on="1"/>
        <pt x="-57" y="-230" on="1"/>
        <pt x="-48" y="-187" on="1"/>
        <pt x="55" y="-187" on="1"/>
        <pt x="235" y="657" on="1"/>
        <pt x="131" y="657" on="1"/>
        <pt x="139" y="700" on="1"/>
        <pt x="328" y="700" on="1"/>
      </contour>
    </TTGlyph>
    <TTGlyph name="brokenbar" xMin="120" yMin="-130" xMax="172" yMax="700">
      <contour>
        <pt x="120" y="190" on="1"/>
        <pt x="172" y="190" on="1"/>
        <pt x="172" y="-130" on="1"/>
        <pt x="120" y="-130" on="1"/>
      </contour>
      <contour>
        <pt x="172" y="380" on="1"/>
        <pt x="120" y="380" on="1"/>
        <pt x="120" y="700" on="1"/>
        <pt x="172" y="700" on="1"/>
      </contour>
    </TTGlyph>
    <TTGlyph name="bullet" xMin="101" yMin="170" xMax="383" yMax="452">
      <contour>
        <pt x="101" y="311" on="1"/>
        <pt x="101" y="342" on="0"/>
        <pt x="123" y="394" on="0"/>
        <pt x="161" y="431" on="0"/>
        <pt x="213" y="452" on="0"/>
        <pt x="242" y="452" on="1"/>
        <pt x="271" y="452" on="0"/>
        <pt x="323" y="433" on="0"/>
        <pt x="361" y="396" on="0"/>
        <pt x="383" y="344" on="0"/>
        <pt x="383" y="311" on="1"/>
        <pt x="383" y="278" on="0"/>
        <pt x="361" y="226" on="0"/>
        <pt x="323" y="189" on="0"/>
        <pt x="271" y="170" on="0"/>
        <pt x="242" y="170" on="1"/>
        <pt x="213" y="170" on="0"/>
        <pt x="161" y="189" on="0"/>
        <pt x="123" y="226" on="0"/>
        <pt x="101" y="278" on="0"/>
      </contour>
    </TTGlyph>
    <TTGlyph name="c" xMin="40" yMin="-12" xMax="432" yMax="512">
      <contour>
        <pt x="382" y="89" on="1"/>
        <pt x="371" y="70" on="0"/>
        <pt x="337" y="34" on="0"/>
        <pt x="291" y="5" on="0"/>
        <pt x="234" y="-12" on="0"/>
        <pt x="200" y="-12" on="1"/>
        <pt x="126" y="-12" on="0"/>
        <pt x="40" y="82" on="0"/>
        <pt x="40" y="163" on="1"/>
        <pt x="40" y="235" on="0"/>
        <pt x="86" y="362" on="0"/>
        <pt x="165" y="457" on="0"/>
        <pt x="272" y="512" on="0"/>
        <pt x="333" y="512" on="1"/>
        <pt x="371" y="512" on="0"/>
        <pt x="419" y="500" on="0"/>
        <pt x="431" y="489" on="1"/>
        <pt x="432" y="478" on="0"/>
        <pt x="427" y="451" on="0"/>
        <pt x="416" y="425" on="0"/>
        <pt x="399" y="403" on="0"/>
        <pt x="390" y="399" on="1"/>
        <pt x="322" y="469" on="1"/>
        <pt x="288" y="468" on="0"/>
        <pt x="221" y="428" on="0"/>
        <pt x="168" y="354" on="0"/>
        <pt x="135" y="249" on="0"/>
        <pt x="136" y="183" on="1"/>
        <pt x="135" y="114" on="0"/>
        <pt x="192" y="50" on="0"/>
        <pt x="241" y="50" on="1"/>
        <pt x="262" y="50" on="0"/>
        <pt x="299" y="62" on="0"/>
        <pt x="331" y="80" on="0"/>
        <pt x="357" y="100" on="0"/>
        <pt x="367" y="108" on="1"/>
      </contour>
    </TTGlyph>
    <TTGlyph name="ccedilla" xMin="40" yMin="-252" xMax="432" yMax="512">
      <contour>
        <pt x="382" y="89" on="1"/>
        <pt x="363" y="56" on="0"/>
        <pt x="286" y="-2" on="0"/>
        <pt x="230" y="-10" on="1"/>
        <pt x="197" y="-68" on="1"/>
        <pt x="239" y="-70" on="0"/>
        <pt x="275" y="-105" on="0"/>
        <pt x="277" y="-134" on="1"/>
        <pt x="278" y="-165" on="0"/>
        <pt x="241" y="-210" on="0"/>
        <pt x="185" y="-239" on="0"/>
        <pt x="120" y="-252" on="0"/>
        <pt x="93" y="-251" on="1"/>
        <pt x="93" y="-221" on="1"/>
        <pt x="112" y="-218" on="0"/>
        <pt x="150" y="-207" on="0"/>
        <pt x="180" y="-191" on="0"/>
        <pt x="198" y="-168" on="0"/>
        <pt x="197" y="-154" on="1"/>
        <pt x="197" y="-145" on="0"/>
        <pt x="192" y="-129" on="0"/>
        <pt x="179" y="-116" on="0"/>
        <pt x="155" y="-107" on="0"/>
        <pt x="135" y="-105" on="1"/>
        <pt x="185" y="-11" on="1"/>
        <pt x="118" y="-6" on="0"/>
        <pt x="40" y="85" on="0"/>
        <pt x="40" y="163" on="1"/>
        <pt x="40" y="235" on="0"/>
        <pt x="86" y="362" on="0"/>
        <pt x="165" y="457" on="0"/>
        <pt x="272" y="512" on="0"/>
        <pt x="333" y="512" on="1"/>
        <pt x="371" y="512" on="0"/>
        <pt x="419" y="500" on="0"/>
        <pt x="431" y="489" on="1"/>
        <pt x="432" y="478" on="0"/>
        <pt x="427" y="451" on="0"/>
        <pt x="416" y="425" on="0"/>
        <pt x="399" y="403" on="0"/>
        <pt x="390" y="399" on="1"/>
        <pt x="322" y="469" on="1"/>
        <pt x="288" y="468" on="0"/>
        <pt x="221" y="428" on="0"/>
        <pt x="168" y="354" on="0"/>
        <pt x="135" y="249" on="0"/>
        <pt x="136" y="183" on="1"/>
        <pt x="135" y="114" on="0"/>
        <pt x="192" y="50" on="0"/>
        <pt x="241" y="51" on="1"/>
        <pt x="262" y="50" on="0"/>
        <pt x="299" y="62" on="0"/>
        <pt x="331" y="80" on="0"/>
        <pt x="357" y="100" on="0"/>
        <pt x="367" y="108" on="1"/>
      </contour>
    </TTGlyph>
    <TTGlyph name="cedilla" xMin="92" yMin="-252" xMax="277" yMax="1">
      <contour>
        <pt x="196" y="-68" on="1"/>
        <pt x="238" y="-70" on="0"/>
        <pt x="274" y="-105" on="0"/>
        <pt x="276" y="-134" on="1"/>
        <pt x="277" y="-165" on="0"/>
        <pt x="240" y="-210" on="0"/>
        <pt x="184" y="-239" on="0"/>
        <pt x="119" y="-252" on="0"/>
        <pt x="92" y="-251" on="1"/>
        <pt x="92" y="-221" on="1"/>
        <pt x="111" y="-218" on="0"/>
        <pt x="149" y="-207" on="0"/>
        <pt x="179" y="-191" on="0"/>
        <pt x="197" y="-168" on="0"/>
        <pt x="196" y="-154" on="1"/>
        <pt x="196" y="-145" on="0"/>
        <pt x="191" y="-129" on="0"/>
        <pt x="178" y="-116" on="0"/>
        <pt x="154" y="-107" on="0"/>
        <pt x="134" y="-105" on="1"/>
        <pt x="190" y="1" on="1"/>
        <pt x="236" y="1" on="1"/>
      </contour>
    </TTGlyph>
    <TTGlyph name="cent" xMin="47" yMin="-170" xMax="520" yMax="660">
      <contour>
        <pt x="430" y="89" on="1"/>
        <pt x="419" y="71" on="0"/>
        <pt x="387" y="38" on="0"/>
        <pt x="345" y="11" on="0"/>
        <pt x="293" y="-8" on="0"/>
        <pt x="263" y="-10" on="1"/>
        <pt x="230" y="-170" on="1"/>
        <pt x="178" y="-170" on="1"/>
        <pt x="212" y="-10" on="1"/>
        <pt x="127" y="-2" on="0"/>
        <pt x="47" y="94" on="0"/>
        <pt x="47" y="171" on="1"/>
        <pt x="47" y="234" on="0"/>
        <pt x="90" y="346" on="0"/>
        <pt x="164" y="435" on="0"/>
        <pt x="264" y="494" on="0"/>
        <pt x="321" y="505" on="1"/>
        <pt x="355" y="660" on="1"/>
        <pt x="407" y="660" on="1"/>
        <pt x="375" y="511" on="1"/>
        <pt x="378" y="511" on="0"/>
        <pt x="384" y="512" on="0"/>
        <pt x="387" y="511" on="1"/>
        <pt x="405" y="511" on="0"/>
        <pt x="447" y="508" on="0"/>
        <pt x="484" y="502" on="0"/>
        <pt x="513" y="494" on="0"/>
        <pt x="519" y="489" on="1"/>
        <pt x="520" y="478" on="0"/>
        <pt x="515" y="451" on="0"/>
        <pt x="504" y="425" on="0"/>
        <pt x="488" y="403" on="0"/>
        <pt x="479" y="399" on="1"/>
        <pt x="411" y="468" on="1"/>
        <pt x="386" y="468" on="0"/>
        <pt x="364" y="465" on="1"/>
        <pt x="276" y="52" on="1"/>
        <pt x="327" y="54" on="0"/>
        <pt x="395" y="90" on="0"/>
        <pt x="415" y="108" on="1"/>
      </contour>
      <contour>
        <pt x="143" y="179" on="1"/>
        <pt x="142" y="125" on="0"/>
        <pt x="187" y="64" on="0"/>
        <pt x="225" y="55" on="1"/>
        <pt x="311" y="451" on="1"/>
        <pt x="272" y="436" on="0"/>
        <pt x="209" y="384" on="0"/>
        <pt x="165" y="314" on="0"/>
        <pt x="142" y="228" on="0"/>
      </contour>
    </TTGlyph>
    <TTGlyph name="circumflex" xMin="192" yMin="590" xMax="441" yMax="796">
      <contour>
        <pt x="221" y="590" on="1"/>
        <pt x="192" y="606" on="1"/>
        <pt x="343" y="792" on="1"/>
        <pt x="348" y="796" on="0"/>
        <pt x="356" y="796" on="1"/>
        <pt x="364" y="796" on="0"/>
        <pt x="368" y="792" on="1"/>
        <pt x="441" y="607" on="1"/>
        <pt x="414" y="590" on="1"/>
        <pt x="336" y="697" on="1"/>
      </contour>
    </TTGlyph>
    <TTGlyph name="colon" xMin="76" yMin="-8" xMax="263" yMax="508">
      <component glyphName="period" x="97" y="385" flags="0x4"/>
      <component glyphName="period" x="47" y="0" flags="0x4"/>
    </TTGlyph>
    <TTGlyph name="comma" xMin="-36" yMin="-179" xMax="168" yMax="126">
      <contour>
        <pt x="-36" y="-149" on="1"/>
        <pt x="-15" y="-142" on="0"/>
        <pt x="25" y="-113" on="0"/>
        <pt x="58" y="-77" on="0"/>
        <pt x="79" y="-34" on="0"/>
        <pt x="82" y="-13" on="1"/>
        <pt x="72" y="-2" on="0"/>
        <pt x="37" y="20" on="0"/>
        <pt x="23" y="25" on="1"/>
        <pt x="22" y="44" on="0"/>
        <pt x="38" y="80" on="0"/>
        <pt x="62" y="108" on="0"/>
        <pt x="89" y="125" on="0"/>
        <pt x="100" y="126" on="1"/>
        <pt x="134" y="121" on="0"/>
        <pt x="168" y="83" on="0"/>
        <pt x="168" y="45" on="1"/>
        <pt x="168" y="7" on="0"/>
        <pt x="135" y="-65" on="0"/>
        <pt x="82" y="-125" on="0"/>
        <pt x="13" y="-169" on="0"/>
        <pt x="-23" y="-179" on="1"/>
      </contour>
    </TTGlyph>
    <TTGlyph name="copyright" xMin="51" yMin="-62" xMax="756" yMax="642">
      <contour>
        <pt x="51" y="290" on="1"/>
        <pt x="51" y="373" on="0"/>
        <pt x="110" y="504" on="0"/>
        <pt x="208" y="594" on="0"/>
        <pt x="335" y="642" on="0"/>
        <pt x="404" y="642" on="1"/>
        <pt x="473" y="642" on="0"/>
        <pt x="600" y="594" on="0"/>
        <pt x="697" y="504" on="0"/>
        <pt x="756" y="373" on="0"/>
        <pt x="756" y="290" on="1"/>
        <pt x="756" y="207" on="0"/>
        <pt x="697" y="76" on="0"/>
        <pt x="600" y="-14" on="0"/>
        <pt x="473" y="-62" on="0"/>
        <pt x="404" y="-62" on="1"/>
        <pt x="332" y="-62" on="0"/>
        <pt x="203" y="-14" on="0"/>
        <pt x="107" y="76" on="0"/>
        <pt x="51" y="207" on="0"/>
      </contour>
      <contour>
        <pt x="103" y="290" on="1"/>
        <pt x="103" y="221" on="0"/>
        <pt x="150" y="108" on="0"/>
        <pt x="232" y="29" on="0"/>
        <pt x="342" y="-15" on="0"/>
        <pt x="404" y="-15" on="1"/>
        <pt x="466" y="-15" on="0"/>
        <pt x="576" y="29" on="0"/>
        <pt x="657" y="108" on="0"/>
        <pt x="704" y="221" on="0"/>
        <pt x="704" y="290" on="1"/>
        <pt x="704" y="359" on="0"/>
        <pt x="654" y="472" on="0"/>
        <pt x="571" y="551" on="0"/>
        <pt x="462" y="595" on="0"/>
        <pt x="404" y="595" on="1"/>
        <pt x="338" y="595" on="0"/>
        <pt x="227" y="551" on="0"/>
        <pt x="148" y="471" on="0"/>
        <pt x="103" y="359" on="0"/>
      </contour>
      <contour>
        <pt x="510" y="206" on="1"/>
        <pt x="535" y="206" on="1"/>
        <pt x="539" y="191" on="0"/>
        <pt x="543" y="130" on="0"/>
        <pt x="540" y="106" on="1"/>
        <pt x="531" y="99" on="0"/>
        <pt x="504" y="90" on="0"/>
        <pt x="474" y="84" on="0"/>
        <pt x="442" y="82" on="0"/>
        <pt x="429" y="82" on="1"/>
        <pt x="380" y="82" on="0"/>
        <pt x="299" y="109" on="0"/>
        <pt x="240" y="162" on="0"/>
        <pt x="207" y="240" on="0"/>
        <pt x="207" y="291" on="1"/>
        <pt x="207" y="343" on="0"/>
        <pt x="244" y="421" on="0"/>
        <pt x="303" y="473" on="0"/>
        <pt x="378" y="500" on="0"/>
        <pt x="416" y="500" on="1"/>
        <pt x="455" y="500" on="0"/>
        <pt x="517" y="489" on="0"/>
        <pt x="537" y="479" on="1"/>
        <pt x="538" y="470" on="0"/>
        <pt x="538" y="441" on="0"/>
        <pt x="536" y="409" on="0"/>
        <pt x="532" y="379" on="0"/>
        <pt x="529" y="369" on="1"/>
        <pt x="504" y="369" on="1"/>
        <pt x="474" y="452" on="1"/>
        <pt x="467" y="457" on="0"/>
        <pt x="437" y="458" on="0"/>
        <pt x="423" y="459" on="1"/>
        <pt x="366" y="458" on="0"/>
        <pt x="303" y="369" on="0"/>
        <pt x="303" y="291" on="1"/>
        <pt x="303" y="258" on="0"/>
        <pt x="317" y="197" on="0"/>
        <pt x="348" y="150" on="0"/>
        <pt x="398" y="123" on="0"/>
        <pt x="433" y="123" on="1"/>
        <pt x="453" y="123" on="0"/>
        <pt x="478" y="131" on="0"/>
        <pt x="482" y="135" on="1"/>
      </contour>
    </TTGlyph>
    <TTGlyph name="currency" xMin="31" yMin="115" xMax="493" yMax="577">
      <contour>
        <pt x="31" y="170" on="1"/>
        <pt x="114" y="252" on="1"/>
        <pt x="149" y="263" on="1"/>
        <pt x="135" y="280" on="0"/>
        <pt x="123" y="322" on="0"/>
        <pt x="123" y="346" on="1"/>
        <pt x="123" y="369" on="0"/>
        <pt x="135" y="412" on="0"/>
        <pt x="149" y="429" on="1"/>
        <pt x="114" y="440" on="1"/>
        <pt x="32" y="523" on="1"/>
        <pt x="86" y="577" on="1"/>
        <pt x="168" y="494" on="1"/>
        <pt x="180" y="460" on="1"/>
        <pt x="197" y="473" on="0"/>
        <pt x="239" y="487" on="0"/>
        <pt x="262" y="487" on="1"/>
        <pt x="312" y="485" on="0"/>
        <pt x="345" y="460" on="1"/>
        <pt x="357" y="494" on="1"/>
        <pt x="439" y="576" on="1"/>
        <pt x="493" y="522" on="1"/>
        <pt x="410" y="440" on="1"/>
        <pt x="377" y="429" on="1"/>
        <pt x="389" y="412" on="0"/>
        <pt x="401" y="369" on="0"/>
        <pt x="401" y="346" on="1"/>
        <pt x="401" y="298" on="0"/>
        <pt x="377" y="262" on="1"/>
        <pt x="410" y="252" on="1"/>
        <pt x="492" y="169" on="1"/>
        <pt x="438" y="115" on="1"/>
        <pt x="356" y="197" on="1"/>
        <pt x="345" y="231" on="1"/>
        <pt x="310" y="207" on="0"/>
        <pt x="262" y="207" on="1"/>
        <pt x="239" y="207" on="0"/>
        <pt x="197" y="220" on="0"/>
        <pt x="178" y="231" on="1"/>
        <pt x="168" y="198" on="1"/>
        <pt x="85" y="116" on="1"/>
      </contour>
      <contour>
        <pt x="262" y="264" on="1"/>
        <pt x="298" y="264" on="0"/>
        <pt x="347" y="310" on="0"/>
        <pt x="347" y="346" on="1"/>
        <pt x="347" y="382" on="0"/>
        <pt x="298" y="429" on="0"/>
        <pt x="262" y="429" on="1"/>
        <pt x="226" y="430" on="0"/>
        <pt x="177" y="382" on="0"/>
        <pt x="177" y="346" on="1"/>
        <pt x="177" y="310" on="0"/>
        <pt x="226" y="264" on="0"/>
      </contour>
    </TTGlyph>
    <TTGlyph name="d" xMin="45" yMin="-12" xMax="546" yMax="752">
      <contour>
        <pt x="191" y="50" on="1"/>
        <pt x="218" y="50" on="0"/>
        <pt x="272" y="101" on="0"/>
        <pt x="320" y="173" on="0"/>
        <pt x="358" y="251" on="0"/>
        <pt x="369" y="277" on="1"/>
        <pt x="401" y="448" on="1"/>
        <pt x="386" y="458" on="0"/>
        <pt x="361" y="465" on="0"/>
        <pt x="338" y="466" on="1"/>
        <pt x="290" y="465" on="0"/>
        <pt x="214" y="408" on="0"/>
        <pt x="162" y="319" on="0"/>
        <pt x="135" y="209" on="0"/>
        <pt x="135" y="156" on="1"/>
        <pt x="135" y="105" on="0"/>
        <pt x="160" y="50" on="0"/>
      </contour>
      <contour>
        <pt x="349" y="196" on="1"/>
        <pt x="336" y="160" on="0"/>
        <pt x="296" y="86" on="0"/>
        <pt x="245" y="26" on="0"/>
        <pt x="184" y="-12" on="0"/>
        <pt x="149" y="-12" on="1"/>
        <pt x="45" y="-12" on="0"/>
        <pt x="45" y="140" on="1"/>
        <pt x="45" y="211" on="0"/>
        <pt x="85" y="344" on="0"/>
        <pt x="161" y="447" on="0"/>
        <pt x="269" y="509" on="0"/>
        <pt x="338" y="509" on="1"/>
        <pt x="364" y="509" on="0"/>
        <pt x="390" y="502" on="0"/>
        <pt x="410" y="493" on="1"/>
        <pt x="448" y="682" on="1"/>
        <pt x="378" y="691" on="1"/>
        <pt x="378" y="716" on="1"/>
        <pt x="393" y="722" on="0"/>
        <pt x="429" y="733" on="0"/>
        <pt x="468" y="742" on="0"/>
        <pt x="508" y="750" on="0"/>
        <pt x="525" y="752" on="1"/>
        <pt x="546" y="744" on="1"/>
        <pt x="409" y="55" on="1"/>
        <pt x="482" y="55" on="1"/>
        <pt x="482" y="30" on="1"/>
        <pt x="462" y="14" on="0"/>
        <pt x="406" y="-6" on="0"/>
        <pt x="379" y="-6" on="1"/>
        <pt x="350" y="-6" on="0"/>
        <pt x="325" y="19" on="0"/>
        <pt x="325" y="33" on="1"/>
        <pt x="325" y="51" on="0"/>
        <pt x="339" y="133" on="0"/>
        <pt x="353" y="196" on="1"/>
      </contour>
    </TTGlyph>
    <TTGlyph name="degree" xMin="127" yMin="430" xMax="410" yMax="712">
      <contour>
        <pt x="127" y="571" on="1"/>
        <pt x="127" y="602" on="0"/>
        <pt x="149" y="654" on="0"/>
        <pt x="188" y="691" on="0"/>
        <pt x="240" y="712" on="0"/>
        <pt x="269" y="712" on="1"/>
        <pt x="298" y="712" on="0"/>
        <pt x="350" y="694" on="0"/>
        <pt x="388" y="659" on="0"/>
        <pt x="410" y="606" on="0"/>
        <pt x="410" y="571" on="1"/>
        <pt x="410" y="538" on="0"/>
        <pt x="388" y="486" on="0"/>
        <pt x="350" y="449" on="0"/>
        <pt x="298" y="430" on="0"/>
        <pt x="269" y="430" on="1"/>
        <pt x="240" y="430" on="0"/>
        <pt x="188" y="449" on="0"/>
        <pt x="149" y="486" on="0"/>
        <pt x="127" y="538" on="0"/>
      </contour>
      <contour>
        <pt x="183" y="571" on="1"/>
        <pt x="183" y="530" on="0"/>
        <pt x="234" y="479" on="0"/>
        <pt x="269" y="479" on="1"/>
        <pt x="307" y="479" on="0"/>
        <pt x="354" y="527" on="0"/>
        <pt x="354" y="571" on="1"/>
        <pt x="354" y="613" on="0"/>
        <pt x="307" y="663" on="0"/>
        <pt x="269" y="663" on="1"/>
        <pt x="230" y="663" on="0"/>
        <pt x="183" y="613" on="0"/>
      </contour>
    </TTGlyph>
    <TTGlyph name="dieresis" xMin="179" yMin="611" xMax="490" yMax="715">
      <contour>
        <pt x="179" y="662" on="1"/>
        <pt x="179" y="686" on="0"/>
        <pt x="209" y="715" on="0"/>
        <pt x="234" y="715" on="1"/>
        <pt x="258" y="715" on="0"/>
        <pt x="288" y="686" on="0"/>
        <pt x="288" y="662" on="1"/>
        <pt x="288" y="639" on="0"/>
        <pt x="258" y="611" on="0"/>
        <pt x="234" y="611" on="1"/>
        <pt x="209" y="611" on="0"/>
        <pt x="179" y="639" on="0"/>
      </contour>
      <contour>
        <pt x="381" y="662" on="1"/>
        <pt x="381" y="686" on="0"/>
        <pt x="411" y="715" on="0"/>
        <pt x="435" y="715" on="1"/>
        <pt x="460" y="715" on="0"/>
        <pt x="490" y="686" on="0"/>
        <pt x="490" y="662" on="1"/>
        <pt x="490" y="639" on="0"/>
        <pt x="460" y="611" on="0"/>
        <pt x="435" y="611" on="1"/>
        <pt x="411" y="611" on="0"/>
        <pt x="381" y="639" on="0"/>
      </contour>
    </TTGlyph>
    <TTGlyph name="divide" xMin="37" yMin="89" xMax="487" yMax="601">
      <component glyphName="minus" x="0" y="2" flags="0x204"/>
      <component glyphName="period" x="165" y="478" flags="0x4"/>
      <component glyphName="period" x="165" y="97" flags="0x4"/>
    </TTGlyph>
    <TTGlyph name="dollar" xMin="17" yMin="-70" xMax="537" yMax="760">
      <contour>
        <pt x="188" y="-12" on="1"/>
        <pt x="162" y="-11" on="0"/>
        <pt x="109" y="1" on="0"/>
        <pt x="63" y="18" on="0"/>
        <pt x="26" y="36" on="0"/>
        <pt x="17" y="44" on="1"/>
        <pt x="25" y="77" on="0"/>
        <pt x="48" y="137" on="0"/>
        <pt x="60" y="157" on="1"/>
        <pt x="86" y="157" on="1"/>
        <pt x="126" y="60" on="1"/>
        <pt x="145" y="41" on="0"/>
        <pt x="199" y="40" on="1"/>
        <pt x="260" y="321" on="1"/>
        <pt x="234" y="338" on="0"/>
        <pt x="184" y="373" on="0"/>
        <pt x="145" y="418" on="0"/>
        <pt x="120" y="475" on="0"/>
        <pt x="120" y="514" on="1"/>
        <pt x="120" y="550" on="0"/>
        <pt x="148" y="619" on="0"/>
        <pt x="203" y="673" on="0"/>
        <pt x="286" y="708" on="0"/>
        <pt x="341" y="711" on="1"/>
        <pt x="352" y="760" on="1"/>
        <pt x="404" y="760" on="1"/>
        <pt x="393" y="711" on="1"/>
        <pt x="442" y="709" on="0"/>
        <pt x="512" y="691" on="0"/>
        <pt x="537" y="679" on="1"/>
        <pt x="528" y="646" on="0"/>
        <pt x="496" y="601" on="0"/>
        <pt x="481" y="586" on="1"/>
        <pt x="455" y="586" on="1"/>
        <pt x="419" y="654" on="1"/>
        <pt x="411" y="655" on="0"/>
        <pt x="393" y="657" on="0"/>
        <pt x="383" y="659" on="1"/>
        <pt x="329" y="402" on="1"/>
        <pt x="353" y="386" on="0"/>
        <pt x="402" y="351" on="0"/>
        <pt x="441" y="303" on="0"/>
        <pt x="465" y="239" on="0"/>
        <pt x="465" y="196" on="1"/>
        <pt x="465" y="157" on="0"/>
        <pt x="434" y="87" on="0"/>
        <pt x="376" y="32" on="0"/>
        <pt x="292" y="-5" on="0"/>
        <pt x="240" y="-10" on="1"/>
        <pt x="228" y="-70" on="1"/>
        <pt x="176" y="-70" on="1"/>
      </contour>
      <contour>
        <pt x="213" y="543" on="1"/>
        <pt x="213" y="502" on="0"/>
        <pt x="253" y="451" on="0"/>
        <pt x="283" y="431" on="1"/>
        <pt x="332" y="659" on="1"/>
        <pt x="278" y="655" on="0"/>
        <pt x="213" y="595" on="0"/>
      </contour>
      <contour>
        <pt x="371" y="167" on="1"/>
        <pt x="371" y="209" on="0"/>
        <pt x="332" y="267" on="0"/>
        <pt x="303" y="290" on="1"/>
        <pt x="250" y="43" on="1"/>
        <pt x="274" y="47" on="0"/>
        <pt x="317" y="67" on="0"/>
        <pt x="351" y="98" on="0"/>
        <pt x="371" y="140" on="0"/>
      </contour>
    </TTGlyph>
    <TTGlyph name="dotaccent" xMin="209" yMin="620" xMax="327" yMax="729">
      <contour>
        <pt x="209" y="673" on="1"/>
        <pt x="209" y="699" on="0"/>
        <pt x="241" y="729" on="0"/>
        <pt x="267" y="729" on="1"/>
        <pt x="295" y="729" on="0"/>
        <pt x="327" y="699" on="0"/>
        <pt x="327" y="673" on="1"/>
        <pt x="327" y="648" on="0"/>
        <pt x="295" y="620" on="0"/>
        <pt x="267" y="620" on="1"/>
        <pt x="241" y="620" on="0"/>
        <pt x="209" y="648" on="0"/>
      </contour>
    </TTGlyph>
    <TTGlyph name="dotlessi" xMin="53" yMin="-6" xMax="231" yMax="512">
      <contour>
        <pt x="70" y="451" on="1"/>
        <pt x="70" y="476" on="1"/>
        <pt x="85" y="482" on="0"/>
        <pt x="123" y="495" on="0"/>
        <pt x="163" y="505" on="0"/>
        <pt x="199" y="512" on="0"/>
        <pt x="213" y="512" on="1"/>
        <pt x="231" y="500" on="1"/>
        <pt x="137" y="56" on="1"/>
        <pt x="211" y="56" on="1"/>
        <pt x="211" y="30" on="1"/>
        <pt x="190" y="14" on="0"/>
        <pt x="134" y="-6" on="0"/>
        <pt x="107" y="-6" on="1"/>
        <pt x="78" y="-6" on="0"/>
        <pt x="53" y="20" on="0"/>
        <pt x="53" y="37" on="1"/>
        <pt x="53" y="57" on="0"/>
        <pt x="59" y="95" on="0"/>
        <pt x="64" y="118" on="1"/>
        <pt x="134" y="441" on="1"/>
      </contour>
    </TTGlyph>
    <TTGlyph name="e" xMin="40" yMin="-12" xMax="435" yMax="512">
      <contour>
        <pt x="392" y="89" on="1"/>
        <pt x="383" y="70" on="0"/>
        <pt x="349" y="34" on="0"/>
        <pt x="303" y="5" on="0"/>
        <pt x="245" y="-12" on="0"/>
        <pt x="212" y="-12" on="1"/>
        <pt x="129" y="-12" on="0"/>
        <pt x="40" y="83" on="0"/>
        <pt x="40" y="167" on="1"/>
        <pt x="40" y="238" on="0"/>
        <pt x="80" y="364" on="0"/>
        <pt x="152" y="458" on="0"/>
        <pt x="255" y="512" on="0"/>
        <pt x="318" y="512" on="1"/>
        <pt x="366" y="512" on="0"/>
        <pt x="435" y="463" on="0"/>
        <pt x="435" y="415" on="1"/>
        <pt x="435" y="344" on="0"/>
        <pt x="294" y="262" on="0"/>
        <pt x="137" y="250" on="1"/>
        <pt x="133" y="233" on="0"/>
        <pt x="130" y="201" on="0"/>
        <pt x="130" y="186" on="1"/>
        <pt x="130" y="126" on="0"/>
        <pt x="191" y="50" on="0"/>
        <pt x="250" y="50" on="1"/>
        <pt x="269" y="50" on="0"/>
        <pt x="306" y="62" on="0"/>
        <pt x="339" y="80" on="0"/>
        <pt x="366" y="100" on="0"/>
        <pt x="376" y="108" on="1"/>
      </contour>
      <contour>
        <pt x="287" y="469" on="1"/>
        <pt x="244" y="468" on="0"/>
        <pt x="170" y="389" on="0"/>
        <pt x="144" y="293" on="1"/>
        <pt x="241" y="296" on="0"/>
        <pt x="349" y="357" on="0"/>
        <pt x="349" y="411" on="1"/>
        <pt x="349" y="432" on="0"/>
        <pt x="324" y="468" on="0"/>
      </contour>
    </TTGlyph>
    <TTGlyph name="eacute" xMin="40" yMin="-12" xMax="474" yMax="768">
      <component glyphName="e" x="0" y="0" flags="0x204"/>
      <component glyphName="acute" x="30" y="0" flags="0x4"/>
    </TTGlyph>
    <TTGlyph name="ecircumflex" xMin="40" yMin="-12" xMax="436" yMax="796">
      <component glyphName="e" x="0" y="0" flags="0x204"/>
      <component glyphName="circumflex" x="-5" y="0" flags="0x4"/>
    </TTGlyph>
    <TTGlyph name="edieresis" xMin="40" yMin="-12" xMax="473" yMax="715">
      <component glyphName="e" x="0" y="0" flags="0x204"/>
      <component glyphName="dieresis" x="-17" y="0" flags="0x4"/>
    </TTGlyph>
    <TTGlyph name="egrave" xMin="40" yMin="-12" xMax="435" yMax="768">
      <component glyphName="e" x="0" y="0" flags="0x204"/>
      <component glyphName="grave" x="39" y="0" flags="0x4"/>
    </TTGlyph>
    <TTGlyph name="eight" xMin="12" yMin="-12" xMax="512" yMax="712">
      <contour>
        <pt x="12" y="136" on="1"/>
        <pt x="12" y="210" on="0"/>
        <pt x="117" y="322" on="0"/>
        <pt x="217" y="351" on="1"/>
        <pt x="168" y="386" on="0"/>
        <pt x="119" y="462" on="0"/>
        <pt x="119" y="511" on="1"/>
        <pt x="119" y="553" on="0"/>
        <pt x="150" y="627" on="0"/>
        <pt x="208" y="681" on="0"/>
        <pt x="292" y="712" on="0"/>
        <pt x="345" y="712" on="1"/>
        <pt x="430" y="712" on="0"/>
        <pt x="512" y="638" on="0"/>
        <pt x="512" y="576" on="1"/>
        <pt x="512" y="546" on="0"/>
        <pt x="487" y="488" on="0"/>
        <pt x="441" y="436" on="0"/>
        <pt x="375" y="394" on="0"/>
        <pt x="335" y="380" on="1"/>
        <pt x="363" y="361" on="0"/>
        <pt x="407" y="324" on="0"/>
        <pt x="438" y="281" on="0"/>
        <pt x="455" y="229" on="0"/>
        <pt x="455" y="195" on="1"/>
        <pt x="455" y="157" on="0"/>
        <pt x="423" y="82" on="0"/>
        <pt x="359" y="24" on="0"/>
        <pt x="262" y="-12" on="0"/>
        <pt x="198" y="-12" on="1"/>
        <pt x="110" y="-12" on="0"/>
        <pt x="12" y="69" on="0"/>
      </contour>
      <contour>
        <pt x="369" y="180" on="1"/>
        <pt x="369" y="206" on="0"/>
        <pt x="349" y="248" on="0"/>
        <pt x="315" y="285" on="0"/>
        <pt x="267" y="319" on="0"/>
        <pt x="239" y="336" on="1"/>
        <pt x="195" y="313" on="0"/>
        <pt x="140" y="261" on="0"/>
        <pt x="109" y="209" on="0"/>
        <pt x="98" y="160" on="0"/>
        <pt x="98" y="141" on="1"/>
        <pt x="98" y="93" on="0"/>
        <pt x="158" y="34" on="0"/>
        <pt x="209" y="34" on="1"/>
        <pt x="252" y="34" on="0"/>
        <pt x="313" y="61" on="0"/>
        <pt x="351" y="103" on="0"/>
        <pt x="369" y="155" on="0"/>
      </contour>
      <contour>
        <pt x="205" y="528" on="1"/>
        <pt x="205" y="508" on="0"/>
        <pt x="224" y="470" on="0"/>
        <pt x="254" y="435" on="0"/>
        <pt x="293" y="405" on="0"/>
        <pt x="314" y="393" on="1"/>
        <pt x="374" y="438" on="0"/>
        <pt x="427" y="528" on="0"/>
        <pt x="426" y="570" on="1"/>
        <pt x="427" y="610" on="0"/>
        <pt x="383" y="665" on="0"/>
        <pt x="330" y="665" on="1"/>
        <pt x="300" y="665" on="0"/>
        <pt x="253" y="643" on="0"/>
        <pt x="221" y="605" on="0"/>
        <pt x="205" y="555" on="0"/>
      </contour>
    </TTGlyph>
    <TTGlyph name="ellipsis" xMin="29" yMin="-8" xMax="771" yMax="123">
      <component glyphName="period" x="605" y="0" flags="0x4"/>
      <component glyphName="period" x="302" y="0" flags="0x4"/>
      <component glyphName="period" x="0" y="0" flags="0x4"/>
    </TTGlyph>
    <TTGlyph name="emdash" xMin="65" yMin="250" xMax="822" yMax="313">
      <contour>
        <pt x="80" y="313" on="1"/>
        <pt x="822" y="313" on="1"/>
        <pt x="807" y="250" on="1"/>
        <pt x="65" y="250" on="1"/>
      </contour>
    </TTGlyph>
    <TTGlyph name="endash" xMin="65" yMin="250" xMax="562" yMax="313">
      <contour>
        <pt x="80" y="313" on="1"/>
        <pt x="562" y="313" on="1"/>
        <pt x="547" y="250" on="1"/>
        <pt x="65" y="250" on="1"/>
      </contour>
    </TTGlyph>
    <TTGlyph name="equal" xMin="13" yMin="237" xMax="463" yMax="450">
      <component glyphName="minus" x="-24" y="80" flags="0x204"/>
      <component glyphName="minus" x="-24" y="-80" flags="0x4"/>
    </TTGlyph>
    <TTGlyph name="eth" xMin="29" yMin="-12" xMax="529" yMax="750">
      <contour>
        <pt x="227" y="609" on="1"/>
        <pt x="338" y="659" on="1"/>
        <pt x="317" y="686" on="0"/>
        <pt x="265" y="721" on="0"/>
        <pt x="238" y="729" on="1"/>
        <pt x="238" y="750" on="1"/>
        <pt x="328" y="750" on="1"/>
        <pt x="346" y="743" on="0"/>
        <pt x="389" y="714" on="0"/>
        <pt x="409" y="691" on="1"/>
        <pt x="508" y="736" on="1"/>
        <pt x="529" y="698" on="1"/>
        <pt x="434" y="654" on="1"/>
        <pt x="454" y="621" on="0"/>
        <pt x="479" y="529" on="0"/>
        <pt x="479" y="467" on="1"/>
        <pt x="479" y="365" on="0"/>
        <pt x="430" y="190" on="0"/>
        <pt x="348" y="61" on="0"/>
        <pt x="237" y="-12" on="0"/>
        <pt x="176" y="-12" on="1"/>
        <pt x="104" y="-12" on="0"/>
        <pt x="29" y="83" on="0"/>
        <pt x="29" y="168" on="1"/>
        <pt x="29" y="229" on="0"/>
        <pt x="70" y="350" on="0"/>
        <pt x="147" y="446" on="0"/>
        <pt x="256" y="506" on="0"/>
        <pt x="324" y="506" on="1"/>
        <pt x="342" y="506" on="0"/>
        <pt x="378" y="498" on="0"/>
        <pt x="389" y="490" on="1"/>
        <pt x="389" y="530" on="0"/>
        <pt x="374" y="595" on="0"/>
        <pt x="360" y="622" on="1"/>
        <pt x="250" y="572" on="1"/>
      </contour>
      <contour>
        <pt x="314" y="463" on="1"/>
        <pt x="259" y="463" on="0"/>
        <pt x="185" y="402" on="0"/>
        <pt x="139" y="312" on="0"/>
        <pt x="119" y="208" on="0"/>
        <pt x="119" y="163" on="1"/>
        <pt x="119" y="140" on="0"/>
        <pt x="125" y="94" on="0"/>
        <pt x="143" y="55" on="0"/>
        <pt x="175" y="31" on="0"/>
        <pt x="201" y="31" on="1"/>
        <pt x="234" y="31" on="0"/>
        <pt x="301" y="94" on="0"/>
        <pt x="355" y="205" on="0"/>
        <pt x="389" y="355" on="0"/>
        <pt x="389" y="443" on="1"/>
        <pt x="367" y="455" on="0"/>
        <pt x="333" y="463" on="0"/>
      </contour>
    </TTGlyph>
    <TTGlyph name="exclam" xMin="68" yMin="-8" xMax="306" yMax="701">
      <contour>
        <pt x="146" y="218" on="1"/>
        <pt x="150" y="394" on="1"/>
        <pt x="210" y="690" on="1"/>
        <pt x="234" y="701" on="0"/>
        <pt x="260" y="701" on="1"/>
        <pt x="286" y="701" on="0"/>
        <pt x="306" y="690" on="1"/>
        <pt x="240" y="394" on="1"/>
        <pt x="172" y="218" on="1"/>
      </contour>
      <contour>
        <pt x="68" y="57" on="1"/>
        <pt x="68" y="87" on="0"/>
        <pt x="106" y="123" on="0"/>
        <pt x="136" y="123" on="1"/>
        <pt x="167" y="123" on="0"/>
        <pt x="205" y="87" on="0"/>
        <pt x="205" y="57" on="1"/>
        <pt x="205" y="28" on="0"/>
        <pt x="167" y="-8" on="0"/>
        <pt x="136" y="-8" on="1"/>
        <pt x="106" y="-8" on="0"/>
        <pt x="68" y="28" on="0"/>
      </contour>
    </TTGlyph>
    <TTGlyph name="exclamdown" xMin="37" yMin="-197" xMax="279" yMax="512">
      <contour>
        <pt x="197" y="286" on="1"/>
        <pt x="192" y="110" on="1"/>
        <pt x="133" y="-186" on="1"/>
        <pt x="121" y="-192" on="0"/>
        <pt x="95" y="-197" on="0"/>
        <pt x="83" y="-197" on="1"/>
        <pt x="69" y="-197" on="0"/>
        <pt x="46" y="-192" on="0"/>
        <pt x="37" y="-186" on="1"/>
        <pt x="102" y="110" on="1"/>
        <pt x="171" y="286" on="1"/>
      </contour>
      <contour>
        <pt x="142" y="446" on="1"/>
        <pt x="142" y="476" on="0"/>
        <pt x="180" y="512" on="0"/>
        <pt x="210" y="512" on="1"/>
        <pt x="241" y="512" on="0"/>
        <pt x="279" y="476" on="0"/>
        <pt x="279" y="446" on="1"/>
        <pt x="279" y="417" on="0"/>
        <pt x="241" y="381" on="0"/>
        <pt x="210" y="381" on="1"/>
        <pt x="180" y="381" on="0"/>
        <pt x="142" y="417" on="0"/>
      </contour>
    </TTGlyph>
    <TTGlyph name="f" xMin="-52" yMin="-212" xMax="459" yMax="752">
      <contour>
        <pt x="129" y="450" on="1"/>
        <pt x="56" y="450" on="1"/>
        <pt x="56" y="476" on="1"/>
        <pt x="76" y="487" on="0"/>
        <pt x="121" y="504" on="0"/>
        <pt x="141" y="509" on="1"/>
        <pt x="148" y="544" on="1"/>
        <pt x="161" y="606" on="0"/>
        <pt x="206" y="687" on="0"/>
        <pt x="266" y="734" on="0"/>
        <pt x="338" y="752" on="0"/>
        <pt x="379" y="752" on="1"/>
        <pt x="396" y="752" on="0"/>
        <pt x="443" y="744" on="0"/>
        <pt x="459" y="736" on="1"/>
        <pt x="457" y="714" on="0"/>
        <pt x="440" y="667" on="0"/>
        <pt x="420" y="650" on="1"/>
        <pt x="344" y="712" on="1"/>
        <pt x="326" y="707" on="0"/>
        <pt x="296" y="695" on="0"/>
        <pt x="269" y="662" on="0"/>
        <pt x="245" y="602" on="0"/>
        <pt x="234" y="550" on="1"/>
        <pt x="224" y="500" on="1"/>
        <pt x="335" y="500" on="1"/>
        <pt x="340" y="475" on="0"/>
        <pt x="325" y="450" on="1"/>
        <pt x="214" y="450" on="1"/>
        <pt x="150" y="43" on="1"/>
        <pt x="139" y="-28" on="0"/>
        <pt x="87" y="-122" on="0"/>
        <pt x="28" y="-180" on="0"/>
        <pt x="-28" y="-208" on="0"/>
        <pt x="-43" y="-212" on="1"/>
        <pt x="-52" y="-190" on="1"/>
        <pt x="-40" y="-184" on="0"/>
        <pt x="-6" y="-153" on="0"/>
        <pt x="27" y="-101" on="0"/>
        <pt x="56" y="-26" on="0"/>
        <pt x="64" y="24" on="1"/>
      </contour>
    </TTGlyph>
    <TTGlyph name="fi" xMin="-52" yMin="-212" xMax="520" yMax="752">
      <contour>
        <pt x="284" y="500" on="1"/>
        <pt x="305" y="500" on="0"/>
        <pt x="355" y="502" on="0"/>
        <pt x="404" y="505" on="0"/>
        <pt x="449" y="510" on="0"/>
        <pt x="465" y="512" on="1"/>
        <pt x="483" y="500" on="1"/>
        <pt x="399" y="56" on="1"/>
        <pt x="473" y="56" on="1"/>
        <pt x="473" y="30" on="1"/>
        <pt x="452" y="14" on="0"/>
        <pt x="396" y="-6" on="0"/>
        <pt x="369" y="-6" on="1"/>
        <pt x="340" y="-6" on="0"/>
        <pt x="315" y="20" on="0"/>
        <pt x="315" y="37" on="1"/>
        <pt x="315" y="57" on="0"/>
        <pt x="321" y="95" on="0"/>
        <pt x="326" y="118" on="1"/>
        <pt x="390" y="450" on="1"/>
        <pt x="214" y="450" on="1"/>
        <pt x="150" y="43" on="1"/>
        <pt x="139" y="-28" on="0"/>
        <pt x="87" y="-122" on="0"/>
        <pt x="28" y="-180" on="0"/>
        <pt x="-28" y="-208" on="0"/>
        <pt x="-43" y="-212" on="1"/>
        <pt x="-52" y="-190" on="1"/>
        <pt x="-40" y="-184" on="0"/>
        <pt x="-6" y="-153" on="0"/>
        <pt x="27" y="-101" on="0"/>
        <pt x="56" y="-26" on="0"/>
        <pt x="64" y="24" on="1"/>
        <pt x="129" y="450" on="1"/>
        <pt x="56" y="450" on="1"/>
        <pt x="56" y="476" on="1"/>
        <pt x="76" y="487" on="0"/>
        <pt x="121" y="504" on="0"/>
        <pt x="141" y="509" on="1"/>
        <pt x="148" y="544" on="1"/>
        <pt x="161" y="606" on="0"/>
        <pt x="207" y="687" on="0"/>
        <pt x="267" y="734" on="0"/>
        <pt x="341" y="752" on="0"/>
        <pt x="382" y="752" on="1"/>
        <pt x="424" y="752" on="0"/>
        <pt x="498" y="726" on="0"/>
        <pt x="520" y="710" on="1"/>
        <pt x="518" y="688" on="0"/>
        <pt x="487" y="633" on="0"/>
        <pt x="463" y="622" on="1"/>
        <pt x="383" y="712" on="1"/>
        <pt x="359" y="712" on="0"/>
        <pt x="315" y="700" on="0"/>
        <pt x="276" y="665" on="0"/>
        <pt x="245" y="602" on="0"/>
        <pt x="234" y="550" on="1"/>
        <pt x="224" y="500" on="1"/>
      </contour>
    </TTGlyph>
    <TTGlyph name="five" xMin="15" yMin="-12" xMax="566" yMax="755">
      <contour>
        <pt x="541" y="755" on="1"/>
        <pt x="566" y="755" on="1"/>
        <pt x="563" y="740" on="0"/>
        <pt x="552" y="703" on="0"/>
        <pt x="539" y="666" on="0"/>
        <pt x="524" y="632" on="0"/>
        <pt x="518" y="621" on="1"/>
        <pt x="271" y="621" on="1"/>
        <pt x="207" y="428" on="1"/>
        <pt x="256" y="428" on="1"/>
        <pt x="352" y="428" on="0"/>
        <pt x="457" y="342" on="0"/>
        <pt x="457" y="259" on="1"/>
        <pt x="457" y="199" on="0"/>
        <pt x="417" y="99" on="0"/>
        <pt x="344" y="27" on="0"/>
        <pt x="241" y="-12" on="0"/>
        <pt x="177" y="-12" on="1"/>
        <pt x="153" y="-12" on="0"/>
        <pt x="106" y="-5" on="0"/>
        <pt x="62" y="9" on="0"/>
        <pt x="27" y="28" on="0"/>
        <pt x="15" y="39" on="1"/>
        <pt x="62" y="129" on="1"/>
        <pt x="82" y="129" on="1"/>
        <pt x="87" y="122" on="0"/>
        <pt x="100" y="100" on="0"/>
        <pt x="114" y="76" on="0"/>
        <pt x="128" y="52" on="0"/>
        <pt x="134" y="43" on="1"/>
        <pt x="144" y="41" on="0"/>
        <pt x="168" y="35" on="0"/>
        <pt x="186" y="35" on="1"/>
        <pt x="234" y="35" on="0"/>
        <pt x="304" y="68" on="0"/>
        <pt x="349" y="124" on="0"/>
        <pt x="371" y="196" on="0"/>
        <pt x="371" y="234" on="1"/>
        <pt x="371" y="300" on="0"/>
        <pt x="284" y="356" on="0"/>
        <pt x="206" y="354" on="1"/>
        <pt x="135" y="353" on="1"/>
        <pt x="248" y="700" on="1"/>
        <pt x="487" y="700" on="1"/>
      </contour>
    </TTGlyph>
    <TTGlyph name="fl" xMin="-52" yMin="-212" xMax="539" yMax="752">
      <contour>
        <pt x="335" y="118" on="1"/>
        <pt x="354" y="213" on="0"/>
        <pt x="384" y="362" on="0"/>
        <pt x="406" y="476" on="0"/>
        <pt x="422" y="558" on="0"/>
        <pt x="427" y="587" on="1"/>
        <pt x="438" y="654" on="0"/>
        <pt x="441" y="676" on="1"/>
        <pt x="426" y="693" on="0"/>
        <pt x="388" y="713" on="0"/>
        <pt x="365" y="713" on="1"/>
        <pt x="345" y="713" on="0"/>
        <pt x="308" y="701" on="0"/>
        <pt x="274" y="666" on="0"/>
        <pt x="245" y="602" on="0"/>
        <pt x="234" y="550" on="1"/>
        <pt x="224" y="500" on="1"/>
        <pt x="333" y="500" on="1"/>
        <pt x="338" y="475" on="0"/>
        <pt x="323" y="450" on="1"/>
        <pt x="214" y="450" on="1"/>
        <pt x="200" y="360" on="0"/>
        <pt x="172" y="182" on="0"/>
        <pt x="158" y="91" on="1"/>
        <pt x="143" y="4" on="0"/>
        <pt x="93" y="-107" on="0"/>
        <pt x="36" y="-174" on="0"/>
        <pt x="-21" y="-205" on="0"/>
        <pt x="-43" y="-212" on="1"/>
        <pt x="-52" y="-190" on="1"/>
        <pt x="-40" y="-184" on="0"/>
        <pt x="-6" y="-153" on="0"/>
        <pt x="27" y="-101" on="0"/>
        <pt x="56" y="-26" on="0"/>
        <pt x="64" y="24" on="1"/>
        <pt x="129" y="450" on="1"/>
        <pt x="56" y="450" on="1"/>
        <pt x="56" y="476" on="1"/>
        <pt x="76" y="487" on="0"/>
        <pt x="121" y="504" on="0"/>
        <pt x="141" y="509" on="1"/>
        <pt x="148" y="544" on="1"/>
        <pt x="169" y="641" on="0"/>
        <pt x="275" y="752" on="0"/>
        <pt x="367" y="752" on="1"/>
        <pt x="385" y="752" on="0"/>
        <pt x="427" y="745" on="0"/>
        <pt x="444" y="738" on="1"/>
        <pt x="464" y="743" on="0"/>
        <pt x="503" y="751" on="0"/>
        <pt x="519" y="752" on="1"/>
        <pt x="539" y="741" on="1"/>
        <pt x="411" y="56" on="1"/>
        <pt x="484" y="56" on="1"/>
        <pt x="484" y="30" on="1"/>
        <pt x="464" y="14" on="0"/>
        <pt x="407" y="-6" on="0"/>
        <pt x="380" y="-6" on="1"/>
        <pt x="351" y="-6" on="0"/>
        <pt x="324" y="20" on="0"/>
        <pt x="324" y="37" on="1"/>
        <pt x="324" y="57" on="0"/>
        <pt x="330" y="95" on="0"/>
      </contour>
    </TTGlyph>
    <TTGlyph name="four" xMin="-17" yMin="0" xMax="519" yMax="712">
      <contour>
        <pt x="415" y="0" on="1"/>
        <pt x="156" y="0" on="1"/>
        <pt x="161" y="29" on="1"/>
        <pt x="187" y="37" on="0"/>
        <pt x="235" y="49" on="0"/>
        <pt x="259" y="53" on="1"/>
        <pt x="288" y="193" on="1"/>
        <pt x="-17" y="193" on="1"/>
        <pt x="-12" y="216" on="1"/>
        <pt x="463" y="712" on="1"/>
        <pt x="490" y="712" on="1"/>
        <pt x="391" y="245" on="1"/>
        <pt x="519" y="245" on="1"/>
        <pt x="507" y="193" on="1"/>
        <pt x="380" y="193" on="1"/>
        <pt x="350" y="53" on="1"/>
        <pt x="367" y="49" on="0"/>
        <pt x="403" y="37" on="0"/>
        <pt x="420" y="29" on="1"/>
      </contour>
      <contour>
        <pt x="354" y="502" on="1"/>
        <pt x="383" y="574" on="1"/>
        <pt x="380" y="574" on="1"/>
        <pt x="327" y="502" on="1"/>
        <pt x="110" y="271" on="1"/>
        <pt x="63" y="238" on="1"/>
        <pt x="136" y="245" on="1"/>
        <pt x="300" y="245" on="1"/>
      </contour>
    </TTGlyph>
    <TTGlyph name="fraction" xMin="-191" yMin="-7" xMax="508" yMax="710">
      <contour>
        <pt x="473" y="710" on="1"/>
        <pt x="508" y="679" on="1"/>
        <pt x="-157" y="-7" on="1"/>
        <pt x="-191" y="25" on="1"/>
      </contour>
    </TTGlyph>
    <TTGlyph name="g" xMin="-55" yMin="-212" xMax="538" yMax="529">
      <contour>
        <pt x="280" y="512" on="1"/>
        <pt x="328" y="512" on="0"/>
        <pt x="389" y="488" on="0"/>
        <pt x="406" y="474" on="1"/>
        <pt x="415" y="482" on="0"/>
        <pt x="445" y="498" on="0"/>
        <pt x="479" y="512" on="0"/>
        <pt x="515" y="524" on="0"/>
        <pt x="531" y="529" on="1"/>
        <pt x="534" y="524" on="0"/>
        <pt x="538" y="504" on="0"/>
        <pt x="537" y="480" on="0"/>
        <pt x="530" y="455" on="0"/>
        <pt x="523" y="445" on="1"/>
        <pt x="420" y="452" on="1"/>
        <pt x="423" y="443" on="0"/>
        <pt x="429" y="420" on="0"/>
        <pt x="429" y="406" on="1"/>
        <pt x="429" y="366" on="0"/>
        <pt x="396" y="298" on="0"/>
        <pt x="338" y="249" on="0"/>
        <pt x="261" y="221" on="0"/>
        <pt x="218" y="221" on="1"/>
        <pt x="201" y="221" on="0"/>
        <pt x="180" y="222" on="0"/>
        <pt x="167" y="225" on="1"/>
        <pt x="158" y="215" on="0"/>
        <pt x="127" y="188" on="0"/>
        <pt x="127" y="172" on="1"/>
        <pt x="127" y="155" on="0"/>
        <pt x="171" y="137" on="0"/>
        <pt x="238" y="122" on="0"/>
        <pt x="316" y="105" on="0"/>
        <pt x="383" y="76" on="0"/>
        <pt x="427" y="30" on="0"/>
        <pt x="427" y="-8" on="1"/>
        <pt x="427" y="-55" on="0"/>
        <pt x="374" y="-130" on="0"/>
        <pt x="287" y="-183" on="0"/>
        <pt x="176" y="-212" on="0"/>
        <pt x="119" y="-212" on="1"/>
        <pt x="73" y="-212" on="0"/>
        <pt x="7" y="-193" on="0"/>
        <pt x="-35" y="-160" on="0"/>
        <pt x="-55" y="-118" on="0"/>
        <pt x="-55" y="-95" on="1"/>
        <pt x="-55" y="-67" on="0"/>
        <pt x="-30" y="-19" on="0"/>
        <pt x="12" y="24" on="0"/>
        <pt x="66" y="60" on="0"/>
        <pt x="95" y="76" on="1"/>
        <pt x="80" y="84" on="0"/>
        <pt x="61" y="111" on="0"/>
        <pt x="61" y="128" on="1"/>
        <pt x="61" y="143" on="0"/>
        <pt x="81" y="176" on="0"/>
        <pt x="108" y="206" on="0"/>
        <pt x="135" y="228" on="0"/>
        <pt x="142" y="233" on="1"/>
        <pt x="130" y="236" on="0"/>
        <pt x="105" y="252" on="0"/>
        <pt x="83" y="278" on="0"/>
        <pt x="69" y="312" on="0"/>
        <pt x="69" y="333" on="1"/>
        <pt x="69" y="372" on="0"/>
        <pt x="102" y="438" on="0"/>
        <pt x="160" y="485" on="0"/>
        <pt x="236" y="512" on="0"/>
      </contour>
      <contour>
        <pt x="165" y="-169" on="1"/>
        <pt x="196" y="-169" on="0"/>
        <pt x="257" y="-151" on="0"/>
        <pt x="306" y="-118" on="0"/>
        <pt x="337" y="-69" on="0"/>
        <pt x="337" y="-38" on="1"/>
        <pt x="337" y="-8" on="0"/>
        <pt x="288" y="25" on="0"/>
        <pt x="218" y="45" on="0"/>
        <pt x="143" y="58" on="0"/>
        <pt x="116" y="67" on="1"/>
        <pt x="69" y="33" on="0"/>
        <pt x="34" y="-41" on="0"/>
        <pt x="35" y="-73" on="1"/>
        <pt x="34" y="-118" on="0"/>
        <pt x="105" y="-169" on="0"/>
      </contour>
      <contour>
        <pt x="272" y="472" on="1"/>
        <pt x="243" y="472" on="0"/>
        <pt x="198" y="450" on="0"/>
        <pt x="166" y="413" on="0"/>
        <pt x="150" y="363" on="0"/>
        <pt x="150" y="335" on="1"/>
        <pt x="150" y="297" on="0"/>
        <pt x="199" y="261" on="0"/>
        <pt x="227" y="261" on="1"/>
        <pt x="257" y="261" on="0"/>
        <pt x="300" y="282" on="0"/>
        <pt x="329" y="318" on="0"/>
        <pt x="343" y="364" on="0"/>
        <pt x="343" y="389" on="1"/>
        <pt x="343" y="426" on="0"/>
        <pt x="308" y="472" on="0"/>
      </contour>
    </TTGlyph>
    <TTGlyph name="germandbls" xMin="-52" yMin="-212" xMax="571" yMax="752">
      <contour>
        <pt x="282" y="387" on="1"/>
        <pt x="282" y="420" on="0"/>
        <pt x="308" y="481" on="0"/>
        <pt x="359" y="535" on="0"/>
        <pt x="433" y="577" on="0"/>
        <pt x="481" y="590" on="1"/>
        <pt x="485" y="612" on="0"/>
        <pt x="478" y="654" on="0"/>
        <pt x="454" y="687" on="0"/>
        <pt x="415" y="708" on="0"/>
        <pt x="389" y="709" on="1"/>
        <pt x="366" y="708" on="0"/>
        <pt x="318" y="694" on="0"/>
        <pt x="275" y="658" on="0"/>
        <pt x="242" y="597" on="0"/>
        <pt x="234" y="550" on="1"/>
        <pt x="150" y="43" on="1"/>
        <pt x="139" y="-28" on="0"/>
        <pt x="87" y="-122" on="0"/>
        <pt x="28" y="-180" on="0"/>
        <pt x="-28" y="-208" on="0"/>
        <pt x="-43" y="-212" on="1"/>
        <pt x="-52" y="-190" on="1"/>
        <pt x="-40" y="-184" on="0"/>
        <pt x="-6" y="-153" on="0"/>
        <pt x="27" y="-101" on="0"/>
        <pt x="56" y="-26" on="0"/>
        <pt x="64" y="24" on="1"/>
        <pt x="129" y="450" on="1"/>
        <pt x="56" y="450" on="1"/>
        <pt x="56" y="476" on="1"/>
        <pt x="76" y="487" on="0"/>
        <pt x="121" y="504" on="0"/>
        <pt x="141" y="509" on="1"/>
        <pt x="148" y="544" on="1"/>
        <pt x="160" y="606" on="0"/>
        <pt x="220" y="687" on="0"/>
        <pt x="295" y="734" on="0"/>
        <pt x="374" y="752" on="0"/>
        <pt x="407" y="752" on="1"/>
        <pt x="452" y="752" on="0"/>
        <pt x="515" y="730" on="0"/>
        <pt x="554" y="693" on="0"/>
        <pt x="571" y="643" on="0"/>
        <pt x="571" y="616" on="1"/>
        <pt x="571" y="606" on="0"/>
        <pt x="569" y="585" on="0"/>
        <pt x="567" y="574" on="1"/>
        <pt x="528" y="569" on="0"/>
        <pt x="457" y="544" on="0"/>
        <pt x="403" y="505" on="0"/>
        <pt x="370" y="449" on="0"/>
        <pt x="370" y="412" on="1"/>
        <pt x="370" y="388" on="0"/>
        <pt x="396" y="349" on="0"/>
        <pt x="435" y="314" on="0"/>
        <pt x="480" y="280" on="0"/>
        <pt x="519" y="237" on="0"/>
        <pt x="545" y="184" on="0"/>
        <pt x="545" y="149" on="1"/>
        <pt x="545" y="113" on="0"/>
        <pt x="512" y="54" on="0"/>
        <pt x="455" y="11" on="0"/>
        <pt x="380" y="-12" on="0"/>
        <pt x="338" y="-12" on="1"/>
        <pt x="296" y="-12" on="0"/>
        <pt x="228" y="4" on="0"/>
        <pt x="208" y="17" on="1"/>
        <pt x="213" y="44" on="0"/>
        <pt x="227" y="92" on="0"/>
        <pt x="249" y="112" on="1"/>
        <pt x="338" y="31" on="1"/>
        <pt x="358" y="31" on="0"/>
        <pt x="400" y="44" on="0"/>
        <pt x="433" y="70" on="0"/>
        <pt x="454" y="106" on="0"/>
        <pt x="455" y="129" on="1"/>
        <pt x="454" y="158" on="0"/>
        <pt x="429" y="201" on="0"/>
        <pt x="390" y="236" on="0"/>
        <pt x="346" y="268" on="0"/>
        <pt x="307" y="306" on="0"/>
        <pt x="282" y="353" on="0"/>
      </contour>
    </TTGlyph>
    <TTGlyph name="grave" xMin="137" yMin="576" xMax="325" yMax="768">
      <contour>
        <pt x="325" y="593" on="1"/>
        <pt x="303" y="576" on="1"/>
        <pt x="137" y="725" on="1"/>
        <pt x="137" y="745" on="1"/>
        <pt x="143" y="750" on="0"/>
        <pt x="170" y="759" on="0"/>
        <pt x="202" y="765" on="0"/>
        <pt x="231" y="768" on="0"/>
        <pt x="239" y="767" on="1"/>
      </contour>
    </TTGlyph>
    <TTGlyph name="greater" xMin="56" yMin="103" xMax="480" yMax="590">
      <contour>
        <pt x="480" y="369" on="1"/>
        <pt x="480" y="338" on="1"/>
        <pt x="95" y="103" on="1"/>
        <pt x="71" y="147" on="1"/>
        <pt x="321" y="298" on="1"/>
        <pt x="406" y="338" on="1"/>
        <pt x="322" y="369" on="1"/>
        <pt x="56" y="525" on="1"/>
        <pt x="96" y="590" on="1"/>
      </contour>
    </TTGlyph>
    <TTGlyph name="guillemotleft" xMin="46" yMin="55" xMax="473" yMax="466">
      <contour>
        <pt x="240" y="259" on="1"/>
        <pt x="452" y="464" on="1"/>
        <pt x="473" y="445" on="1"/>
        <pt x="325" y="258" on="1"/>
        <pt x="401" y="77" on="1"/>
        <pt x="372" y="57" on="1"/>
      </contour>
      <contour>
        <pt x="46" y="259" on="1"/>
        <pt x="303" y="466" on="1"/>
        <pt x="324" y="446" on="1"/>
        <pt x="143" y="257" on="1"/>
        <pt x="252" y="76" on="1"/>
        <pt x="222" y="55" on="1"/>
      </contour>
    </TTGlyph>
    <TTGlyph name="guillemotright" xMin="28" yMin="55" xMax="454" yMax="466">
      <contour>
        <pt x="261" y="262" on="1"/>
        <pt x="48" y="57" on="1"/>
        <pt x="28" y="76" on="1"/>
        <pt x="175" y="263" on="1"/>
        <pt x="100" y="444" on="1"/>
        <pt x="128" y="464" on="1"/>
      </contour>
      <contour>
        <pt x="454" y="262" on="1"/>
        <pt x="198" y="55" on="1"/>
        <pt x="177" y="75" on="1"/>
        <pt x="358" y="264" on="1"/>
        <pt x="249" y="445" on="1"/>
        <pt x="279" y="466" on="1"/>
      </contour>
    </TTGlyph>
    <TTGlyph name="guilsinglleft" xMin="46" yMin="57" xMax="281" yMax="464">
      <contour>
        <pt x="46" y="259" on="1"/>
        <pt x="261" y="464" on="1"/>
        <pt x="281" y="445" on="1"/>
        <pt x="137" y="258" on="1"/>
        <pt x="209" y="77" on="1"/>
        <pt x="181" y="57" on="1"/>
      </contour>
    </TTGlyph>
    <TTGlyph name="guilsinglright" xMin="28" yMin="58" xMax="269" yMax="464">
      <contour>
        <pt x="47" y="58" on="1"/>
        <pt x="28" y="77" on="1"/>
        <pt x="179" y="269" on="1"/>
        <pt x="111" y="445" on="1"/>
        <pt x="140" y="464" on="1"/>
        <pt x="269" y="260" on="1"/>
      </contour>
    </TTGlyph>
    <TTGlyph name="h" xMin="34" yMin="-6" xMax="481" yMax="752">
      <contour>
        <pt x="103" y="691" on="1"/>
        <pt x="103" y="714" on="1"/>
        <pt x="118" y="720" on="0"/>
        <pt x="155" y="733" on="0"/>
        <pt x="195" y="744" on="0"/>
        <pt x="233" y="751" on="0"/>
        <pt x="250" y="752" on="1"/>
        <pt x="271" y="743" on="1"/>
        <pt x="181" y="323" on="1"/>
        <pt x="186" y="323" on="1"/>
        <pt x="205" y="363" on="0"/>
        <pt x="253" y="432" on="0"/>
        <pt x="306" y="483" on="0"/>
        <pt x="364" y="512" on="0"/>
        <pt x="394" y="512" on="1"/>
        <pt x="440" y="512" on="0"/>
        <pt x="481" y="459" on="0"/>
        <pt x="481" y="420" on="1"/>
        <pt x="481" y="393" on="0"/>
        <pt x="471" y="331" on="0"/>
        <pt x="464" y="302" on="1"/>
        <pt x="407" y="56" on="1"/>
        <pt x="481" y="56" on="1"/>
        <pt x="481" y="30" on="1"/>
        <pt x="461" y="14" on="0"/>
        <pt x="405" y="-6" on="0"/>
        <pt x="377" y="-6" on="1"/>
        <pt x="348" y="-6" on="0"/>
        <pt x="326" y="18" on="0"/>
        <pt x="326" y="32" on="1"/>
        <pt x="326" y="50" on="0"/>
        <pt x="336" y="95" on="0"/>
        <pt x="341" y="118" on="1"/>
        <pt x="377" y="285" on="1"/>
        <pt x="384" y="316" on="0"/>
        <pt x="395" y="370" on="0"/>
        <pt x="395" y="395" on="1"/>
        <pt x="395" y="418" on="0"/>
        <pt x="375" y="450" on="0"/>
        <pt x="358" y="450" on="1"/>
        <pt x="327" y="450" on="0"/>
        <pt x="269" y="406" on="0"/>
        <pt x="219" y="344" on="0"/>
        <pt x="181" y="277" on="0"/>
        <pt x="171" y="255" on="1"/>
        <pt x="118" y="0" on="1"/>
        <pt x="34" y="0" on="1"/>
        <pt x="171" y="682" on="1"/>
      </contour>
    </TTGlyph>
    <TTGlyph name="hyphen" xMin="71" yMin="250" xMax="367" yMax="313">
      <contour>
        <pt x="85" y="313" on="1"/>
        <pt x="367" y="313" on="1"/>
        <pt x="354" y="250" on="1"/>
        <pt x="71" y="250" on="1"/>
      </contour>
    </TTGlyph>
    <TTGlyph name="i" xMin="54" yMin="-6" xMax="269" yMax="729">
      <component glyphName="dotlessi" x="1" y="0" flags="0x204"/>
      <component glyphName="dotaccent" x="-58" y="0" flags="0x4"/>
    </TTGlyph>
    <TTGlyph name="iacute" xMin="54" yMin="-6" xMax="371" yMax="768">
      <component glyphName="dotlessi" x="1" y="0" flags="0x204"/>
      <component glyphName="acute" x="-73" y="0" flags="0x4"/>
    </TTGlyph>
    <TTGlyph name="icircumflex" xMin="54" yMin="-6" xMax="335" yMax="796">
      <component glyphName="dotlessi" x="1" y="0" flags="0x204"/>
      <component glyphName="circumflex" x="-106" y="0" flags="0x4"/>
    </TTGlyph>
    <TTGlyph name="idieresis" xMin="45" yMin="-6" xMax="356" yMax="715">
      <component glyphName="dotlessi" x="1" y="0" flags="0x204"/>
      <component glyphName="dieresis" x="-134" y="0" flags="0x4"/>
    </TTGlyph>
    <TTGlyph name="igrave" xMin="53" yMin="-6" xMax="241" yMax="768">
      <component glyphName="dotlessi" x="1" y="0" flags="0x204"/>
      <component glyphName="grave" x="-84" y="0" flags="0x4"/>
    </TTGlyph>
    <TTGlyph name="j" xMin="-73" yMin="-212" xMax="264" yMax="729">
      <component glyphName="uni0237" x="0" y="0" flags="0x204"/>
      <component glyphName="dotaccent" x="-63" y="0" flags="0x4"/>
    </TTGlyph>
    <TTGlyph name="k" xMin="34" yMin="-6" xMax="482" yMax="752">
      <contour>
        <pt x="299" y="45" on="1"/>
        <pt x="267" y="99" on="0"/>
        <pt x="223" y="196" on="0"/>
        <pt x="203" y="238" on="1"/>
        <pt x="167" y="248" on="1"/>
        <pt x="120" y="0" on="1"/>
        <pt x="34" y="0" on="1"/>
        <pt x="170" y="682" on="1"/>
        <pt x="100" y="691" on="1"/>
        <pt x="100" y="716" on="1"/>
        <pt x="129" y="729" on="0"/>
        <pt x="212" y="750" on="0"/>
        <pt x="247" y="752" on="1"/>
        <pt x="268" y="741" on="1"/>
        <pt x="174" y="274" on="1"/>
        <pt x="203" y="274" on="1"/>
        <pt x="224" y="287" on="0"/>
        <pt x="269" y="325" on="0"/>
        <pt x="310" y="365" on="0"/>
        <pt x="342" y="402" on="0"/>
        <pt x="351" y="415" on="1"/>
        <pt x="352" y="422" on="0"/>
        <pt x="353" y="446" on="0"/>
        <pt x="352" y="471" on="0"/>
        <pt x="351" y="494" on="0"/>
        <pt x="350" y="500" on="1"/>
        <pt x="387" y="513" on="0"/>
        <pt x="422" y="513" on="1"/>
        <pt x="458" y="513" on="0"/>
        <pt x="482" y="500" on="1"/>
        <pt x="469" y="467" on="0"/>
        <pt x="415" y="401" on="0"/>
        <pt x="353" y="344" on="0"/>
        <pt x="293" y="297" on="0"/>
        <pt x="275" y="284" on="1"/>
        <pt x="282" y="265" on="0"/>
        <pt x="313" y="204" on="0"/>
        <pt x="350" y="138" on="0"/>
        <pt x="391" y="76" on="0"/>
        <pt x="408" y="56" on="1"/>
        <pt x="471" y="56" on="1"/>
        <pt x="471" y="30" on="1"/>
        <pt x="451" y="14" on="0"/>
        <pt x="404" y="-6" on="0"/>
        <pt x="378" y="-6" on="1"/>
        <pt x="354" y="-6" on="0"/>
        <pt x="316" y="16" on="0"/>
      </contour>
    </TTGlyph>
    <TTGlyph name="l" xMin="46" yMin="-6" xMax="271" yMax="752">
      <contour>
        <pt x="174" y="682" on="1"/>
        <pt x="103" y="691" on="1"/>
        <pt x="103" y="716" on="1"/>
        <pt x="117" y="722" on="0"/>
        <pt x="154" y="734" on="0"/>
        <pt x="195" y="745" on="0"/>
        <pt x="235" y="752" on="0"/>
        <pt x="251" y="752" on="1"/>
        <pt x="271" y="741" on="1"/>
        <pt x="133" y="56" on="1"/>
        <pt x="206" y="56" on="1"/>
        <pt x="206" y="30" on="1"/>
        <pt x="186" y="14" on="0"/>
        <pt x="129" y="-6" on="0"/>
        <pt x="102" y="-6" on="1"/>
        <pt x="73" y="-6" on="0"/>
        <pt x="46" y="20" on="0"/>
        <pt x="46" y="37" on="1"/>
        <pt x="46" y="57" on="0"/>
        <pt x="52" y="95" on="0"/>
        <pt x="57" y="118" on="1"/>
      </contour>
    </TTGlyph>
    <TTGlyph name="less" xMin="44" yMin="103" xMax="468" yMax="590">
      <contour>
        <pt x="44" y="324" on="1"/>
        <pt x="44" y="355" on="1"/>
        <pt x="429" y="590" on="1"/>
        <pt x="454" y="546" on="1"/>
        <pt x="204" y="395" on="1"/>
        <pt x="118" y="355" on="1"/>
        <pt x="203" y="324" on="1"/>
        <pt x="468" y="168" on="1"/>
        <pt x="428" y="103" on="1"/>
      </contour>
    </TTGlyph>
    <TTGlyph name="logicalnot" xMin="37" yMin="198" xMax="462" yMax="387">
      <contour>
        <pt x="37" y="387" on="1"/>
        <pt x="462" y="387" on="1"/>
        <pt x="462" y="198" on="1"/>
        <pt x="400" y="198" on="1"/>
        <pt x="400" y="324" on="1"/>
        <pt x="37" y="324" on="1"/>
      </contour>
    </TTGlyph>
    <TTGlyph name="m" xMin="43" yMin="-6" xMax="737" yMax="512">
      <contour>
        <pt x="633" y="300" on="1"/>
        <pt x="639" y="324" on="0"/>
        <pt x="650" y="376" on="0"/>
        <pt x="651" y="393" on="1"/>
        <pt x="650" y="419" on="0"/>
        <pt x="635" y="450" on="0"/>
        <pt x="612" y="450" on="1"/>
        <pt x="588" y="450" on="0"/>
        <pt x="538" y="412" on="0"/>
        <pt x="493" y="354" on="0"/>
        <pt x="456" y="286" on="0"/>
        <pt x="444" y="256" on="1"/>
        <pt x="383" y="0" on="1"/>
        <pt x="303" y="0" on="1"/>
        <pt x="366" y="281" on="1"/>
        <pt x="373" y="312" on="0"/>
        <pt x="383" y="369" on="0"/>
        <pt x="383" y="400" on="1"/>
        <pt x="383" y="423" on="0"/>
        <pt x="367" y="450" on="0"/>
        <pt x="347" y="450" on="1"/>
        <pt x="327" y="450" on="0"/>
        <pt x="279" y="412" on="0"/>
        <pt x="233" y="354" on="0"/>
        <pt x="194" y="286" on="0"/>
        <pt x="182" y="255" on="1"/>
        <pt x="129" y="0" on="1"/>
        <pt x="43" y="0" on="1"/>
        <pt x="136" y="442" on="1"/>
        <pt x="75" y="451" on="1"/>
        <pt x="75" y="476" on="1"/>
        <pt x="108" y="493" on="0"/>
        <pt x="185" y="512" on="0"/>
        <pt x="213" y="512" on="1"/>
        <pt x="234" y="500" on="1"/>
        <pt x="190" y="323" on="1"/>
        <pt x="194" y="323" on="1"/>
        <pt x="206" y="351" on="0"/>
        <pt x="249" y="417" on="0"/>
        <pt x="305" y="474" on="0"/>
        <pt x="369" y="512" on="0"/>
        <pt x="401" y="512" on="1"/>
        <pt x="413" y="512" on="0"/>
        <pt x="437" y="504" on="0"/>
        <pt x="455" y="483" on="0"/>
        <pt x="467" y="447" on="0"/>
        <pt x="467" y="419" on="1"/>
        <pt x="467" y="397" on="0"/>
        <pt x="458" y="347" on="0"/>
        <pt x="452" y="323" on="1"/>
        <pt x="467" y="357" on="0"/>
        <pt x="513" y="424" on="0"/>
        <pt x="567" y="478" on="0"/>
        <pt x="628" y="512" on="0"/>
        <pt x="660" y="512" on="1"/>
        <pt x="698" y="512" on="0"/>
        <pt x="737" y="464" on="0"/>
        <pt x="737" y="422" on="1"/>
        <pt x="737" y="390" on="0"/>
        <pt x="725" y="333" on="0"/>
        <pt x="718" y="300" on="1"/>
        <pt x="653" y="56" on="1"/>
        <pt x="727" y="56" on="1"/>
        <pt x="727" y="30" on="1"/>
        <pt x="707" y="14" on="0"/>
        <pt x="649" y="-6" on="0"/>
        <pt x="623" y="-6" on="1"/>
        <pt x="594" y="-6" on="0"/>
        <pt x="572" y="20" on="0"/>
        <pt x="572" y="38" on="1"/>
        <pt x="572" y="67" on="0"/>
        <pt x="586" y="118" on="1"/>
      </contour>
    </TTGlyph>
    <TTGlyph name="macron" xMin="206" yMin="637" xMax="470" yMax="689">
      <contour>
        <pt x="206" y="637" on="1"/>
        <pt x="216" y="689" on="1"/>
        <pt x="470" y="689" on="1"/>
        <pt x="459" y="637" on="1"/>
      </contour>
    </TTGlyph>
    <TTGlyph name="minus" xMin="37" yMin="317" xMax="487" yMax="370">
      <contour>
        <pt x="37" y="370" on="1"/>
        <pt x="487" y="370" on="1"/>
        <pt x="487" y="317" on="1"/>
        <pt x="37" y="317" on="1"/>
      </contour>
    </TTGlyph>
    <TTGlyph name="mu" xMin="65" yMin="-213" xMax="579" yMax="512">
      <contour>
        <pt x="157" y="15" on="1"/>
        <pt x="161" y="-175" on="1"/>
        <pt x="156" y="-200" on="1"/>
        <pt x="105" y="-213" on="0"/>
        <pt x="65" y="-200" on="1"/>
        <pt x="200" y="442" on="1"/>
        <pt x="140" y="450" on="1"/>
        <pt x="140" y="476" on="1"/>
        <pt x="175" y="489" on="0"/>
        <pt x="245" y="507" on="0"/>
        <pt x="277" y="512" on="1"/>
        <pt x="300" y="501" on="1"/>
        <pt x="292" y="464" on="0"/>
        <pt x="278" y="402" on="0"/>
        <pt x="263" y="338" on="0"/>
        <pt x="247" y="265" on="0"/>
        <pt x="237" y="216" on="1"/>
        <pt x="229" y="177" on="0"/>
        <pt x="221" y="115" on="0"/>
        <pt x="224" y="72" on="0"/>
        <pt x="242" y="50" on="0"/>
        <pt x="261" y="50" on="1"/>
        <pt x="283" y="50" on="0"/>
        <pt x="335" y="84" on="0"/>
        <pt x="386" y="144" on="0"/>
        <pt x="434" y="225" on="0"/>
        <pt x="452" y="273" on="1"/>
        <pt x="494" y="496" on="1"/>
        <pt x="579" y="501" on="1"/>
        <pt x="496" y="56" on="1"/>
        <pt x="570" y="55" on="1"/>
        <pt x="569" y="29" on="1"/>
        <pt x="546" y="15" on="0"/>
        <pt x="507" y="-12" on="0"/>
        <pt x="487" y="-13" on="1"/>
        <pt x="474" y="-13" on="0"/>
        <pt x="464" y="-6" on="1"/>
        <pt x="411" y="31" on="1"/>
        <pt x="440" y="195" on="1"/>
        <pt x="436" y="195" on="1"/>
        <pt x="385" y="87" on="0"/>
        <pt x="280" y="-12" on="0"/>
        <pt x="220" y="-12" on="1"/>
        <pt x="203" y="-12" on="0"/>
        <pt x="179" y="0" on="0"/>
        <pt x="163" y="15" on="1"/>
      </contour>
    </TTGlyph>
    <TTGlyph name="multiply" xMin="83" yMin="164" xMax="441" yMax="522">
      <contour>
        <pt x="83" y="204" on="1"/>
        <pt x="223" y="344" on="1"/>
        <pt x="85" y="483" on="1"/>
        <pt x="122" y="520" on="1"/>
        <pt x="261" y="382" on="1"/>
        <pt x="401" y="522" on="1"/>
        <pt x="438" y="485" on="1"/>
        <pt x="298" y="345" on="1"/>
        <pt x="441" y="202" on="1"/>
        <pt x="403" y="164" on="1"/>
        <pt x="260" y="307" on="1"/>
        <pt x="120" y="167" on="1"/>
      </contour>
    </TTGlyph>
    <TTGlyph name="n" xMin="43" yMin="-6" xMax="490" yMax="512">
      <contour>
        <pt x="386" y="285" on="1"/>
        <pt x="393" y="316" on="0"/>
        <pt x="404" y="369" on="0"/>
        <pt x="404" y="395" on="1"/>
        <pt x="404" y="418" on="0"/>
        <pt x="383" y="450" on="0"/>
        <pt x="360" y="450" on="1"/>
        <pt x="333" y="450" on="0"/>
        <pt x="277" y="406" on="0"/>
        <pt x="229" y="344" on="0"/>
        <pt x="190" y="277" on="0"/>
        <pt x="180" y="255" on="1"/>
        <pt x="127" y="0" on="1"/>
        <pt x="43" y="0" on="1"/>
        <pt x="131" y="442" on="1"/>
        <pt x="70" y="451" on="1"/>
        <pt x="72" y="476" on="1"/>
        <pt x="86" y="483" on="0"/>
        <pt x="121" y="496" on="0"/>
        <pt x="158" y="506" on="0"/>
        <pt x="193" y="512" on="0"/>
        <pt x="208" y="512" on="1"/>
        <pt x="228" y="500" on="1"/>
        <pt x="190" y="323" on="1"/>
        <pt x="195" y="323" on="1"/>
        <pt x="214" y="363" on="0"/>
        <pt x="263" y="432" on="0"/>
        <pt x="318" y="483" on="0"/>
        <pt x="378" y="512" on="0"/>
        <pt x="409" y="512" on="1"/>
        <pt x="451" y="512" on="0"/>
        <pt x="490" y="459" on="0"/>
        <pt x="490" y="419" on="1"/>
        <pt x="490" y="397" on="0"/>
        <pt x="480" y="331" on="0"/>
        <pt x="473" y="302" on="1"/>
        <pt x="416" y="56" on="1"/>
        <pt x="490" y="56" on="1"/>
        <pt x="490" y="30" on="1"/>
        <pt x="470" y="14" on="0"/>
        <pt x="413" y="-6" on="0"/>
        <pt x="386" y="-6" on="1"/>
        <pt x="357" y="-6" on="0"/>
        <pt x="335" y="18" on="0"/>
        <pt x="335" y="32" on="1"/>
        <pt x="335" y="51" on="0"/>
        <pt x="345" y="96" on="0"/>
        <pt x="350" y="119" on="1"/>
      </contour>
    </TTGlyph>
    <TTGlyph name="nine" xMin="39" yMin="-12" xMax="522" yMax="718">
      <contour>
        <pt x="61" y="442" on="1"/>
        <pt x="61" y="489" on="0"/>
        <pt x="94" y="587" on="0"/>
        <pt x="162" y="667" on="0"/>
        <pt x="265" y="718" on="0"/>
        <pt x="336" y="718" on="1"/>
        <pt x="371" y="718" on="0"/>
        <pt x="438" y="699" on="0"/>
        <pt x="490" y="653" on="0"/>
        <pt x="522" y="578" on="0"/>
        <pt x="522" y="523" on="1"/>
        <pt x="522" y="442" on="0"/>
        <pt x="456" y="275" on="0"/>
        <pt x="331" y="128" on="0"/>
        <pt x="154" y="15" on="0"/>
        <pt x="43" y="-12" on="1"/>
        <pt x="39" y="17" on="1"/>
        <pt x="172" y="65" on="0"/>
        <pt x="350" y="234" on="0"/>
        <pt x="395" y="361" on="1"/>
        <pt x="371" y="332" on="0"/>
        <pt x="283" y="289" on="0"/>
        <pt x="229" y="289" on="1"/>
        <pt x="141" y="289" on="0"/>
        <pt x="61" y="373" on="0"/>
      </contour>
      <contour>
        <pt x="157" y="451" on="1"/>
        <pt x="157" y="398" on="0"/>
        <pt x="205" y="341" on="0"/>
        <pt x="265" y="341" on="1"/>
        <pt x="310" y="341" on="0"/>
        <pt x="386" y="388" on="0"/>
        <pt x="409" y="418" on="1"/>
        <pt x="412" y="426" on="0"/>
        <pt x="418" y="453" on="0"/>
        <pt x="423" y="481" on="0"/>
        <pt x="426" y="507" on="0"/>
        <pt x="426" y="515" on="1"/>
        <pt x="426" y="546" on="0"/>
        <pt x="416" y="603" on="0"/>
        <pt x="392" y="646" on="0"/>
        <pt x="351" y="671" on="0"/>
        <pt x="320" y="671" on="1"/>
        <pt x="277" y="671" on="0"/>
        <pt x="215" y="626" on="0"/>
        <pt x="176" y="560" on="0"/>
        <pt x="157" y="483" on="0"/>
      </contour>
    </TTGlyph>
    <TTGlyph name="ntilde" xMin="43" yMin="-6" xMax="500" yMax="712">
      <component glyphName="n" x="0" y="0" flags="0x204"/>
      <component glyphName="tilde" x="68" y="0" flags="0x4"/>
    </TTGlyph>
    <TTGlyph name="numbersign" xMin="31" yMin="58" xMax="547" yMax="642">
      <contour>
        <pt x="307" y="233" on="1"/>
        <pt x="164" y="233" on="1"/>
        <pt x="86" y="58" on="1"/>
        <pt x="33" y="58" on="1"/>
        <pt x="112" y="233" on="1"/>
        <pt x="31" y="233" on="1"/>
        <pt x="56" y="279" on="1"/>
        <pt x="132" y="279" on="1"/>
        <pt x="200" y="429" on="1"/>
        <pt x="123" y="429" on="1"/>
        <pt x="147" y="475" on="1"/>
        <pt x="220" y="475" on="1"/>
        <pt x="296" y="642" on="1"/>
        <pt x="348" y="642" on="1"/>
        <pt x="273" y="475" on="1"/>
        <pt x="415" y="475" on="1"/>
        <pt x="491" y="642" on="1"/>
        <pt x="543" y="642" on="1"/>
        <pt x="467" y="475" on="1"/>
        <pt x="547" y="475" on="1"/>
        <pt x="520" y="429" on="1"/>
        <pt x="447" y="429" on="1"/>
        <pt x="379" y="279" on="1"/>
        <pt x="456" y="279" on="1"/>
        <pt x="428" y="233" on="1"/>
        <pt x="359" y="233" on="1"/>
        <pt x="280" y="58" on="1"/>
        <pt x="228" y="58" on="1"/>
      </contour>
      <contour>
        <pt x="185" y="279" on="1"/>
        <pt x="327" y="279" on="1"/>
        <pt x="395" y="429" on="1"/>
        <pt x="253" y="429" on="1"/>
      </contour>
    </TTGlyph>
    <TTGlyph name="o" xMin="41" yMin="-12" xMax="469" yMax="512">
      <contour>
        <pt x="41" y="186" on="1"/>
        <pt x="41" y="239" on="0"/>
        <pt x="74" y="354" on="0"/>
        <pt x="142" y="450" on="0"/>
        <pt x="244" y="512" on="0"/>
        <pt x="312" y="512" on="1"/>
        <pt x="390" y="512" on="0"/>
        <pt x="469" y="416" on="0"/>
        <pt x="469" y="322" on="1"/>
        <pt x="469" y="256" on="0"/>
        <pt x="431" y="135" on="0"/>
        <pt x="363" y="43" on="0"/>
        <pt x="267" y="-12" on="0"/>
        <pt x="209" y="-12" on="1"/>
        <pt x="132" y="-12" on="0"/>
        <pt x="41" y="87" on="0"/>
      </contour>
      <contour>
        <pt x="292" y="469" on="1"/>
        <pt x="243" y="468" on="0"/>
        <pt x="181" y="406" on="0"/>
        <pt x="145" y="314" on="0"/>
        <pt x="131" y="208" on="0"/>
        <pt x="131" y="164" on="1"/>
        <pt x="131" y="105" on="0"/>
        <pt x="183" y="31" on="0"/>
        <pt x="227" y="31" on="1"/>
        <pt x="262" y="31" on="0"/>
        <pt x="317" y="84" on="0"/>
        <pt x="356" y="171" on="0"/>
        <pt x="377" y="281" on="0"/>
        <pt x="377" y="337" on="1"/>
        <pt x="377" y="396" on="0"/>
        <pt x="336" y="468" on="0"/>
      </contour>
    </TTGlyph>
    <TTGlyph name="oacute" xMin="41" yMin="-12" xMax="480" yMax="768">
      <component glyphName="o" x="0" y="0" flags="0x204"/>
      <component glyphName="acute" x="36" y="0" flags="0x4"/>
    </TTGlyph>
    <TTGlyph name="ocircumflex" xMin="41" yMin="-12" xMax="469" yMax="796">
      <component glyphName="o" x="0" y="0" flags="0x204"/>
      <component glyphName="circumflex" x="8" y="0" flags="0x4"/>
    </TTGlyph>
    <TTGlyph name="odieresis" xMin="41" yMin="-12" xMax="472" yMax="715">
      <component glyphName="o" x="0" y="0" flags="0x204"/>
      <component glyphName="dieresis" x="-18" y="0" flags="0x4"/>
    </TTGlyph>
    <TTGlyph name="oe" xMin="41" yMin="-12" xMax="758" yMax="512">
      <contour>
        <pt x="292" y="469" on="1"/>
        <pt x="243" y="468" on="0"/>
        <pt x="181" y="406" on="0"/>
        <pt x="145" y="314" on="0"/>
        <pt x="131" y="208" on="0"/>
        <pt x="131" y="164" on="1"/>
        <pt x="131" y="105" on="0"/>
        <pt x="183" y="31" on="0"/>
        <pt x="227" y="31" on="1"/>
        <pt x="262" y="31" on="0"/>
        <pt x="317" y="84" on="0"/>
        <pt x="356" y="171" on="0"/>
        <pt x="377" y="281" on="0"/>
        <pt x="377" y="337" on="1"/>
        <pt x="377" y="396" on="0"/>
        <pt x="336" y="468" on="0"/>
      </contour>
      <contour>
        <pt x="384" y="74" on="1"/>
        <pt x="365" y="50" on="0"/>
        <pt x="320" y="17" on="0"/>
        <pt x="274" y="-3" on="0"/>
        <pt x="228" y="-12" on="0"/>
        <pt x="209" y="-12" on="1"/>
        <pt x="132" y="-12" on="0"/>
        <pt x="41" y="87" on="0"/>
        <pt x="41" y="186" on="1"/>
        <pt x="41" y="239" on="0"/>
        <pt x="74" y="354" on="0"/>
        <pt x="142" y="450" on="0"/>
        <pt x="244" y="512" on="0"/>
        <pt x="312" y="512" on="1"/>
        <pt x="360" y="512" on="0"/>
        <pt x="436" y="468" on="0"/>
        <pt x="450" y="425" on="1"/>
        <pt x="493" y="474" on="0"/>
        <pt x="593" y="512" on="0"/>
        <pt x="641" y="512" on="1"/>
        <pt x="690" y="512" on="0"/>
        <pt x="758" y="463" on="0"/>
        <pt x="758" y="415" on="1"/>
        <pt x="758" y="344" on="0"/>
        <pt x="618" y="262" on="0"/>
        <pt x="461" y="250" on="1"/>
        <pt x="457" y="233" on="0"/>
        <pt x="454" y="201" on="0"/>
        <pt x="454" y="186" on="1"/>
        <pt x="454" y="126" on="0"/>
        <pt x="514" y="50" on="0"/>
        <pt x="573" y="50" on="1"/>
        <pt x="593" y="50" on="0"/>
        <pt x="630" y="62" on="0"/>
        <pt x="662" y="80" on="0"/>
        <pt x="689" y="100" on="0"/>
        <pt x="699" y="108" on="1"/>
        <pt x="715" y="89" on="1"/>
        <pt x="706" y="70" on="0"/>
        <pt x="672" y="34" on="0"/>
        <pt x="626" y="5" on="0"/>
        <pt x="569" y="-12" on="0"/>
        <pt x="536" y="-12" on="1"/>
        <pt x="472" y="-12" on="0"/>
        <pt x="399" y="41" on="0"/>
      </contour>
      <contour>
        <pt x="611" y="468" on="1"/>
        <pt x="567" y="468" on="0"/>
        <pt x="493" y="389" on="0"/>
        <pt x="468" y="293" on="1"/>
        <pt x="565" y="296" on="0"/>
        <pt x="672" y="357" on="0"/>
        <pt x="672" y="411" on="1"/>
        <pt x="672" y="432" on="0"/>
        <pt x="647" y="468" on="0"/>
      </contour>
    </TTGlyph>
    <TTGlyph name="ograve" xMin="41" yMin="-12" xMax="469" yMax="768">
      <component glyphName="o" x="0" y="0" flags="0x204"/>
      <component glyphName="grave" x="26" y="0" flags="0x4"/>
    </TTGlyph>
    <TTGlyph name="one" xMin="86" yMin="0" xMax="429" yMax="712">
      <contour>
        <pt x="378" y="0" on="1"/>
        <pt x="86" y="0" on="1"/>
        <pt x="92" y="29" on="1"/>
        <pt x="119" y="41" on="0"/>
        <pt x="174" y="57" on="0"/>
        <pt x="202" y="63" on="1"/>
        <pt x="306" y="554" on="1"/>
        <pt x="325" y="613" on="1"/>
        <pt x="296" y="602" on="0"/>
        <pt x="230" y="593" on="0"/>
        <pt x="198" y="594" on="1"/>
        <pt x="198" y="618" on="1"/>
        <pt x="247" y="633" on="0"/>
        <pt x="355" y="677" on="0"/>
        <pt x="404" y="712" on="1"/>
        <pt x="429" y="712" on="1"/>
        <pt x="292" y="63" on="1"/>
        <pt x="341" y="52" on="0"/>
        <pt x="384" y="29" on="1"/>
      </contour>
    </TTGlyph>
    <TTGlyph name="one.numerator" xMin="96" yMin="282" xMax="381" yMax="709">
      <contour>
        <pt x="376" y="282" on="1"/>
        <pt x="96" y="282" on="1"/>
        <pt x="101" y="303" on="1"/>
        <pt x="159" y="327" on="0"/>
        <pt x="210" y="337" on="1"/>
        <pt x="262" y="584" on="1"/>
        <pt x="277" y="629" on="1"/>
        <pt x="252" y="622" on="0"/>
        <pt x="189" y="617" on="0"/>
        <pt x="161" y="618" on="1"/>
        <pt x="167" y="647" on="1"/>
        <pt x="211" y="656" on="0"/>
        <pt x="295" y="689" on="0"/>
        <pt x="336" y="709" on="1"/>
        <pt x="367" y="709" on="1"/>
        <pt x="288" y="337" on="1"/>
        <pt x="313" y="331" on="0"/>
        <pt x="361" y="315" on="0"/>
        <pt x="381" y="303" on="1"/>
      </contour>
    </TTGlyph>
    <TTGlyph name="onehalf" xMin="69" yMin="-7" xMax="963" yMax="710">
      <component glyphName="fraction" x="345" y="0" flags="0x4"/>
      <component glyphName="one.numerator" x="-27" y="0" flags="0x4"/>
      <component glyphName="uni2082" x="598" y="100" flags="0x4"/>
    </TTGlyph>
    <TTGlyph name="onequarter" xMin="69" yMin="-7" xMax="906" yMax="710">
      <component glyphName="fraction" x="345" y="0" flags="0x4"/>
      <component glyphName="one.numerator" x="-27" y="0" flags="0x4"/>
      <component glyphName="uni2084" x="514" y="100" flags="0x4"/>
    </TTGlyph>
    <TTGlyph name="onesuperior" xMin="113" yMin="386" xMax="398" yMax="813">
      <component glyphName="one.numerator" x="17" y="104" flags="0x204"/>
    </TTGlyph>
    <TTGlyph name="ordfeminine" xMin="39" yMin="378" xMax="406" yMax="712">
      <contour>
        <pt x="283" y="488" on="1"/>
        <pt x="276" y="474" on="0"/>
        <pt x="250" y="436" on="0"/>
        <pt x="212" y="402" on="0"/>
        <pt x="164" y="378" on="0"/>
        <pt x="136" y="378" on="1"/>
        <pt x="90" y="378" on="0"/>
        <pt x="39" y="439" on="0"/>
        <pt x="39" y="494" on="1"/>
        <pt x="39" y="543" on="0"/>
        <pt x="73" y="624" on="0"/>
        <pt x="131" y="681" on="0"/>
        <pt x="207" y="712" on="0"/>
        <pt x="249" y="712" on="1"/>
        <pt x="269" y="712" on="0"/>
        <pt x="312" y="703" on="0"/>
        <pt x="329" y="693" on="1"/>
        <pt x="389" y="708" on="1"/>
        <pt x="406" y="700" on="1"/>
        <pt x="349" y="431" on="1"/>
        <pt x="400" y="422" on="1"/>
        <pt x="400" y="404" on="1"/>
        <pt x="384" y="393" on="0"/>
        <pt x="334" y="378" on="0"/>
        <pt x="304" y="378" on="1"/>
        <pt x="284" y="378" on="0"/>
        <pt x="271" y="400" on="0"/>
        <pt x="273" y="414" on="1"/>
        <pt x="287" y="488" on="1"/>
      </contour>
      <contour>
        <pt x="171" y="428" on="1"/>
        <pt x="189" y="428" on="0"/>
        <pt x="226" y="451" on="0"/>
        <pt x="260" y="484" on="0"/>
        <pt x="288" y="523" on="0"/>
        <pt x="296" y="540" on="1"/>
        <pt x="319" y="655" on="1"/>
        <pt x="305" y="661" on="0"/>
        <pt x="274" y="673" on="0"/>
        <pt x="257" y="673" on="1"/>
        <pt x="232" y="673" on="0"/>
        <pt x="184" y="651" on="0"/>
        <pt x="146" y="607" on="0"/>
        <pt x="123" y="542" on="0"/>
        <pt x="123" y="500" on="1"/>
        <pt x="123" y="469" on="0"/>
        <pt x="147" y="428" on="0"/>
      </contour>
    </TTGlyph>
    <TTGlyph name="ordmasculine" xMin="39" yMin="372" xMax="398" yMax="712">
      <contour>
        <pt x="39" y="500" on="1"/>
        <pt x="39" y="546" on="0"/>
        <pt x="75" y="624" on="0"/>
        <pt x="135" y="680" on="0"/>
        <pt x="213" y="712" on="0"/>
        <pt x="255" y="712" on="1"/>
        <pt x="324" y="712" on="0"/>
        <pt x="398" y="640" on="0"/>
        <pt x="398" y="583" on="1"/>
        <pt x="398" y="531" on="0"/>
        <pt x="359" y="452" on="0"/>
        <pt x="298" y="399" on="0"/>
        <pt x="221" y="372" on="0"/>
        <pt x="183" y="372" on="1"/>
        <pt x="153" y="372" on="0"/>
        <pt x="100" y="391" on="0"/>
        <pt x="61" y="425" on="0"/>
        <pt x="39" y="472" on="0"/>
      </contour>
      <contour>
        <pt x="122" y="499" on="1"/>
        <pt x="122" y="481" on="0"/>
        <pt x="129" y="449" on="0"/>
        <pt x="146" y="424" on="0"/>
        <pt x="172" y="409" on="0"/>
        <pt x="190" y="409" on="1"/>
        <pt x="212" y="409" on="0"/>
        <pt x="257" y="431" on="0"/>
        <pt x="293" y="477" on="0"/>
        <pt x="315" y="547" on="0"/>
        <pt x="315" y="595" on="1"/>
        <pt x="315" y="610" on="0"/>
        <pt x="308" y="638" on="0"/>
        <pt x="292" y="661" on="0"/>
        <pt x="266" y="674" on="0"/>
        <pt x="246" y="674" on="1"/>
        <pt x="224" y="674" on="0"/>
        <pt x="180" y="647" on="0"/>
        <pt x="144" y="601" on="0"/>
        <pt x="122" y="536" on="0"/>
      </contour>
    </TTGlyph>
    <TTGlyph name="oslash" xMin="-19" yMin="-62" xMax="526" yMax="558">
      <contour>
        <pt x="41" y="186" on="1"/>
        <pt x="41" y="239" on="0"/>
        <pt x="74" y="354" on="0"/>
        <pt x="142" y="450" on="0"/>
        <pt x="244" y="512" on="0"/>
        <pt x="312" y="512" on="1"/>
        <pt x="376" y="512" on="0"/>
        <pt x="417" y="476" on="1"/>
        <pt x="488" y="558" on="1"/>
        <pt x="526" y="527" on="1"/>
        <pt x="447" y="435" on="1"/>
        <pt x="458" y="412" on="0"/>
        <pt x="469" y="357" on="0"/>
        <pt x="469" y="322" on="1"/>
        <pt x="469" y="256" on="0"/>
        <pt x="431" y="135" on="0"/>
        <pt x="363" y="43" on="0"/>
        <pt x="267" y="-12" on="0"/>
        <pt x="209" y="-12" on="1"/>
        <pt x="139" y="-12" on="0"/>
        <pt x="95" y="29" on="1"/>
        <pt x="17" y="-62" on="1"/>
        <pt x="-19" y="-30" on="1"/>
        <pt x="66" y="69" on="1"/>
        <pt x="41" y="113" on="0"/>
      </contour>
      <contour>
        <pt x="227" y="31" on="1"/>
        <pt x="261" y="31" on="0"/>
        <pt x="316" y="83" on="0"/>
        <pt x="355" y="168" on="0"/>
        <pt x="376" y="275" on="0"/>
        <pt x="376" y="330" on="1"/>
        <pt x="376" y="354" on="1"/>
        <pt x="147" y="88" on="1"/>
        <pt x="158" y="61" on="0"/>
        <pt x="199" y="31" on="0"/>
      </contour>
      <contour>
        <pt x="292" y="469" on="1"/>
        <pt x="244" y="468" on="0"/>
        <pt x="182" y="408" on="0"/>
        <pt x="146" y="318" on="0"/>
        <pt x="132" y="214" on="0"/>
        <pt x="131" y="171" on="1"/>
        <pt x="131" y="164" on="0"/>
        <pt x="131" y="152" on="0"/>
        <pt x="132" y="145" on="1"/>
        <pt x="365" y="414" on="1"/>
        <pt x="343" y="468" on="0"/>
      </contour>
    </TTGlyph>
    <TTGlyph name="otilde" xMin="41" yMin="-12" xMax="488" yMax="712">
      <component glyphName="o" x="0" y="0" flags="0x204"/>
      <component glyphName="tilde" x="56" y="0" flags="0x4"/>
    </TTGlyph>
    <TTGlyph name="p" xMin="1" yMin="-200" xMax="508" yMax="512">
      <contour>
        <pt x="97" y="-146" on="1"/>
        <pt x="132" y="-152" on="0"/>
        <pt x="167" y="-171" on="1"/>
        <pt x="167" y="-200" on="1"/>
        <pt x="10" y="-200" on="1"/>
        <pt x="1" y="-191" on="1"/>
        <pt x="44" y="8" on="1"/>
        <pt x="137" y="442" on="1"/>
        <pt x="76" y="451" on="1"/>
        <pt x="76" y="476" on="1"/>
        <pt x="109" y="490" on="0"/>
        <pt x="182" y="512" on="0"/>
        <pt x="214" y="512" on="1"/>
        <pt x="234" y="500" on="1"/>
        <pt x="193" y="324" on="1"/>
        <pt x="197" y="324" on="1"/>
        <pt x="215" y="364" on="0"/>
        <pt x="258" y="432" on="0"/>
        <pt x="308" y="483" on="0"/>
        <pt x="366" y="512" on="0"/>
        <pt x="399" y="512" on="1"/>
        <pt x="421" y="512" on="0"/>
        <pt x="461" y="495" on="0"/>
        <pt x="491" y="460" on="0"/>
        <pt x="508" y="408" on="0"/>
        <pt x="508" y="374" on="1"/>
        <pt x="508" y="297" on="0"/>
        <pt x="462" y="157" on="0"/>
        <pt x="383" y="51" on="0"/>
        <pt x="277" y="-12" on="0"/>
        <pt x="216" y="-12" on="1"/>
        <pt x="199" y="-12" on="0"/>
        <pt x="175" y="-10" on="0"/>
        <pt x="157" y="-5" on="0"/>
        <pt x="140" y="3" on="0"/>
        <pt x="130" y="8" on="1"/>
      </contour>
      <contour>
        <pt x="352" y="450" on="1"/>
        <pt x="323" y="450" on="0"/>
        <pt x="271" y="405" on="0"/>
        <pt x="226" y="341" on="0"/>
        <pt x="190" y="270" on="0"/>
        <pt x="179" y="243" on="1"/>
        <pt x="140" y="54" on="1"/>
        <pt x="154" y="42" on="0"/>
        <pt x="185" y="31" on="0"/>
        <pt x="219" y="31" on="1"/>
        <pt x="259" y="31" on="0"/>
        <pt x="330" y="90" on="0"/>
        <pt x="383" y="182" on="0"/>
        <pt x="414" y="295" on="0"/>
        <pt x="414" y="350" on="1"/>
        <pt x="414" y="398" on="0"/>
        <pt x="381" y="450" on="0"/>
      </contour>
    </TTGlyph>
    <TTGlyph name="paragraph" xMin="89" yMin="-212" xMax="480" yMax="700">
      <contour>
        <pt x="404" y="94" on="1"/>
        <pt x="404" y="27" on="0"/>
        <pt x="386" y="-58" on="0"/>
        <pt x="352" y="-109" on="0"/>
        <pt x="305" y="-133" on="0"/>
        <pt x="277" y="-139" on="1"/>
        <pt x="257" y="-171" on="0"/>
        <pt x="203" y="-204" on="0"/>
        <pt x="177" y="-212" on="1"/>
        <pt x="166" y="-192" on="1"/>
        <pt x="188" y="-183" on="0"/>
        <pt x="225" y="-152" on="0"/>
        <pt x="252" y="-102" on="0"/>
        <pt x="267" y="-28" on="0"/>
        <pt x="267" y="24" on="1"/>
        <pt x="267" y="310" on="1"/>
        <pt x="235" y="310" on="0"/>
        <pt x="172" y="330" on="0"/>
        <pt x="121" y="375" on="0"/>
        <pt x="89" y="448" on="0"/>
        <pt x="89" y="500" on="1"/>
        <pt x="89" y="542" on="0"/>
        <pt x="114" y="615" on="0"/>
        <pt x="163" y="669" on="0"/>
        <pt x="239" y="700" on="0"/>
        <pt x="290" y="700" on="1"/>
        <pt x="480" y="700" on="1"/>
        <pt x="480" y="670" on="1"/>
        <pt x="463" y="662" on="0"/>
        <pt x="427" y="650" on="0"/>
        <pt x="404" y="646" on="1"/>
      </contour>
      <contour>
        <pt x="288" y="-116" on="1"/>
        <pt x="330" y="-99" on="0"/>
        <pt x="358" y="5" on="0"/>
        <pt x="358" y="94" on="1"/>
        <pt x="358" y="651" on="1"/>
        <pt x="314" y="651" on="1"/>
        <pt x="314" y="24" on="1"/>
        <pt x="314" y="-16" on="0"/>
        <pt x="302" y="-90" on="0"/>
      </contour>
    </TTGlyph>
    <TTGlyph name="parenleft" xMin="61" yMin="-210" xMax="434" yMax="702">
      <contour>
        <pt x="220" y="-210" on="1"/>
        <pt x="134" y="-136" on="0"/>
        <pt x="61" y="25" on="0"/>
        <pt x="61" y="117" on="1"/>
        <pt x="61" y="229" on="0"/>
        <pt x="128" y="411" on="0"/>
        <pt x="231" y="555" on="0"/>
        <pt x="357" y="664" on="0"/>
        <pt x="417" y="702" on="1"/>
        <pt x="434" y="684" on="1"/>
        <pt x="385" y="642" on="0"/>
        <pt x="283" y="528" on="0"/>
        <pt x="199" y="389" on="0"/>
        <pt x="146" y="223" on="0"/>
        <pt x="147" y="129" on="1"/>
        <pt x="146" y="39" on="0"/>
        <pt x="190" y="-118" on="0"/>
        <pt x="249" y="-190" on="1"/>
      </contour>
    </TTGlyph>
    <TTGlyph name="parenright" xMin="-80" yMin="-210" xMax="291" yMax="702">
      <contour>
        <pt x="-80" y="-190" on="1"/>
        <pt x="-36" y="-154" on="0"/>
        <pt x="65" y="-42" on="0"/>
        <pt x="150" y="103" on="0"/>
        <pt x="207" y="279" on="0"/>
        <pt x="207" y="379" on="1"/>
        <pt x="207" y="422" on="0"/>
        <pt x="198" y="496" on="0"/>
        <pt x="175" y="568" on="0"/>
        <pt x="135" y="642" on="0"/>
        <pt x="104" y="684" on="1"/>
        <pt x="130" y="702" on="1"/>
        <pt x="216" y="624" on="0"/>
        <pt x="291" y="463" on="0"/>
        <pt x="291" y="369" on="1"/>
        <pt x="291" y="265" on="0"/>
        <pt x="229" y="86" on="0"/>
        <pt x="129" y="-60" on="0"/>
        <pt x="4" y="-173" on="0"/>
        <pt x="-60" y="-210" on="1"/>
      </contour>
    </TTGlyph>
    <TTGlyph name="percent" xMin="42" yMin="-11" xMax="741" yMax="712">
      <component glyphName="fraction" x="233" y="0" flags="0x4"/>
      <component glyphName="ordmasculine" x="24" y="0" flags="0x4"/>
      <component glyphName="ordmasculine" x="315" y="-383" flags="0x4"/>
    </TTGlyph>
    <TTGlyph name="period" xMin="29" yMin="-8" xMax="166" yMax="123">
      <contour>
        <pt x="29" y="57" on="1"/>
        <pt x="29" y="87" on="0"/>
        <pt x="67" y="123" on="0"/>
        <pt x="97" y="123" on="1"/>
        <pt x="128" y="123" on="0"/>
        <pt x="166" y="87" on="0"/>
        <pt x="166" y="57" on="1"/>
        <pt x="166" y="28" on="0"/>
        <pt x="128" y="-8" on="0"/>
        <pt x="97" y="-8" on="1"/>
        <pt x="67" y="-8" on="0"/>
        <pt x="29" y="28" on="0"/>
      </contour>
    </TTGlyph>
    <TTGlyph name="periodcentered" xMin="60" yMin="242" xMax="197" yMax="373">
      <component glyphName="period" x="31" y="250" flags="0x4"/>
    </TTGlyph>
    <TTGlyph name="perthousand" xMin="42" yMin="-11" xMax="1108" yMax="712">
      <component glyphName="ordmasculine" x="710" y="-383" flags="0x4"/>
      <component glyphName="fraction" x="233" y="0" flags="0x4"/>
      <component glyphName="ordmasculine" x="24" y="0" flags="0x4"/>
      <component glyphName="ordmasculine" x="315" y="-383" flags="0x4"/>
    </TTGlyph>
    <TTGlyph name="plus" xMin="37" yMin="102" xMax="487" yMax="580">
      <contour>
        <pt x="37" y="370" on="1"/>
        <pt x="235" y="370" on="1"/>
        <pt x="235" y="580" on="1"/>
        <pt x="288" y="580" on="1"/>
        <pt x="288" y="370" on="1"/>
        <pt x="487" y="370" on="1"/>
        <pt x="487" y="317" on="1"/>
        <pt x="288" y="317" on="1"/>
        <pt x="288" y="102" on="1"/>
        <pt x="235" y="102" on="1"/>
        <pt x="235" y="317" on="1"/>
        <pt x="37" y="317" on="1"/>
      </contour>
    </TTGlyph>
    <TTGlyph name="plusminus" xMin="37" yMin="177" xMax="487" yMax="700">
      <contour>
        <pt x="37" y="490" on="1"/>
        <pt x="235" y="490" on="1"/>
        <pt x="235" y="700" on="1"/>
        <pt x="288" y="700" on="1"/>
        <pt x="288" y="490" on="1"/>
        <pt x="487" y="490" on="1"/>
        <pt x="487" y="437" on="1"/>
        <pt x="288" y="437" on="1"/>
        <pt x="288" y="283" on="1"/>
        <pt x="235" y="283" on="1"/>
        <pt x="235" y="437" on="1"/>
        <pt x="37" y="437" on="1"/>
      </contour>
      <contour>
        <pt x="37" y="230" on="1"/>
        <pt x="487" y="230" on="1"/>
        <pt x="487" y="177" on="1"/>
        <pt x="37" y="177" on="1"/>
      </contour>
    </TTGlyph>
    <TTGlyph name="q" xMin="40" yMin="-200" xMax="488" yMax="509">
      <contour>
        <pt x="354" y="-146" on="1"/>
        <pt x="387" y="-152" on="0"/>
        <pt x="424" y="-171" on="1"/>
        <pt x="424" y="-200" on="1"/>
        <pt x="267" y="-200" on="1"/>
        <pt x="258" y="-192" on="1"/>
        <pt x="347" y="195" on="1"/>
        <pt x="343" y="195" on="1"/>
        <pt x="330" y="160" on="0"/>
        <pt x="291" y="86" on="0"/>
        <pt x="240" y="26" on="0"/>
        <pt x="179" y="-12" on="0"/>
        <pt x="144" y="-12" on="1"/>
        <pt x="40" y="-12" on="0"/>
        <pt x="40" y="140" on="1"/>
        <pt x="40" y="211" on="0"/>
        <pt x="78" y="344" on="0"/>
        <pt x="153" y="447" on="0"/>
        <pt x="264" y="509" on="0"/>
        <pt x="338" y="509" on="1"/>
        <pt x="360" y="509" on="0"/>
        <pt x="405" y="503" on="0"/>
        <pt x="445" y="494" on="0"/>
        <pt x="478" y="483" on="0"/>
        <pt x="488" y="478" on="1"/>
      </contour>
      <contour>
        <pt x="186" y="50" on="1"/>
        <pt x="213" y="50" on="0"/>
        <pt x="266" y="101" on="0"/>
        <pt x="314" y="173" on="0"/>
        <pt x="352" y="250" on="0"/>
        <pt x="363" y="276" on="1"/>
        <pt x="396" y="452" on="1"/>
        <pt x="385" y="460" on="0"/>
        <pt x="355" y="466" on="0"/>
        <pt x="332" y="466" on="1"/>
        <pt x="281" y="466" on="0"/>
        <pt x="205" y="409" on="0"/>
        <pt x="154" y="319" on="0"/>
        <pt x="129" y="209" on="0"/>
        <pt x="130" y="156" on="1"/>
        <pt x="129" y="105" on="0"/>
        <pt x="155" y="50" on="0"/>
      </contour>
    </TTGlyph>
    <TTGlyph name="question" xMin="118" yMin="-8" xMax="507" yMax="712">
      <contour>
        <pt x="194" y="519" on="1"/>
        <pt x="169" y="519" on="1"/>
        <pt x="167" y="533" on="0"/>
        <pt x="162" y="569" on="0"/>
        <pt x="158" y="609" on="0"/>
        <pt x="158" y="650" on="0"/>
        <pt x="160" y="670" on="1"/>
        <pt x="203" y="693" on="0"/>
        <pt x="290" y="712" on="0"/>
        <pt x="341" y="712" on="1"/>
        <pt x="421" y="712" on="0"/>
        <pt x="507" y="641" on="0"/>
        <pt x="507" y="578" on="1"/>
        <pt x="507" y="528" on="0"/>
        <pt x="465" y="455" on="0"/>
        <pt x="401" y="396" on="0"/>
        <pt x="325" y="345" on="0"/>
        <pt x="257" y="290" on="0"/>
        <pt x="207" y="224" on="0"/>
        <pt x="202" y="180" on="1"/>
        <pt x="182" y="180" on="1"/>
        <pt x="178" y="232" on="0"/>
        <pt x="209" y="310" on="0"/>
        <pt x="259" y="373" on="0"/>
        <pt x="321" y="426" on="0"/>
        <pt x="374" y="479" on="0"/>
        <pt x="410" y="536" on="0"/>
        <pt x="411" y="573" on="1"/>
        <pt x="410" y="618" on="0"/>
        <pt x="359" y="660" on="0"/>
        <pt x="318" y="660" on="1"/>
        <pt x="286" y="660" on="0"/>
        <pt x="243" y="650" on="0"/>
        <pt x="233" y="642" on="1"/>
      </contour>
      <contour>
        <pt x="118" y="57" on="1"/>
        <pt x="118" y="87" on="0"/>
        <pt x="156" y="123" on="0"/>
        <pt x="186" y="123" on="1"/>
        <pt x="217" y="123" on="0"/>
        <pt x="255" y="87" on="0"/>
        <pt x="255" y="57" on="1"/>
        <pt x="255" y="28" on="0"/>
        <pt x="217" y="-8" on="0"/>
        <pt x="186" y="-8" on="1"/>
        <pt x="156" y="-8" on="0"/>
        <pt x="118" y="28" on="0"/>
      </contour>
    </TTGlyph>
    <TTGlyph name="questiondown" xMin="-14" yMin="-208" xMax="379" yMax="512">
      <contour>
        <pt x="299" y="-15" on="1"/>
        <pt x="324" y="-15" on="1"/>
        <pt x="327" y="-36" on="0"/>
        <pt x="335" y="-95" on="0"/>
        <pt x="335" y="-126" on="1"/>
        <pt x="335" y="-137" on="0"/>
        <pt x="334" y="-156" on="0"/>
        <pt x="333" y="-166" on="1"/>
        <pt x="290" y="-189" on="0"/>
        <pt x="204" y="-208" on="0"/>
        <pt x="152" y="-208" on="1"/>
        <pt x="72" y="-208" on="0"/>
        <pt x="-14" y="-138" on="0"/>
        <pt x="-14" y="-75" on="1"/>
        <pt x="-14" y="-25" on="0"/>
        <pt x="28" y="49" on="0"/>
        <pt x="92" y="108" on="0"/>
        <pt x="168" y="159" on="0"/>
        <pt x="236" y="214" on="0"/>
        <pt x="286" y="279" on="0"/>
        <pt x="292" y="323" on="1"/>
        <pt x="311" y="323" on="1"/>
        <pt x="315" y="271" on="0"/>
        <pt x="285" y="193" on="0"/>
        <pt x="234" y="130" on="0"/>
        <pt x="173" y="78" on="0"/>
        <pt x="119" y="25" on="0"/>
        <pt x="83" y="-33" on="0"/>
        <pt x="82" y="-69" on="1"/>
        <pt x="83" y="-114" on="0"/>
        <pt x="135" y="-157" on="0"/>
        <pt x="176" y="-156" on="1"/>
        <pt x="208" y="-157" on="0"/>
        <pt x="250" y="-146" on="0"/>
        <pt x="260" y="-138" on="1"/>
      </contour>
      <contour>
        <pt x="242" y="446" on="1"/>
        <pt x="242" y="476" on="0"/>
        <pt x="280" y="512" on="0"/>
        <pt x="310" y="512" on="1"/>
        <pt x="341" y="512" on="0"/>
        <pt x="379" y="476" on="0"/>
        <pt x="379" y="446" on="1"/>
        <pt x="379" y="417" on="0"/>
        <pt x="341" y="381" on="0"/>
        <pt x="310" y="381" on="1"/>
        <pt x="280" y="381" on="0"/>
        <pt x="242" y="417" on="0"/>
      </contour>
    </TTGlyph>
    <TTGlyph name="quotedbl" xMin="89" yMin="504" xMax="294" yMax="700">
      <component glyphName="quotesingle" x="120" y="0" flags="0x4"/>
      <component glyphName="quotesingle" x="0" y="0" flags="0x4"/>
    </TTGlyph>
    <TTGlyph name="quotedblbase" xMin="0" yMin="-145" xMax="362" yMax="114">
      <component glyphName="quotesinglbase" x="182" y="0" flags="0x4"/>
      <component glyphName="quotesinglbase" x="0" y="0" flags="0x4"/>
    </TTGlyph>
    <TTGlyph name="quotedblleft" xMin="141" yMin="575" xMax="503" yMax="834">
      <component glyphName="quoteleft" x="183" y="0" flags="0x4"/>
      <component glyphName="quoteleft" x="1" y="0" flags="0x4"/>
    </TTGlyph>
    <TTGlyph name="quotedblright" xMin="120" yMin="440" xMax="482" yMax="699">
      <component glyphName="quotesinglbase" x="302" y="585" flags="0x4"/>
      <component glyphName="quotesinglbase" x="120" y="585" flags="0x4"/>
    </TTGlyph>
    <TTGlyph name="quoteleft" xMin="140" yMin="575" xMax="320" yMax="834">
      <contour>
        <pt x="320" y="804" on="1"/>
        <pt x="285" y="791" on="0"/>
        <pt x="232" y="729" on="0"/>
        <pt x="227" y="692" on="1"/>
        <pt x="235" y="682" on="0"/>
        <pt x="270" y="665" on="0"/>
        <pt x="281" y="660" on="1"/>
        <pt x="282" y="644" on="0"/>
        <pt x="266" y="614" on="0"/>
        <pt x="242" y="590" on="0"/>
        <pt x="215" y="575" on="0"/>
        <pt x="206" y="575" on="1"/>
        <pt x="178" y="578" on="0"/>
        <pt x="140" y="611" on="0"/>
        <pt x="140" y="643" on="1"/>
        <pt x="140" y="675" on="0"/>
        <pt x="169" y="737" on="0"/>
        <pt x="216" y="788" on="0"/>
        <pt x="276" y="825" on="0"/>
        <pt x="307" y="834" on="1"/>
      </contour>
    </TTGlyph>
    <TTGlyph name="quoteright" xMin="120" yMin="440" xMax="300" yMax="699">
      <component glyphName="quotesinglbase" x="120" y="585" flags="0x4"/>
    </TTGlyph>
    <TTGlyph name="quotesinglbase" xMin="0" yMin="-145" xMax="180" yMax="114">
      <contour>
        <pt x="0" y="-115" on="1"/>
        <pt x="36" y="-102" on="0"/>
        <pt x="88" y="-40" on="0"/>
        <pt x="93" y="-3" on="1"/>
        <pt x="85" y="7" on="0"/>
        <pt x="50" y="24" on="0"/>
        <pt x="39" y="29" on="1"/>
        <pt x="38" y="45" on="0"/>
        <pt x="54" y="75" on="0"/>
        <pt x="78" y="99" on="0"/>
        <pt x="105" y="114" on="0"/>
        <pt x="114" y="114" on="1"/>
        <pt x="143" y="111" on="0"/>
        <pt x="180" y="78" on="0"/>
        <pt x="180" y="46" on="1"/>
        <pt x="180" y="14" on="0"/>
        <pt x="151" y="-48" on="0"/>
        <pt x="104" y="-99" on="0"/>
        <pt x="44" y="-136" on="0"/>
        <pt x="14" y="-145" on="1"/>
      </contour>
    </TTGlyph>
    <TTGlyph name="quotesingle" xMin="89" yMin="504" xMax="174" yMax="700">
      <contour>
        <pt x="89" y="670" on="1"/>
        <pt x="97" y="683" on="0"/>
        <pt x="121" y="700" on="0"/>
        <pt x="138" y="700" on="1"/>
        <pt x="169" y="700" on="0"/>
        <pt x="174" y="670" on="1"/>
        <pt x="110" y="504" on="1"/>
        <pt x="90" y="504" on="1"/>
      </contour>
    </TTGlyph>
</ttFont>
